<svg id="text" xmlns="http://www.w3.org/2000/svg" width="984" height="252.62" viewBox="0 0 984 252.62">
  <title>upsample</title>
  <g>
    <polygon points="216 32.62 192 80.62 264 80.62 240 32.62 216 32.62" fill="#2c3e98" stroke="#2c3e98" stroke-miterlimit="10" opacity="0.4"/>
    <polygon points="264 32.62 240 80.62 312 80.62 288 32.62 264 32.62" fill="#2c3e98" stroke="#2c3e98" stroke-miterlimit="10" opacity="0.4"/>
    <polygon points="312 32.62 288 80.62 336 80.62 336 32.62 312 32.62" fill="#2c3e98" stroke="#2c3e98" stroke-miterlimit="10" opacity="0.4"/>
    <polygon points="168 32.62 168 80.62 216 80.62 192 32.62 168 32.62" fill="#2c3e98" stroke="#2c3e98" stroke-miterlimit="10" opacity="0.4"/>
    <rect x="168.33" y="8.62" width="23.93" height="23.93" fill="#727273" stroke="#231f20" stroke-miterlimit="10"/>
    <rect x="192.27" y="8.62" width="23.93" height="23.93" fill="#f2f2f2" stroke="#231f20" stroke-miterlimit="10"/>
    <rect x="216.2" y="8.62" width="23.93" height="23.93" fill="#727273" stroke="#231f20" stroke-miterlimit="10"/>
    <rect x="240.13" y="8.62" width="23.93" height="23.93" fill="#f2f2f2" stroke="#231f20" stroke-miterlimit="10"/>
    <rect x="264.07" y="8.62" width="23.93" height="23.93" fill="#727273" stroke="#231f20" stroke-miterlimit="10"/>
    <rect x="288" y="8.62" width="23.93" height="23.93" fill="#f2f2f2" stroke="#231f20" stroke-miterlimit="10"/>
    <rect x="311.93" y="8.62" width="23.93" height="23.93" fill="#727273" stroke="#231f20" stroke-miterlimit="10"/>
    <rect x="168.33" y="80.62" width="23.93" height="23.93" fill="silver" stroke="#231f20" stroke-miterlimit="10"/>
    <rect x="192.27" y="80.62" width="23.93" height="23.93" fill="#727273" stroke="#231f20" stroke-miterlimit="10"/>
    <rect x="216.2" y="80.62" width="23.93" height="23.93" fill="silver" stroke="#231f20" stroke-miterlimit="10"/>
    <rect x="240.13" y="80.62" width="23.93" height="23.93" fill="#727273" stroke="#231f20" stroke-miterlimit="10"/>
    <rect x="264.07" y="80.62" width="23.93" height="23.93" fill="silver" stroke="#231f20" stroke-miterlimit="10"/>
    <rect x="288" y="80.62" width="23.93" height="23.93" fill="#727273" stroke="#231f20" stroke-miterlimit="10"/>
    <rect x="311.93" y="80.62" width="23.93" height="23.93" fill="silver" stroke="#231f20" stroke-miterlimit="10"/>
  </g>
  <g>
    <g>
      <polygon points="600 145.42 600 122.62 604.5 122.62 604.5 123.69 601.09 123.69 601.09 145.42 600 145.42"/>
      <rect x="600" y="144.78" width="1.09" height="50.68"/>
      <polygon points="600 218.62 600 194.83 601.09 194.83 601.09 217.56 604.5 217.56 604.5 218.62 600 218.62"/>
    </g>
    <g>
      <polygon points="763.5 123.69 763.5 122.62 768 122.62 768 145.42 766.91 145.42 766.91 123.69 763.5 123.69"/>
      <rect x="766.91" y="144.78" width="1.09" height="50.68"/>
      <polygon points="766.91 217.56 766.91 194.83 768 194.83 768 218.62 763.5 218.62 763.5 217.56 766.91 217.56"/>
    </g>
    <path d="M701.14,154.48a4.11,4.11,0,0,1,3.79-3.86,2,2,0,0,1,1.23.33,1.05,1.05,0,0,1,.46.86,0.92,0.92,0,0,1-.27.67,0.94,0.94,0,0,1-.67.29,0.61,0.61,0,0,1-.42-0.14,0.52,0.52,0,0,1-.15-0.41,0.72,0.72,0,0,1,.15-0.46,1.26,1.26,0,0,1,.31-0.29,0.35,0.35,0,0,1,.2-0.08h0a0.16,0.16,0,0,0-.08-0.08,1.08,1.08,0,0,0-.29-0.11,1.88,1.88,0,0,0-.47-0.05,1.74,1.74,0,0,0-.8.19,2,2,0,0,0-.6.42,3.53,3.53,0,0,0-.89,1.69,8.24,8.24,0,0,0-.29,1.58,1.18,1.18,0,0,0,.36.94,1.06,1.06,0,0,0,.81.33h0.06a3.29,3.29,0,0,0,2.58-1.16,0.4,0.4,0,0,1,.17-0.14,0.36,0.36,0,0,1,.18.12,0.46,0.46,0,0,1,.14.19,0.29,0.29,0,0,1-.13.2l-0.4.38a2.32,2.32,0,0,1-.63.41q-0.36.16-.89,0.34a3,3,0,0,1-1.12.15,2.26,2.26,0,0,1-1.69-.66A2.33,2.33,0,0,1,701.14,154.48Z"/>
    <g>
      <path d="M696.12,169.44v-0.08a0.83,0.83,0,0,0-.85-1,1.22,1.22,0,0,0-.49.11,1.85,1.85,0,0,0-.46.29l-0.36.33a1.79,1.79,0,0,0-.25.3l-0.08.11-0.29,1.17a7.7,7.7,0,0,0-.31,1.67,1.32,1.32,0,0,0,.33,1,0.77,0.77,0,0,0,.56.22,1.4,1.4,0,0,0,.93-0.44,2.34,2.34,0,0,0,.56-0.76,9,9,0,0,0,.46-1.43A6.57,6.57,0,0,0,696.12,169.44ZM692.45,165a1.06,1.06,0,0,1,.06-0.31,0.2,0.2,0,0,1,.17-0.18l1-.07,1-.08q0.17,0,.17.12t-0.47,2l-0.24,1q-0.13.49-.21,0.74l-0.06.26s0,0,.08,0a2.24,2.24,0,0,1,1.41-.55,1.74,1.74,0,0,1,1.4.63,2.43,2.43,0,0,1,.54,1.58,4,4,0,0,1-1.1,2.74,3.18,3.18,0,0,1-2.37,1.23,1.85,1.85,0,0,1-1.27-.52,2.21,2.21,0,0,1-.59-1.68v-0.12a3.92,3.92,0,0,1,.11-0.79q0.11-.5.68-2.69,0.7-2.69.7-2.85t-0.53-.19h-0.36a0.17,0.17,0,0,1-.1,0A0.09,0.09,0,0,1,692.45,165Z"/>
      <path d="M699,170.64v-0.18a0.3,0.3,0,0,1,.2-0.27h4.17V166.1a0.37,0.37,0,0,1,.27-0.18,0.3,0.3,0,0,1,.28.2v4.07H708a0.28,0.28,0,0,1,0,.55h-4.16v4.07a0.31,0.31,0,0,1-.25.19h-0.06a0.27,0.27,0,0,1-.25-0.19v-4.07h-4.17a0.3,0.3,0,0,1-.2-0.27v0.18Z"/>
      <path d="M710.29,171.71a4.11,4.11,0,0,1,3.79-3.86,2,2,0,0,1,1.23.33,1.05,1.05,0,0,1,.46.86,0.92,0.92,0,0,1-.27.67,0.94,0.94,0,0,1-.67.29,0.61,0.61,0,0,1-.42-0.14,0.52,0.52,0,0,1-.15-0.41,0.72,0.72,0,0,1,.15-0.46,1.26,1.26,0,0,1,.31-0.29,0.35,0.35,0,0,1,.2-0.08h0a0.16,0.16,0,0,0-.08-0.08,1.08,1.08,0,0,0-.29-0.11,1.88,1.88,0,0,0-.47-0.05,1.73,1.73,0,0,0-.8.19,2,2,0,0,0-.6.42,3.53,3.53,0,0,0-.89,1.69,8.24,8.24,0,0,0-.29,1.58,1.18,1.18,0,0,0,.36.94,1.06,1.06,0,0,0,.81.33h0.06a3.29,3.29,0,0,0,2.58-1.16,0.4,0.4,0,0,1,.17-0.14,0.36,0.36,0,0,1,.18.12,0.47,0.47,0,0,1,.14.19,0.29,0.29,0,0,1-.13.2l-0.4.38a2.32,2.32,0,0,1-.63.41q-0.36.16-.89,0.34a3,3,0,0,1-1.12.15,2.26,2.26,0,0,1-1.69-.66A2.33,2.33,0,0,1,710.29,171.71Z"/>
    </g>
    <g>
      <path d="M695.73,190a1.21,1.21,0,0,0-.07-0.3,1.3,1.3,0,0,0-.32-0.48,0.9,0.9,0,0,0-.64-0.27,1.35,1.35,0,0,0-.93.42,2.85,2.85,0,0,0-.7,1.11,10.7,10.7,0,0,0-.57,2.24v0.15a0.71,0.71,0,0,1,0,.16,1.13,1.13,0,0,0,.25.85,0.91,0.91,0,0,0,.6.25,1.59,1.59,0,0,0,1-.45A2.31,2.31,0,0,0,695,193s0.14-.52.38-1.46S695.72,190.11,695.73,190Zm-4.44,2.33a4,4,0,0,1,1.06-2.62,3.14,3.14,0,0,1,2.39-1.26,1.59,1.59,0,0,1,1.26.67,0.7,0.7,0,0,1,.64-0.41,0.51,0.51,0,0,1,.32.11,0.33,0.33,0,0,1,.14.27q0,0.18-.52,2.18T696,193.59a0.72,0.72,0,0,0,.1.45,0.41,0.41,0,0,0,.29.12,0.61,0.61,0,0,0,.28-0.12,3.06,3.06,0,0,0,.57-1.31,0.5,0.5,0,0,1,.14-0.29h0.2q0.27,0,.27.12a2.13,2.13,0,0,1-.07.37,4.22,4.22,0,0,1-.28.74,2.32,2.32,0,0,1-.45.68,1.38,1.38,0,0,1-.45.29,1.52,1.52,0,0,1-.33,0,1.45,1.45,0,0,1-.8-0.2,1.06,1.06,0,0,1-.42-0.42l-0.08-.2a0,0,0,0,0-.06,0l-0.06.05a2.47,2.47,0,0,1-1.67.76,1.93,1.93,0,0,1-1.35-.55A2.27,2.27,0,0,1,691.29,192.37Z"/>
      <path d="M699.76,191.28V191.1a0.3,0.3,0,0,1,.2-0.27h4.17v-4.09a0.37,0.37,0,0,1,.27-0.18,0.3,0.3,0,0,1,.28.2v4.07h4.16a0.28,0.28,0,0,1,0,.55h-4.16v4.07a0.31,0.31,0,0,1-.25.19h-0.06a0.27,0.27,0,0,1-.25-0.19v-4.07H700a0.3,0.3,0,0,1-.2-0.27v0.18Z"/>
      <path d="M715.3,190.08V190a0.83,0.83,0,0,0-.85-1,1.22,1.22,0,0,0-.49.11,1.85,1.85,0,0,0-.46.29l-0.36.33a1.79,1.79,0,0,0-.25.3l-0.08.11-0.29,1.17a7.7,7.7,0,0,0-.31,1.67,1.32,1.32,0,0,0,.33,1,0.77,0.77,0,0,0,.56.22,1.4,1.4,0,0,0,.93-0.44,2.34,2.34,0,0,0,.56-0.76,9,9,0,0,0,.46-1.43A6.57,6.57,0,0,0,715.3,190.08Zm-3.67-4.39a1.06,1.06,0,0,1,.06-0.31,0.2,0.2,0,0,1,.17-0.18l1-.07,1-.08q0.17,0,.17.12t-0.47,2l-0.24,1q-0.13.49-.21,0.74l-0.06.26s0,0,.08,0a2.24,2.24,0,0,1,1.41-.55,1.74,1.74,0,0,1,1.4.63,2.43,2.43,0,0,1,.54,1.58,4,4,0,0,1-1.1,2.74,3.18,3.18,0,0,1-2.37,1.23,1.85,1.85,0,0,1-1.27-.52,2.21,2.21,0,0,1-.59-1.68v-0.12a3.92,3.92,0,0,1,.11-0.79q0.11-.5.68-2.69,0.7-2.69.7-2.85t-0.53-.19h-0.36a0.17,0.17,0,0,1-.1,0A0.09,0.09,0,0,1,711.63,185.69Z"/>
    </g>
    <path d="M705,210.11a1.21,1.21,0,0,0-.07-0.3,1.3,1.3,0,0,0-.32-0.48,0.9,0.9,0,0,0-.64-0.27,1.35,1.35,0,0,0-.93.42,2.85,2.85,0,0,0-.7,1.11,10.71,10.71,0,0,0-.57,2.24V213a0.71,0.71,0,0,1,0,.16,1.13,1.13,0,0,0,.25.85,0.91,0.91,0,0,0,.6.25,1.59,1.59,0,0,0,1-.45,2.31,2.31,0,0,0,.61-0.7s0.14-.52.38-1.46S705,210.19,705,210.11Zm-4.44,2.33a4,4,0,0,1,1.06-2.62,3.14,3.14,0,0,1,2.39-1.26,1.59,1.59,0,0,1,1.26.67,0.7,0.7,0,0,1,.64-0.41,0.51,0.51,0,0,1,.32.11,0.33,0.33,0,0,1,.14.27q0,0.18-.52,2.18t-0.53,2.27a0.72,0.72,0,0,0,.1.45,0.41,0.41,0,0,0,.29.12,0.61,0.61,0,0,0,.28-0.12,3.06,3.06,0,0,0,.57-1.31,0.5,0.5,0,0,1,.14-0.29h0.2q0.27,0,.27.12a2.13,2.13,0,0,1-.07.37,4.22,4.22,0,0,1-.28.74,2.32,2.32,0,0,1-.45.68,1.38,1.38,0,0,1-.45.29,1.52,1.52,0,0,1-.33,0,1.45,1.45,0,0,1-.8-0.2,1.06,1.06,0,0,1-.42-0.42l-0.08-.2a0,0,0,0,0-.06,0l-0.06.05a2.47,2.47,0,0,1-1.67.76,1.93,1.93,0,0,1-1.35-.55A2.27,2.27,0,0,1,700.6,212.45Z"/>
    <g>
      <path d="M649.7,130v-0.08a0.83,0.83,0,0,0-.85-1,1.22,1.22,0,0,0-.49.11,1.85,1.85,0,0,0-.46.29l-0.36.33a1.79,1.79,0,0,0-.25.3l-0.08.11-0.29,1.17a7.7,7.7,0,0,0-.31,1.67,1.32,1.32,0,0,0,.33,1,0.77,0.77,0,0,0,.56.22,1.4,1.4,0,0,0,.93-0.44,2.34,2.34,0,0,0,.56-0.76,9,9,0,0,0,.46-1.43A6.57,6.57,0,0,0,649.7,130ZM646,125.63a1.06,1.06,0,0,1,.06-0.31,0.2,0.2,0,0,1,.17-0.18l1-.07,1-.08q0.17,0,.17.12t-0.47,2l-0.24,1q-0.13.49-.21,0.74l-0.06.26s0,0,.08,0a2.24,2.24,0,0,1,1.41-.55,1.74,1.74,0,0,1,1.4.63,2.43,2.43,0,0,1,.54,1.58,4,4,0,0,1-1.1,2.74,3.18,3.18,0,0,1-2.37,1.23,1.85,1.85,0,0,1-1.27-.52,2.21,2.21,0,0,1-.59-1.68v-0.12a3.92,3.92,0,0,1,.11-0.79q0.11-.5.68-2.69,0.7-2.69.7-2.85t-0.53-.19h-0.36a0.17,0.17,0,0,1-.1,0A0.09,0.09,0,0,1,646,125.63Z"/>
      <path d="M652.55,131.23v-0.18a0.3,0.3,0,0,1,.2-0.27h4.17v-4.09a0.37,0.37,0,0,1,.27-0.18,0.3,0.3,0,0,1,.28.2v4.07h4.16a0.28,0.28,0,0,1,0,.55h-4.16v4.07a0.31,0.31,0,0,1-.25.19h-0.06a0.27,0.27,0,0,1-.25-0.19v-4.07h-4.17a0.3,0.3,0,0,1-.2-0.27v0.18Z"/>
      <path d="M663.88,132.29a4.11,4.11,0,0,1,3.79-3.86,2,2,0,0,1,1.23.33,1.05,1.05,0,0,1,.46.86,0.92,0.92,0,0,1-.27.67,0.94,0.94,0,0,1-.67.29,0.61,0.61,0,0,1-.42-0.14,0.52,0.52,0,0,1-.15-0.41,0.72,0.72,0,0,1,.15-0.46,1.26,1.26,0,0,1,.31-0.29,0.35,0.35,0,0,1,.2-0.08h0a0.16,0.16,0,0,0-.08-0.08,1.08,1.08,0,0,0-.29-0.11,1.88,1.88,0,0,0-.47-0.05,1.73,1.73,0,0,0-.8.19,2,2,0,0,0-.6.42,3.53,3.53,0,0,0-.89,1.69,8.24,8.24,0,0,0-.29,1.58,1.18,1.18,0,0,0,.36.94,1.06,1.06,0,0,0,.81.33h0.06a3.29,3.29,0,0,0,2.58-1.16,0.4,0.4,0,0,1,.17-0.14,0.36,0.36,0,0,1,.18.12,0.47,0.47,0,0,1,.14.19,0.29,0.29,0,0,1-.13.2l-0.4.38a2.32,2.32,0,0,1-.63.41q-0.36.16-.89,0.34a3,3,0,0,1-1.12.15,2.26,2.26,0,0,1-1.69-.66A2.33,2.33,0,0,1,663.88,132.29Z"/>
    </g>
    <g>
      <path d="M649.31,150.63a1.21,1.21,0,0,0-.07-0.3,1.3,1.3,0,0,0-.32-0.48,0.9,0.9,0,0,0-.64-0.27,1.35,1.35,0,0,0-.93.42,2.85,2.85,0,0,0-.7,1.11,10.7,10.7,0,0,0-.57,2.24v0.15a0.71,0.71,0,0,1,0,.16,1.13,1.13,0,0,0,.25.85,0.91,0.91,0,0,0,.6.25,1.59,1.59,0,0,0,1-.45,2.31,2.31,0,0,0,.61-0.7s0.14-.52.38-1.46S649.3,150.7,649.31,150.63ZM644.88,153a4,4,0,0,1,1.06-2.62,3.14,3.14,0,0,1,2.39-1.26,1.59,1.59,0,0,1,1.26.67,0.7,0.7,0,0,1,.64-0.41,0.51,0.51,0,0,1,.32.11,0.33,0.33,0,0,1,.14.27q0,0.18-.52,2.18t-0.53,2.27a0.72,0.72,0,0,0,.1.45,0.41,0.41,0,0,0,.29.12,0.61,0.61,0,0,0,.28-0.12,3.06,3.06,0,0,0,.57-1.31A0.5,0.5,0,0,1,651,153h0.2q0.27,0,.27.12a2.13,2.13,0,0,1-.07.37,4.22,4.22,0,0,1-.28.74,2.32,2.32,0,0,1-.45.68,1.38,1.38,0,0,1-.45.29,1.52,1.52,0,0,1-.33,0,1.45,1.45,0,0,1-.8-0.2,1.06,1.06,0,0,1-.42-0.42l-0.08-.2a0,0,0,0,0-.06,0l-0.06.05a2.47,2.47,0,0,1-1.67.76,1.93,1.93,0,0,1-1.35-.55A2.27,2.27,0,0,1,644.88,153Z"/>
      <path d="M653.35,151.87v-0.18a0.3,0.3,0,0,1,.2-0.27h4.17v-4.09a0.37,0.37,0,0,1,.27-0.18,0.3,0.3,0,0,1,.28.2v4.07h4.16a0.28,0.28,0,0,1,0,.55h-4.16V156a0.31,0.31,0,0,1-.25.19H658a0.27,0.27,0,0,1-.25-0.19V152h-4.17a0.3,0.3,0,0,1-.2-0.27v0.18Z"/>
      <path d="M668.89,150.67v-0.08a0.83,0.83,0,0,0-.85-1,1.22,1.22,0,0,0-.49.11,1.85,1.85,0,0,0-.46.29l-0.36.33a1.79,1.79,0,0,0-.25.3l-0.08.11-0.29,1.17a7.7,7.7,0,0,0-.31,1.67,1.32,1.32,0,0,0,.33,1,0.77,0.77,0,0,0,.56.22,1.4,1.4,0,0,0,.93-0.44,2.34,2.34,0,0,0,.56-0.76,9,9,0,0,0,.46-1.43A6.57,6.57,0,0,0,668.89,150.67Zm-3.67-4.39a1.06,1.06,0,0,1,.06-0.31,0.2,0.2,0,0,1,.17-0.18l1-.07,1-.08q0.17,0,.17.12t-0.47,2l-0.24,1q-0.13.49-.21,0.74l-0.06.26s0,0,.08,0a2.24,2.24,0,0,1,1.41-.55,1.74,1.74,0,0,1,1.4.63,2.43,2.43,0,0,1,.54,1.58A4,4,0,0,1,669,154a3.18,3.18,0,0,1-2.37,1.23,1.85,1.85,0,0,1-1.27-.52,2.21,2.21,0,0,1-.59-1.68v-0.12a3.92,3.92,0,0,1,.11-0.79q0.11-.5.68-2.69,0.7-2.69.7-2.85t-0.53-.19h-0.36a0.17,0.17,0,0,1-.1,0A0.09,0.09,0,0,1,665.22,146.27Z"/>
    </g>
    <path d="M658.62,170.7a1.21,1.21,0,0,0-.07-0.3,1.3,1.3,0,0,0-.32-0.48,0.9,0.9,0,0,0-.64-0.27,1.35,1.35,0,0,0-.93.42,2.85,2.85,0,0,0-.7,1.11,10.71,10.71,0,0,0-.57,2.24v0.15a0.71,0.71,0,0,1,0,.16,1.13,1.13,0,0,0,.25.85,0.91,0.91,0,0,0,.6.25,1.59,1.59,0,0,0,1-.45,2.31,2.31,0,0,0,.61-0.7s0.14-.52.38-1.46S658.61,170.77,658.62,170.7ZM654.18,173a4,4,0,0,1,1.06-2.62,3.14,3.14,0,0,1,2.39-1.26,1.59,1.59,0,0,1,1.26.67,0.7,0.7,0,0,1,.64-0.41,0.51,0.51,0,0,1,.32.11,0.33,0.33,0,0,1,.14.27q0,0.18-.52,2.18t-0.53,2.27a0.72,0.72,0,0,0,.1.45,0.41,0.41,0,0,0,.29.12,0.61,0.61,0,0,0,.28-0.12,3.06,3.06,0,0,0,.57-1.31,0.5,0.5,0,0,1,.14-0.29h0.2q0.27,0,.27.12a2.13,2.13,0,0,1-.07.37,4.22,4.22,0,0,1-.28.74,2.32,2.32,0,0,1-.45.68,1.38,1.38,0,0,1-.45.29,1.52,1.52,0,0,1-.33,0,1.45,1.45,0,0,1-.8-0.2,1.06,1.06,0,0,1-.42-0.42l-0.08-.2a0,0,0,0,0-.06,0l-0.06.05a2.47,2.47,0,0,1-1.67.76,1.93,1.93,0,0,1-1.35-.55A2.27,2.27,0,0,1,654.18,173Z"/>
    <path d="M618,129.38a1.21,1.21,0,0,0-.07-0.3,1.3,1.3,0,0,0-.32-0.48,0.9,0.9,0,0,0-.64-0.27,1.35,1.35,0,0,0-.93.42,2.85,2.85,0,0,0-.7,1.11,10.71,10.71,0,0,0-.57,2.24v0.15a0.71,0.71,0,0,1,0,.16,1.13,1.13,0,0,0,.25.85,0.91,0.91,0,0,0,.6.25,1.59,1.59,0,0,0,1-.45,2.31,2.31,0,0,0,.61-0.7s0.14-.52.38-1.46S618,129.46,618,129.38Zm-4.44,2.33a4,4,0,0,1,1.06-2.62,3.14,3.14,0,0,1,2.39-1.26,1.59,1.59,0,0,1,1.26.67,0.7,0.7,0,0,1,.64-0.41,0.51,0.51,0,0,1,.32.11,0.33,0.33,0,0,1,.14.27q0,0.18-.52,2.18t-0.53,2.27a0.72,0.72,0,0,0,.1.45,0.41,0.41,0,0,0,.29.12,0.61,0.61,0,0,0,.28-0.12,3.06,3.06,0,0,0,.57-1.31,0.5,0.5,0,0,1,.14-0.29h0.2q0.27,0,.27.12a2.13,2.13,0,0,1-.07.37,4.22,4.22,0,0,1-.28.74,2.32,2.32,0,0,1-.45.68,1.38,1.38,0,0,1-.45.29,1.52,1.52,0,0,1-.33,0,1.45,1.45,0,0,1-.8-0.2,1.06,1.06,0,0,1-.42-0.42l-0.08-.2a0,0,0,0,0-.06,0l-0.06.05a2.47,2.47,0,0,1-1.67.76,1.93,1.93,0,0,1-1.35-.55A2.27,2.27,0,0,1,613.55,131.72Z"/>
    <path d="M744.47,194.5a4.11,4.11,0,0,1,3.79-3.86,2,2,0,0,1,1.23.33,1.05,1.05,0,0,1,.46.86,0.92,0.92,0,0,1-.27.67,0.94,0.94,0,0,1-.67.29,0.61,0.61,0,0,1-.42-0.14,0.52,0.52,0,0,1-.15-0.41,0.72,0.72,0,0,1,.15-0.46,1.26,1.26,0,0,1,.31-0.29,0.35,0.35,0,0,1,.2-0.08h0a0.16,0.16,0,0,0-.08-0.08,1.08,1.08,0,0,0-.29-0.11,1.88,1.88,0,0,0-.47-0.05,1.74,1.74,0,0,0-.8.19,2,2,0,0,0-.6.42,3.53,3.53,0,0,0-.89,1.69,8.24,8.24,0,0,0-.29,1.58,1.18,1.18,0,0,0,.36.94,1.06,1.06,0,0,0,.81.33h0.06a3.29,3.29,0,0,0,2.58-1.16,0.4,0.4,0,0,1,.17-0.14,0.36,0.36,0,0,1,.18.12,0.46,0.46,0,0,1,.14.19,0.29,0.29,0,0,1-.13.2l-0.4.38a2.32,2.32,0,0,1-.63.41q-0.36.16-.89,0.34a3,3,0,0,1-1.12.15,2.26,2.26,0,0,1-1.69-.66A2.33,2.33,0,0,1,744.47,194.5Z"/>
    <g>
      <path d="M739.45,209.47v-0.08a0.83,0.83,0,0,0-.85-1,1.22,1.22,0,0,0-.49.11,1.85,1.85,0,0,0-.46.29l-0.36.33a1.79,1.79,0,0,0-.25.3l-0.08.11-0.29,1.17a7.7,7.7,0,0,0-.31,1.67,1.32,1.32,0,0,0,.33,1,0.77,0.77,0,0,0,.56.22,1.4,1.4,0,0,0,.93-0.44,2.34,2.34,0,0,0,.56-0.76,9,9,0,0,0,.46-1.43A6.57,6.57,0,0,0,739.45,209.47Zm-3.67-4.39a1.06,1.06,0,0,1,.06-0.31,0.2,0.2,0,0,1,.17-0.18l1-.07,1-.08q0.17,0,.17.12t-0.47,2l-0.24,1q-0.13.49-.21,0.74l-0.06.26s0,0,.08,0a2.24,2.24,0,0,1,1.41-.55,1.74,1.74,0,0,1,1.4.63,2.43,2.43,0,0,1,.54,1.58,4,4,0,0,1-1.1,2.74,3.18,3.18,0,0,1-2.37,1.23,1.85,1.85,0,0,1-1.27-.52,2.21,2.21,0,0,1-.59-1.68v-0.12a3.92,3.92,0,0,1,.11-0.79q0.11-.5.68-2.69,0.7-2.69.7-2.85t-0.53-.19h-0.36a0.17,0.17,0,0,1-.1,0A0.09,0.09,0,0,1,735.78,205.07Z"/>
      <path d="M742.3,210.67v-0.18a0.3,0.3,0,0,1,.2-0.27h4.17v-4.09a0.37,0.37,0,0,1,.27-0.18,0.3,0.3,0,0,1,.28.2v4.07h4.16a0.28,0.28,0,0,1,0,.55h-4.16v4.07a0.31,0.31,0,0,1-.25.19h-0.06a0.27,0.27,0,0,1-.25-0.19v-4.07h-4.17a0.3,0.3,0,0,1-.2-0.27v0.18Z"/>
      <path d="M753.62,211.73a4.11,4.11,0,0,1,3.79-3.86,2,2,0,0,1,1.23.33,1.05,1.05,0,0,1,.46.86,0.92,0.92,0,0,1-.27.67,0.94,0.94,0,0,1-.67.29,0.61,0.61,0,0,1-.42-0.14,0.52,0.52,0,0,1-.15-0.41,0.72,0.72,0,0,1,.15-0.46,1.26,1.26,0,0,1,.31-0.29,0.35,0.35,0,0,1,.2-0.08h0a0.16,0.16,0,0,0-.08-0.08,1.08,1.08,0,0,0-.29-0.11,1.88,1.88,0,0,0-.47-0.05,1.73,1.73,0,0,0-.8.19,2,2,0,0,0-.6.42,3.53,3.53,0,0,0-.89,1.69,8.24,8.24,0,0,0-.29,1.58,1.18,1.18,0,0,0,.36.94,1.06,1.06,0,0,0,.81.33h0.06a3.29,3.29,0,0,0,2.58-1.16,0.4,0.4,0,0,1,.17-0.14,0.36,0.36,0,0,1,.18.12,0.47,0.47,0,0,1,.14.19,0.29,0.29,0,0,1-.13.2l-0.4.38a2.32,2.32,0,0,1-.63.41q-0.36.16-.89,0.34a3,3,0,0,1-1.12.15,2.26,2.26,0,0,1-1.69-.66A2.33,2.33,0,0,1,753.62,211.73Z"/>
    </g>
  </g>
  <g>
    <g>
      <polygon points="168 145.66 168 122.62 172.5 122.62 172.5 123.7 169.09 123.7 169.09 145.66 168 145.66"/>
      <rect x="168" y="145.02" width="1.09" height="51.21"/>
      <polygon points="168 218.62 168 195.59 169.09 195.59 169.09 217.55 172.5 217.55 172.5 218.62 168 218.62"/>
    </g>
    <g>
      <polygon points="331.5 123.7 331.5 122.62 336 122.62 336 145.66 334.91 145.66 334.91 123.7 331.5 123.7"/>
      <rect x="334.91" y="145.02" width="1.09" height="51.21"/>
      <polygon points="334.91 217.55 334.91 195.59 336 195.59 336 218.62 331.5 218.62 331.5 217.55 334.91 217.55"/>
    </g>
    <path d="M219.66,150.67a1.38,1.38,0,0,0-.08-0.34,1.46,1.46,0,0,0-.36-0.54,1,1,0,0,0-.72-0.31,1.51,1.51,0,0,0-1,.48,3.22,3.22,0,0,0-.78,1.25,12.2,12.2,0,0,0-.64,2.53v0.17a0.81,0.81,0,0,1,0,.19,1.29,1.29,0,0,0,.28,1,1,1,0,0,0,.67.28,1.77,1.77,0,0,0,1.17-.51,2.6,2.6,0,0,0,.69-0.79s0.16-.59.42-1.65S219.65,150.75,219.66,150.67Zm-5,2.64a4.53,4.53,0,0,1,1.19-3,3.5,3.5,0,0,1,2.67-1.42,1.77,1.77,0,0,1,1.4.76,0.78,0.78,0,0,1,.72-0.46,0.56,0.56,0,0,1,.36.12,0.38,0.38,0,0,1,.16.31q0,0.2-.58,2.47T220,154.68a0.82,0.82,0,0,0,.11.51,0.46,0.46,0,0,0,.33.14,0.68,0.68,0,0,0,.31-0.14,3.48,3.48,0,0,0,.64-1.48,0.57,0.57,0,0,1,.16-0.32l0.16,0h0.06q0.3,0,.3.14a2.42,2.42,0,0,1-.08.42,4.8,4.8,0,0,1-.31.83,2.62,2.62,0,0,1-.5.77,1.55,1.55,0,0,1-.5.32,1.68,1.68,0,0,1-.37,0,1.61,1.61,0,0,1-.89-0.23,1.19,1.19,0,0,1-.47-0.48l-0.09-.23s0,0-.06,0l-0.06.06a2.75,2.75,0,0,1-1.87.86,2.14,2.14,0,0,1-1.51-.62A2.58,2.58,0,0,1,214.7,153.31Z"/>
    <path d="M219.65,132.48v-0.09a0.93,0.93,0,0,0-1-1.14,1.35,1.35,0,0,0-.55.12,2.06,2.06,0,0,0-.51.32l-0.41.37a2,2,0,0,0-.28.34l-0.09.12-0.33,1.33a8.78,8.78,0,0,0-.34,1.88,1.5,1.5,0,0,0,.37,1.11,0.85,0.85,0,0,0,.62.25,1.56,1.56,0,0,0,1-.49,2.64,2.64,0,0,0,.62-0.86,10.19,10.19,0,0,0,.51-1.62A7.5,7.5,0,0,0,219.65,132.48Zm-4.1-5a1.21,1.21,0,0,1,.06-0.35,0.22,0.22,0,0,1,.19-0.2l1.12-.08,1.14-.09q0.19,0,.19.14t-0.53,2.21q-0.12.52-.27,1.08t-0.23.83l-0.06.29s0,0,.09,0a2.49,2.49,0,0,1,1.58-.62,1.93,1.93,0,0,1,1.56.71,2.76,2.76,0,0,1,.61,1.79,4.55,4.55,0,0,1-1.23,3.1,3.55,3.55,0,0,1-2.65,1.39,2.05,2.05,0,0,1-1.42-.59,2.51,2.51,0,0,1-.66-1.9V135a4.47,4.47,0,0,1,.12-0.89q0.12-.57.76-3,0.78-3,.78-3.22t-0.59-.22H215.7a0.19,0.19,0,0,1-.11,0A0.1,0.1,0,0,1,215.55,127.51Z"/>
    <path d="M255.31,188.44a1.38,1.38,0,0,0-.08-0.34,1.46,1.46,0,0,0-.36-0.54,1,1,0,0,0-.72-0.31,1.51,1.51,0,0,0-1,.48,3.22,3.22,0,0,0-.78,1.25,12.2,12.2,0,0,0-.64,2.53v0.17a0.81,0.81,0,0,1,0,.19,1.29,1.29,0,0,0,.28,1,1,1,0,0,0,.67.28,1.77,1.77,0,0,0,1.17-.51,2.6,2.6,0,0,0,.69-0.79s0.16-.59.42-1.65S255.3,188.52,255.31,188.44Zm-5,2.64a4.53,4.53,0,0,1,1.19-3,3.5,3.5,0,0,1,2.67-1.42,1.77,1.77,0,0,1,1.4.76,0.78,0.78,0,0,1,.72-0.46,0.56,0.56,0,0,1,.36.12,0.38,0.38,0,0,1,.16.31q0,0.2-.58,2.47t-0.59,2.56a0.82,0.82,0,0,0,.11.51,0.46,0.46,0,0,0,.33.14,0.68,0.68,0,0,0,.31-0.14,3.48,3.48,0,0,0,.64-1.48,0.57,0.57,0,0,1,.16-0.32l0.16,0h0.06q0.3,0,.3.14a2.42,2.42,0,0,1-.08.42,4.8,4.8,0,0,1-.31.83,2.62,2.62,0,0,1-.5.77,1.55,1.55,0,0,1-.5.32,1.68,1.68,0,0,1-.37,0,1.61,1.61,0,0,1-.89-0.23,1.19,1.19,0,0,1-.47-0.48l-0.09-.23s0,0-.06,0l-0.06.06a2.75,2.75,0,0,1-1.87.86A2.14,2.14,0,0,1,251,193,2.58,2.58,0,0,1,250.35,191.08Z"/>
    <path d="M255.31,170.25v-0.09a0.93,0.93,0,0,0-1-1.14,1.35,1.35,0,0,0-.55.12,2.06,2.06,0,0,0-.51.32l-0.41.37a2,2,0,0,0-.28.34l-0.09.12-0.33,1.33a8.78,8.78,0,0,0-.34,1.88,1.5,1.5,0,0,0,.37,1.11,0.85,0.85,0,0,0,.62.25,1.56,1.56,0,0,0,1-.49,2.64,2.64,0,0,0,.62-0.86,10.19,10.19,0,0,0,.51-1.62A7.5,7.5,0,0,0,255.31,170.25Zm-4.1-5a1.21,1.21,0,0,1,.06-0.35,0.22,0.22,0,0,1,.19-0.2l1.12-.08,1.14-.09q0.19,0,.19.14t-0.53,2.21q-0.12.52-.27,1.08t-0.23.83l-0.06.29s0,0,.09,0a2.49,2.49,0,0,1,1.58-.62,1.93,1.93,0,0,1,1.56.71,2.76,2.76,0,0,1,.61,1.79,4.55,4.55,0,0,1-1.23,3.1,3.55,3.55,0,0,1-2.65,1.39,2.05,2.05,0,0,1-1.42-.59,2.51,2.51,0,0,1-.66-1.9v-0.14a4.47,4.47,0,0,1,.12-0.89q0.12-.57.76-3,0.78-3,.78-3.22t-0.59-.22h-0.41a0.19,0.19,0,0,1-.11,0A0.1,0.1,0,0,1,251.2,165.28Z"/>
    <path d="M250.63,154.56a4.18,4.18,0,0,1,1.34-3,4.05,4.05,0,0,1,2.9-1.34,2.26,2.26,0,0,1,1.37.37,1.2,1.2,0,0,1,.51,1,1.06,1.06,0,0,1-1,1.08,0.67,0.67,0,0,1-.47-0.15,0.59,0.59,0,0,1-.17-0.46,0.82,0.82,0,0,1,.17-0.52,1.42,1.42,0,0,1,.34-0.32,0.39,0.39,0,0,1,.22-0.09h0a0.18,0.18,0,0,0-.09-0.09,1.2,1.2,0,0,0-.33-0.12,2.08,2.08,0,0,0-.53-0.06,1.92,1.92,0,0,0-.89.22,2.21,2.21,0,0,0-.67.48,4,4,0,0,0-1,1.91,9.41,9.41,0,0,0-.33,1.79,1.34,1.34,0,0,0,.41,1.06,1.18,1.18,0,0,0,.9.37h0.06a3.66,3.66,0,0,0,2.89-1.31,0.44,0.44,0,0,1,.19-0.15,0.4,0.4,0,0,1,.2.14,0.53,0.53,0,0,1,.16.22,0.33,0.33,0,0,1-.14.23l-0.45.43a2.59,2.59,0,0,1-.7.46q-0.41.19-1,.39a3.37,3.37,0,0,1-1.25.17,2.51,2.51,0,0,1-1.89-.74A2.65,2.65,0,0,1,250.63,154.56Z"/>
    <path d="M290.48,208v-0.09a0.93,0.93,0,0,0-1-1.14,1.35,1.35,0,0,0-.55.12,2.06,2.06,0,0,0-.51.32l-0.41.37a2,2,0,0,0-.28.34l-0.09.12-0.33,1.33a8.78,8.78,0,0,0-.34,1.88,1.5,1.5,0,0,0,.37,1.11,0.85,0.85,0,0,0,.62.25,1.56,1.56,0,0,0,1-.49,2.64,2.64,0,0,0,.62-0.86,10.19,10.19,0,0,0,.51-1.62A7.5,7.5,0,0,0,290.48,208Zm-4.1-5a1.21,1.21,0,0,1,.06-0.35,0.22,0.22,0,0,1,.19-0.2l1.12-.08,1.14-.09q0.19,0,.19.14t-0.53,2.21q-0.12.52-.27,1.08t-0.23.83l-0.06.29s0,0,.09,0a2.49,2.49,0,0,1,1.58-.62,1.93,1.93,0,0,1,1.56.71,2.76,2.76,0,0,1,.61,1.79,4.55,4.55,0,0,1-1.23,3.1,3.55,3.55,0,0,1-2.65,1.39,2.05,2.05,0,0,1-1.42-.59,2.51,2.51,0,0,1-.66-1.9v-0.14a4.47,4.47,0,0,1,.12-0.89q0.12-.57.76-3,0.78-3,.78-3.22t-0.59-.22h-0.41a0.19,0.19,0,0,1-.11,0A0.1,0.1,0,0,1,286.38,203.05Z"/>
    <path d="M285.8,192.34a4.18,4.18,0,0,1,1.34-3A4.05,4.05,0,0,1,290,188a2.26,2.26,0,0,1,1.37.37,1.2,1.2,0,0,1,.51,1,1.06,1.06,0,0,1-1,1.08,0.67,0.67,0,0,1-.47-0.15,0.59,0.59,0,0,1-.17-0.46,0.82,0.82,0,0,1,.17-0.52,1.42,1.42,0,0,1,.34-0.32,0.39,0.39,0,0,1,.22-0.09h0a0.18,0.18,0,0,0-.09-0.09,1.2,1.2,0,0,0-.33-0.12,2.08,2.08,0,0,0-.53-0.06,1.92,1.92,0,0,0-.89.22,2.21,2.21,0,0,0-.67.48,4,4,0,0,0-1,1.91,9.41,9.41,0,0,0-.33,1.79,1.34,1.34,0,0,0,.41,1.06,1.18,1.18,0,0,0,.9.37h0.06a3.66,3.66,0,0,0,2.89-1.31,0.44,0.44,0,0,1,.19-0.15,0.4,0.4,0,0,1,.2.14,0.53,0.53,0,0,1,.16.22,0.33,0.33,0,0,1-.14.23l-0.45.43a2.59,2.59,0,0,1-.7.46q-0.41.19-1,.39a3.37,3.37,0,0,1-1.25.17,2.51,2.51,0,0,1-1.89-.74A2.65,2.65,0,0,1,285.8,192.34Z"/>
  </g>
  <g>
    <g>
      <polygon points="384.17 145.66 384.17 122.62 388.66 122.62 388.66 123.7 385.26 123.7 385.26 145.66 384.17 145.66"/>
      <rect x="384.17" y="145.02" width="1.09" height="51.21"/>
      <polygon points="384.17 218.62 384.17 195.59 385.26 195.59 385.26 217.55 388.66 217.55 388.66 218.62 384.17 218.62"/>
    </g>
    <g>
      <polygon points="547.51 123.7 547.51 122.62 552 122.62 552 145.66 550.91 145.66 550.91 123.7 547.51 123.7"/>
      <rect x="550.91" y="145.02" width="1.09" height="51.21"/>
      <polygon points="550.91 217.55 550.91 195.59 552 195.59 552 218.62 547.51 218.62 547.51 217.55 550.91 217.55"/>
    </g>
    <g>
      <path d="M504.27,190.33v-0.05a0.52,0.52,0,0,0-.53-0.63,0.75,0.75,0,0,0-.3.07,1.14,1.14,0,0,0-.28.18l-0.22.2a1.12,1.12,0,0,0-.16.19l-0.05.07-0.18.73a4.86,4.86,0,0,0-.19,1,0.83,0.83,0,0,0,.21.61,0.47,0.47,0,0,0,.34.14,0.86,0.86,0,0,0,.58-0.27,1.46,1.46,0,0,0,.34-0.48,5.64,5.64,0,0,0,.28-0.89A4.15,4.15,0,0,0,504.27,190.33ZM502,187.58a0.67,0.67,0,0,1,0-.2,0.12,0.12,0,0,1,.1-0.11l0.62,0,0.63-.05q0.1,0,.1.08t-0.29,1.22l-0.15.6q-0.08.31-.13,0.46l0,0.16s0,0,.05,0a1.37,1.37,0,0,1,.87-0.34,1.07,1.07,0,0,1,.86.39,1.53,1.53,0,0,1,.34,1,2.52,2.52,0,0,1-.68,1.71,2,2,0,0,1-1.46.77,1.13,1.13,0,0,1-.78-0.32,1.39,1.39,0,0,1-.36-1v-0.08a2.48,2.48,0,0,1,.07-0.49q0.07-.32.42-1.68,0.43-1.68.43-1.78t-0.33-.12h-0.22l-0.06,0A0.05,0.05,0,0,1,502,187.58Z"/>
      <path d="M506,191.08V191a0.19,0.19,0,0,1,.12-0.17h2.58v-2.56a0.23,0.23,0,0,1,.16-0.11,0.19,0.19,0,0,1,.17.13v2.54h2.57a0.18,0.18,0,0,1,0,.34h-2.57v2.54a0.19,0.19,0,0,1-.16.12h0a0.17,0.17,0,0,1-.16-0.12v-2.54h-2.58A0.19,0.19,0,0,1,506,191v0.11Z"/>
      <path d="M513,191.74a2.31,2.31,0,0,1,.74-1.67,2.24,2.24,0,0,1,1.6-.74,1.25,1.25,0,0,1,.76.2,0.66,0.66,0,0,1,.28.54,0.59,0.59,0,0,1-.58.6,0.37,0.37,0,0,1-.26-0.09,0.33,0.33,0,0,1-.09-0.26,0.45,0.45,0,0,1,.09-0.29,0.78,0.78,0,0,1,.19-0.18,0.22,0.22,0,0,1,.12-0.05h0a0.1,0.1,0,0,0-.05-0.05l-0.18-.07a1.15,1.15,0,0,0-.29,0,1.06,1.06,0,0,0-.49.12,1.22,1.22,0,0,0-.37.26,2.21,2.21,0,0,0-.55,1.06,5.2,5.2,0,0,0-.18,1,0.74,0.74,0,0,0,.22.59,0.65,0.65,0,0,0,.5.2h0a2,2,0,0,0,1.59-.72,0.24,0.24,0,0,1,.1-0.09,0.22,0.22,0,0,1,.11.08,0.29,0.29,0,0,1,.09.12,0.18,0.18,0,0,1-.08.13l-0.25.24a1.43,1.43,0,0,1-.39.26q-0.22.1-.55,0.21a1.86,1.86,0,0,1-.69.09,1.39,1.39,0,0,1-1-.41A1.46,1.46,0,0,1,513,191.74Z"/>
      <g>
        <rect x="496.87" y="190.86" width="4.05" height="0.39"/>
        <path d="M498.66,186l-0.08,0-0.26.06-0.38,0h-0.12v-0.3h0.12a2.15,2.15,0,0,0,.57-0.1,1.55,1.55,0,0,0,.37-0.16l0.18-.14a0.1,0.1,0,0,1,.08,0,0.18,0.18,0,0,1,.11,0v3.87l0.08,0.06,0.16,0h0.57v0.3H500q-0.14,0-1,0t-1,0h-0.08v-0.3h0.58l0.1,0h0.05l0,0,0,0V186Z"/>
        <path d="M498,194a0.36,0.36,0,0,1-.28-0.12,0.41,0.41,0,0,1-.1-0.28,1.07,1.07,0,0,1,.35-0.8,1.19,1.19,0,0,1,.86-0.34,1.42,1.42,0,0,1,1,.36,1.23,1.23,0,0,1,.41.94,1.14,1.14,0,0,1-.13.53,1.83,1.83,0,0,1-.31.44q-0.18.19-.52,0.48l-0.65.59-0.39.36h0.5a7.93,7.93,0,0,0,1.09,0,1.74,1.74,0,0,0,.16-0.58v0h0.26v0s0,0.21-.08.59a4.77,4.77,0,0,1-.1.59v0h-2.42v-0.2a0.16,0.16,0,0,1,0-.1l0.2-.23,0.33-.36,0.22-.24,0.22-.24,0.19-.21L499,195l0.15-.19a1.1,1.1,0,0,0,.14-0.21l0.1-.19a0.83,0.83,0,0,0,.08-0.21l0-.19a1,1,0,0,0,0-.21,1.14,1.14,0,0,0-.22-0.7,0.74,0.74,0,0,0-.63-0.3,0.66,0.66,0,0,0-.38.11,0.78,0.78,0,0,0-.23.21,0.46,0.46,0,0,0-.07.12h0a0.41,0.41,0,0,1,.24.09,0.34,0.34,0,0,1,.12.3,0.38,0.38,0,0,1-.1.27A0.41,0.41,0,0,1,498,194Z"/>
      </g>
    </g>
    <g>
      <path d="M461.3,190.25a0.76,0.76,0,0,0,0-.19,0.81,0.81,0,0,0-.2-0.3,0.55,0.55,0,0,0-.4-0.17,0.83,0.83,0,0,0-.58.26,1.78,1.78,0,0,0-.43.69,6.75,6.75,0,0,0-.35,1.4V192a0.45,0.45,0,0,1,0,.1,0.71,0.71,0,0,0,.16.53,0.56,0.56,0,0,0,.37.15,1,1,0,0,0,.65-0.28,1.44,1.44,0,0,0,.38-0.43s0.09-.33.23-0.91S461.29,190.29,461.3,190.25Zm-2.74,1.46a2.5,2.5,0,0,1,.65-1.64,1.93,1.93,0,0,1,1.47-.78,1,1,0,0,1,.78.42,0.43,0.43,0,0,1,.4-0.26,0.31,0.31,0,0,1,.2.07,0.21,0.21,0,0,1,.09.17q0,0.11-.32,1.36t-0.33,1.41a0.45,0.45,0,0,0,.06.28,0.25,0.25,0,0,0,.18.08,0.38,0.38,0,0,0,.17-0.08,1.92,1.92,0,0,0,.35-0.82,0.32,0.32,0,0,1,.09-0.18h0.12q0.16,0,.16.08a1.34,1.34,0,0,1,0,.23,2.65,2.65,0,0,1-.17.46,1.45,1.45,0,0,1-.28.43,0.85,0.85,0,0,1-.28.18l-0.21,0a0.89,0.89,0,0,1-.49-0.13,0.66,0.66,0,0,1-.26-0.26l-0.05-.13h0l0,0a1.52,1.52,0,0,1-1,.48,1.18,1.18,0,0,1-.84-0.34A1.43,1.43,0,0,1,458.56,191.7Z"/>
      <path d="M464.49,191v-0.11a0.19,0.19,0,0,1,.12-0.17h2.58v-2.56a0.23,0.23,0,0,1,.16-0.11,0.19,0.19,0,0,1,.17.13v2.54h2.57a0.18,0.18,0,0,1,0,.34h-2.57v2.54a0.19,0.19,0,0,1-.16.12h0a0.17,0.17,0,0,1-.16-0.12v-2.54h-2.58a0.19,0.19,0,0,1-.12-0.17V191Z"/>
      <path d="M479.41,190.27v-0.05a0.52,0.52,0,0,0-.53-0.63,0.75,0.75,0,0,0-.3.07,1.14,1.14,0,0,0-.28.18l-0.22.2a1.12,1.12,0,0,0-.16.19l-0.05.07-0.18.73a4.86,4.86,0,0,0-.19,1,0.83,0.83,0,0,0,.21.61,0.47,0.47,0,0,0,.34.14,0.86,0.86,0,0,0,.58-0.27,1.46,1.46,0,0,0,.34-0.48,5.64,5.64,0,0,0,.28-0.89A4.15,4.15,0,0,0,479.41,190.27Zm-2.27-2.74a0.67,0.67,0,0,1,0-.2,0.12,0.12,0,0,1,.1-0.11l0.62,0,0.63-.05q0.1,0,.1.08t-0.29,1.22l-0.15.6q-0.08.31-.13,0.46l0,0.16s0,0,.05,0a1.37,1.37,0,0,1,.87-0.34,1.07,1.07,0,0,1,.86.39,1.53,1.53,0,0,1,.34,1,2.52,2.52,0,0,1-.68,1.71,2,2,0,0,1-1.46.77,1.13,1.13,0,0,1-.78-0.32,1.39,1.39,0,0,1-.36-1v-0.08a2.48,2.48,0,0,1,.07-0.49q0.07-.32.42-1.68,0.43-1.68.43-1.78t-0.33-.12h-0.22l-0.06,0A0.05,0.05,0,0,1,477.14,187.53Z"/>
      <g>
        <rect x="471.87" y="190.57" width="4.05" height="0.39"/>
        <path d="M473.66,185.67l-0.08,0-0.26.06-0.38,0h-0.12v-0.3h0.12a2.15,2.15,0,0,0,.57-0.1,1.55,1.55,0,0,0,.37-0.16l0.18-.14a0.1,0.1,0,0,1,.08,0,0.18,0.18,0,0,1,.11,0V189l0.08,0.06,0.16,0h0.57v0.3H475q-0.14,0-1,0t-1,0h-0.08v-0.3h0.58l0.1,0h0.05l0,0,0,0v-3.34Z"/>
        <path d="M473,193.69a0.36,0.36,0,0,1-.28-0.12,0.41,0.41,0,0,1-.1-0.28,1.07,1.07,0,0,1,.35-0.8,1.19,1.19,0,0,1,.86-0.34,1.42,1.42,0,0,1,1,.36,1.23,1.23,0,0,1,.41.94,1.14,1.14,0,0,1-.13.53,1.83,1.83,0,0,1-.31.44q-0.18.19-.52,0.48l-0.65.59-0.39.36h0.5a7.93,7.93,0,0,0,1.09,0,1.74,1.74,0,0,0,.16-0.58v0h0.26v0s0,0.21-.08.59a4.77,4.77,0,0,1-.1.59v0h-2.42v-0.2a0.16,0.16,0,0,1,0-.1l0.2-.23,0.33-.36,0.22-.24,0.22-.24,0.19-.21,0.18-.22,0.15-.19a1.1,1.1,0,0,0,.14-0.21l0.1-.19a0.83,0.83,0,0,0,.08-0.21l0-.19a1,1,0,0,0,0-.21,1.14,1.14,0,0,0-.22-0.7,0.74,0.74,0,0,0-.63-0.3,0.66,0.66,0,0,0-.38.11,0.78,0.78,0,0,0-.23.21,0.46,0.46,0,0,0-.07.12h0a0.41,0.41,0,0,1,.24.09,0.34,0.34,0,0,1,.12.3,0.38,0.38,0,0,1-.1.27A0.41,0.41,0,0,1,473,193.69Z"/>
      </g>
    </g>
    <g>
      <path d="M467.29,151.42v-0.05a0.52,0.52,0,0,0-.53-0.63,0.75,0.75,0,0,0-.3.07,1.14,1.14,0,0,0-.28.18l-0.22.2a1.12,1.12,0,0,0-.16.19l-0.05.07-0.18.73a4.86,4.86,0,0,0-.19,1,0.83,0.83,0,0,0,.21.61,0.47,0.47,0,0,0,.34.14,0.86,0.86,0,0,0,.58-0.27,1.46,1.46,0,0,0,.34-0.48,5.64,5.64,0,0,0,.28-0.89A4.15,4.15,0,0,0,467.29,151.42ZM465,148.68a0.67,0.67,0,0,1,0-.2,0.12,0.12,0,0,1,.1-0.11l0.62,0,0.63-.05q0.1,0,.1.08t-0.29,1.22l-0.15.6q-0.08.31-.13,0.46l0,0.16s0,0,.05,0a1.37,1.37,0,0,1,.87-0.34,1.07,1.07,0,0,1,.86.39,1.53,1.53,0,0,1,.34,1,2.52,2.52,0,0,1-.68,1.71,2,2,0,0,1-1.46.77,1.13,1.13,0,0,1-.78-0.32,1.39,1.39,0,0,1-.36-1v-0.08a2.48,2.48,0,0,1,.07-0.49q0.07-.32.42-1.68,0.43-1.68.43-1.78t-0.33-.12h-0.22l-0.06,0A0.05,0.05,0,0,1,465,148.68Z"/>
      <path d="M469.05,152.17v-0.11a0.19,0.19,0,0,1,.12-0.17h2.58v-2.56a0.23,0.23,0,0,1,.16-0.11,0.19,0.19,0,0,1,.17.13v2.54h2.57a0.18,0.18,0,0,1,0,.34H472.1v2.54a0.19,0.19,0,0,1-.16.12h0a0.17,0.17,0,0,1-.16-0.12v-2.54h-2.58a0.19,0.19,0,0,1-.12-0.17v0.11Z"/>
      <path d="M476,152.84a2.31,2.31,0,0,1,.74-1.67,2.24,2.24,0,0,1,1.6-.74,1.25,1.25,0,0,1,.76.2,0.66,0.66,0,0,1,.28.54,0.59,0.59,0,0,1-.58.6,0.37,0.37,0,0,1-.26-0.09,0.33,0.33,0,0,1-.09-0.26,0.45,0.45,0,0,1,.09-0.29,0.78,0.78,0,0,1,.19-0.18,0.22,0.22,0,0,1,.12-0.05h0a0.1,0.1,0,0,0-.05-0.05l-0.18-.07a1.15,1.15,0,0,0-.29,0,1.06,1.06,0,0,0-.49.12,1.22,1.22,0,0,0-.37.26,2.21,2.21,0,0,0-.55,1.06,5.2,5.2,0,0,0-.18,1,0.74,0.74,0,0,0,.22.59,0.65,0.65,0,0,0,.5.2h0a2,2,0,0,0,1.59-.72,0.24,0.24,0,0,1,.1-0.09,0.22,0.22,0,0,1,.11.08,0.29,0.29,0,0,1,.09.12,0.18,0.18,0,0,1-.08.13l-0.25.24a1.43,1.43,0,0,1-.39.26q-0.22.1-.55,0.21a1.86,1.86,0,0,1-.69.09,1.39,1.39,0,0,1-1-.41A1.46,1.46,0,0,1,476,152.84Z"/>
      <g>
        <rect x="459.9" y="151.96" width="4.05" height="0.39"/>
        <path d="M461.68,147.05l-0.08,0-0.26.06-0.38,0h-0.12v-0.3H461a2.15,2.15,0,0,0,.57-0.1,1.55,1.55,0,0,0,.37-0.16l0.18-.14a0.1,0.1,0,0,1,.08,0,0.18,0.18,0,0,1,.11,0v3.87l0.08,0.06,0.16,0h0.57v0.3H463q-0.14,0-1,0t-1,0h-0.08v-0.3h0.58l0.1,0h0.05l0,0,0,0v-3.34Z"/>
        <path d="M461,155.07a0.36,0.36,0,0,1-.28-0.12,0.41,0.41,0,0,1-.1-0.28,1.07,1.07,0,0,1,.35-0.8,1.19,1.19,0,0,1,.86-0.34,1.42,1.42,0,0,1,1,.36,1.23,1.23,0,0,1,.41.94,1.14,1.14,0,0,1-.13.53,1.83,1.83,0,0,1-.31.44q-0.18.19-.52,0.48l-0.65.59-0.39.36h0.5a7.93,7.93,0,0,0,1.09,0,1.74,1.74,0,0,0,.16-0.58v0h0.26v0s0,0.21-.08.59a4.77,4.77,0,0,1-.1.59v0h-2.42v-0.2a0.16,0.16,0,0,1,0-.1l0.2-.23,0.33-.36,0.22-.24,0.22-.24,0.19-.21L462,156l0.15-.19a1.1,1.1,0,0,0,.14-0.21l0.1-.19a0.83,0.83,0,0,0,.08-0.21l0-.19a1,1,0,0,0,0-.21,1.14,1.14,0,0,0-.22-0.7,0.74,0.74,0,0,0-.63-0.3,0.66,0.66,0,0,0-.38.11,0.78,0.78,0,0,0-.23.21,0.46,0.46,0,0,0-.07.12h0a0.41,0.41,0,0,1,.24.09,0.34,0.34,0,0,1,.12.3,0.38,0.38,0,0,1-.1.27A0.41,0.41,0,0,1,461,155.07Z"/>
      </g>
    </g>
    <g>
      <path d="M424.32,151.34a0.76,0.76,0,0,0,0-.19,0.81,0.81,0,0,0-.2-0.3,0.55,0.55,0,0,0-.4-0.17,0.83,0.83,0,0,0-.58.26,1.78,1.78,0,0,0-.43.69,6.75,6.75,0,0,0-.35,1.4v0.09a0.45,0.45,0,0,1,0,.1,0.71,0.71,0,0,0,.16.53,0.56,0.56,0,0,0,.37.15,1,1,0,0,0,.65-0.28,1.44,1.44,0,0,0,.38-0.43s0.09-.33.23-0.91S424.32,151.38,424.32,151.34Zm-2.74,1.46a2.5,2.5,0,0,1,.65-1.64,1.93,1.93,0,0,1,1.47-.78,1,1,0,0,1,.78.42,0.43,0.43,0,0,1,.4-0.26,0.31,0.31,0,0,1,.2.07,0.21,0.21,0,0,1,.09.17q0,0.11-.32,1.36t-0.33,1.41a0.45,0.45,0,0,0,.06.28,0.25,0.25,0,0,0,.18.08,0.38,0.38,0,0,0,.17-0.08,1.92,1.92,0,0,0,.35-0.82,0.32,0.32,0,0,1,.09-0.18h0.12q0.16,0,.16.08a1.34,1.34,0,0,1,0,.23,2.65,2.65,0,0,1-.17.46,1.45,1.45,0,0,1-.28.43,0.85,0.85,0,0,1-.28.18l-0.21,0a0.89,0.89,0,0,1-.49-0.13,0.66,0.66,0,0,1-.26-0.26l-0.05-.13h0l0,0a1.52,1.52,0,0,1-1,.48,1.18,1.18,0,0,1-.84-0.34A1.43,1.43,0,0,1,421.58,152.8Z"/>
      <path d="M427.52,152.11V152a0.19,0.19,0,0,1,.12-0.17h2.58v-2.56a0.23,0.23,0,0,1,.16-0.11,0.19,0.19,0,0,1,.17.13v2.54h2.57a0.18,0.18,0,0,1,0,.34h-2.57v2.54a0.19,0.19,0,0,1-.16.12h0a0.17,0.17,0,0,1-.16-0.12v-2.54h-2.58a0.19,0.19,0,0,1-.12-0.17v0.11Z"/>
      <path d="M442.43,151.36v-0.05a0.52,0.52,0,0,0-.53-0.63,0.75,0.75,0,0,0-.3.07,1.14,1.14,0,0,0-.28.18l-0.22.2a1.12,1.12,0,0,0-.16.19l-0.05.07-0.18.73a4.86,4.86,0,0,0-.19,1,0.83,0.83,0,0,0,.21.61,0.47,0.47,0,0,0,.34.14,0.86,0.86,0,0,0,.58-0.27,1.46,1.46,0,0,0,.34-0.48,5.64,5.64,0,0,0,.28-0.89A4.15,4.15,0,0,0,442.43,151.36Zm-2.27-2.74a0.67,0.67,0,0,1,0-.2,0.12,0.12,0,0,1,.1-0.11l0.62,0,0.63-.05q0.1,0,.1.08t-0.29,1.22l-0.15.6q-0.08.31-.13,0.46l0,0.16s0,0,.05,0a1.37,1.37,0,0,1,.87-0.34,1.07,1.07,0,0,1,.86.39,1.53,1.53,0,0,1,.34,1,2.52,2.52,0,0,1-.68,1.71,2,2,0,0,1-1.46.77,1.13,1.13,0,0,1-.78-0.32,1.39,1.39,0,0,1-.36-1v-0.08a2.48,2.48,0,0,1,.07-0.49q0.07-.32.42-1.68,0.43-1.68.43-1.78t-0.33-.12h-0.22l-0.06,0A0.05,0.05,0,0,1,440.17,148.62Z"/>
      <g>
        <rect x="434.9" y="151.67" width="4.05" height="0.39"/>
        <path d="M436.68,146.76l-0.08,0-0.26.06-0.38,0h-0.12v-0.3H436a2.15,2.15,0,0,0,.57-0.1,1.55,1.55,0,0,0,.37-0.16l0.18-.14a0.1,0.1,0,0,1,.08,0,0.18,0.18,0,0,1,.11,0v3.87l0.08,0.06,0.16,0h0.57v0.3H438q-0.14,0-1,0t-1,0h-0.08v-0.3h0.58l0.1,0h0.05l0,0,0,0v-3.34Z"/>
        <path d="M436,154.78a0.36,0.36,0,0,1-.28-0.12,0.41,0.41,0,0,1-.1-0.28,1.07,1.07,0,0,1,.35-0.8,1.19,1.19,0,0,1,.86-0.34,1.42,1.42,0,0,1,1,.36,1.23,1.23,0,0,1,.41.94,1.14,1.14,0,0,1-.13.53,1.83,1.83,0,0,1-.31.44q-0.18.19-.52,0.48l-0.65.59-0.39.36h0.5a7.93,7.93,0,0,0,1.09,0,1.74,1.74,0,0,0,.16-0.58v0h0.26v0s0,0.21-.08.59a4.77,4.77,0,0,1-.1.59v0h-2.42v-0.2a0.16,0.16,0,0,1,0-.1l0.2-.23,0.33-.36,0.22-.24,0.22-.24,0.19-.21,0.18-.22,0.15-.19a1.1,1.1,0,0,0,.14-0.21l0.1-.19a0.83,0.83,0,0,0,.08-0.21l0-.19a1,1,0,0,0,0-.21,1.14,1.14,0,0,0-.22-0.7,0.74,0.74,0,0,0-.63-0.3,0.66,0.66,0,0,0-.38.11,0.78,0.78,0,0,0-.23.21,0.46,0.46,0,0,0-.07.12h0a0.41,0.41,0,0,1,.24.09,0.34,0.34,0,0,1,.12.3,0.38,0.38,0,0,1-.1.27A0.41,0.41,0,0,1,436,154.78Z"/>
      </g>
    </g>
    <g>
      <path d="M459.17,170.45a0.76,0.76,0,0,0,0-.19,0.81,0.81,0,0,0-.2-0.3,0.55,0.55,0,0,0-.4-0.17,0.83,0.83,0,0,0-.58.26,1.78,1.78,0,0,0-.43.69,6.75,6.75,0,0,0-.35,1.4v0.09a0.45,0.45,0,0,1,0,.1,0.71,0.71,0,0,0,.16.53,0.56,0.56,0,0,0,.37.15,1,1,0,0,0,.65-0.28,1.44,1.44,0,0,0,.38-0.43s0.09-.33.23-0.91S459.17,170.5,459.17,170.45Zm-2.74,1.46a2.5,2.5,0,0,1,.65-1.64,1.93,1.93,0,0,1,1.47-.78,1,1,0,0,1,.78.42,0.43,0.43,0,0,1,.4-0.26,0.31,0.31,0,0,1,.2.07,0.21,0.21,0,0,1,.09.17q0,0.11-.32,1.36t-0.33,1.41a0.45,0.45,0,0,0,.06.28,0.25,0.25,0,0,0,.18.08,0.38,0.38,0,0,0,.17-0.08,1.92,1.92,0,0,0,.35-0.82,0.32,0.32,0,0,1,.09-0.18h0.12q0.16,0,.16.08a1.34,1.34,0,0,1,0,.23,2.65,2.65,0,0,1-.17.46,1.45,1.45,0,0,1-.28.43,0.85,0.85,0,0,1-.28.18l-0.21,0a0.89,0.89,0,0,1-.49-0.13,0.66,0.66,0,0,1-.26-0.26l-0.05-.13h0l0,0a1.52,1.52,0,0,1-1,.48,1.18,1.18,0,0,1-.84-0.34A1.43,1.43,0,0,1,456.43,171.91Z"/>
      <path d="M461.67,171.23v-0.11a0.19,0.19,0,0,1,.12-0.17h2.58v-2.56a0.23,0.23,0,0,1,.16-0.11,0.19,0.19,0,0,1,.17.13v2.54h2.57a0.18,0.18,0,0,1,0,.34h-2.57v2.54a0.19,0.19,0,0,1-.16.12h0a0.17,0.17,0,0,1-.16-0.12v-2.54h-2.58a0.19,0.19,0,0,1-.12-0.17v0.11Z"/>
      <path d="M471.26,170.48v-0.05a0.52,0.52,0,0,0-.53-0.63,0.75,0.75,0,0,0-.3.07,1.14,1.14,0,0,0-.28.18l-0.22.2a1.12,1.12,0,0,0-.16.19l-0.05.07-0.18.73a4.86,4.86,0,0,0-.19,1,0.83,0.83,0,0,0,.21.61,0.47,0.47,0,0,0,.34.14,0.86,0.86,0,0,0,.58-0.27,1.46,1.46,0,0,0,.34-0.48,5.64,5.64,0,0,0,.28-0.89A4.15,4.15,0,0,0,471.26,170.48ZM469,167.74a0.67,0.67,0,0,1,0-.2,0.12,0.12,0,0,1,.1-0.11l0.62,0,0.63-.05q0.1,0,.1.08t-0.29,1.22l-0.15.6q-0.08.31-.13,0.46l0,0.16s0,0,.05,0a1.37,1.37,0,0,1,.87-0.34,1.07,1.07,0,0,1,.86.39,1.53,1.53,0,0,1,.34,1,2.52,2.52,0,0,1-.68,1.71,2,2,0,0,1-1.46.77,1.13,1.13,0,0,1-.78-0.32,1.39,1.39,0,0,1-.36-1V171.9a2.48,2.48,0,0,1,.07-0.49q0.07-.32.42-1.68,0.43-1.68.43-1.78t-0.33-.12h-0.22l-0.06,0A0.05,0.05,0,0,1,469,167.74Z"/>
      <path d="M473,171.23v-0.11a0.19,0.19,0,0,1,.12-0.17h2.58v-2.56a0.23,0.23,0,0,1,.16-0.11,0.19,0.19,0,0,1,.17.13v2.54h2.57a0.18,0.18,0,0,1,0,.34h-2.57v2.54a0.19,0.19,0,0,1-.16.12h0a0.17,0.17,0,0,1-.16-0.12v-2.54h-2.58a0.19,0.19,0,0,1-.12-0.17v0.11Z"/>
      <path d="M484.64,171.9a2.31,2.31,0,0,1,.74-1.67,2.24,2.24,0,0,1,1.6-.74,1.25,1.25,0,0,1,.76.2,0.66,0.66,0,0,1,.28.54,0.59,0.59,0,0,1-.58.6,0.37,0.37,0,0,1-.26-0.09,0.33,0.33,0,0,1-.09-0.26,0.45,0.45,0,0,1,.09-0.29,0.78,0.78,0,0,1,.19-0.18,0.22,0.22,0,0,1,.12-0.05h0a0.1,0.1,0,0,0-.05-0.05l-0.18-.07a1.15,1.15,0,0,0-.29,0,1.06,1.06,0,0,0-.49.12,1.22,1.22,0,0,0-.37.26,2.21,2.21,0,0,0-.55,1.06,5.2,5.2,0,0,0-.18,1,0.74,0.74,0,0,0,.22.59,0.65,0.65,0,0,0,.5.2h0a2,2,0,0,0,1.59-.72,0.24,0.24,0,0,1,.1-0.09,0.22,0.22,0,0,1,.11.08,0.29,0.29,0,0,1,.09.12,0.18,0.18,0,0,1-.08.13l-0.25.24a1.43,1.43,0,0,1-.39.26q-0.22.1-.55,0.21a1.86,1.86,0,0,1-.69.09,1.39,1.39,0,0,1-1-.41A1.46,1.46,0,0,1,484.64,171.9Z"/>
      <g>
        <rect x="450.97" y="170.83" width="4.05" height="0.39"/>
        <path d="M452.75,165.92l-0.08,0-0.26.06-0.38,0H451.9v-0.3H452a2.15,2.15,0,0,0,.57-0.1,1.55,1.55,0,0,0,.37-0.16l0.18-.14a0.1,0.1,0,0,1,.08,0,0.18,0.18,0,0,1,.11,0v3.87l0.08,0.06,0.16,0h0.57v0.3h-0.07q-0.14,0-1,0t-1,0h-0.08v-0.3h0.58l0.1,0h0.05l0,0,0,0v-3.34Z"/>
        <path d="M452.07,173.94a0.36,0.36,0,0,1-.28-0.12,0.41,0.41,0,0,1-.1-0.28,1.07,1.07,0,0,1,.35-0.8,1.19,1.19,0,0,1,.86-0.34,1.42,1.42,0,0,1,1,.36,1.23,1.23,0,0,1,.41.94,1.14,1.14,0,0,1-.13.53,1.83,1.83,0,0,1-.31.44q-0.18.19-.52,0.48l-0.65.59-0.39.36h0.5a7.93,7.93,0,0,0,1.09,0,1.74,1.74,0,0,0,.16-0.58v0h0.26v0s0,0.21-.08.59a4.77,4.77,0,0,1-.1.59v0h-2.42v-0.2a0.16,0.16,0,0,1,0-.1l0.2-.23,0.33-.36,0.22-.24,0.22-.24,0.19-.21,0.18-.22,0.15-.19a1.1,1.1,0,0,0,.14-0.21l0.1-.19a0.83,0.83,0,0,0,.08-0.21l0-.19a1,1,0,0,0,0-.21,1.14,1.14,0,0,0-.22-0.7,0.74,0.74,0,0,0-.63-0.3,0.66,0.66,0,0,0-.38.11,0.78,0.78,0,0,0-.23.21,0.46,0.46,0,0,0-.07.12h0a0.41,0.41,0,0,1,.24.09,0.34,0.34,0,0,1,.12.3,0.38,0.38,0,0,1-.1.27A0.41,0.41,0,0,1,452.07,173.94Z"/>
      </g>
      <g>
        <rect x="479.81" y="170.83" width="4.05" height="0.39"/>
        <path d="M481.6,165.92l-0.08,0-0.26.06-0.38,0h-0.12v-0.3h0.12a2.15,2.15,0,0,0,.57-0.1,1.55,1.55,0,0,0,.37-0.16l0.18-.14a0.1,0.1,0,0,1,.08,0,0.18,0.18,0,0,1,.11,0v3.87l0.08,0.06,0.16,0H483v0.3h-0.07q-0.14,0-1,0t-1,0h-0.08v-0.3h0.58l0.1,0h0.05l0,0,0,0v-3.34Z"/>
        <path d="M480.92,173.94a0.36,0.36,0,0,1-.28-0.12,0.41,0.41,0,0,1-.1-0.28,1.07,1.07,0,0,1,.35-0.8,1.19,1.19,0,0,1,.86-0.34,1.42,1.42,0,0,1,1,.36,1.23,1.23,0,0,1,.41.94,1.14,1.14,0,0,1-.13.53,1.83,1.83,0,0,1-.31.44q-0.18.19-.52,0.48l-0.65.59-0.39.36h0.5a7.93,7.93,0,0,0,1.09,0,1.74,1.74,0,0,0,.16-0.58v0h0.26v0s0,0.21-.08.59a4.77,4.77,0,0,1-.1.59v0h-2.42v-0.2a0.16,0.16,0,0,1,0-.1l0.2-.23,0.33-.36,0.22-.24,0.22-.24,0.19-.21,0.18-.22,0.15-.19a1.1,1.1,0,0,0,.14-0.21l0.1-.19a0.83,0.83,0,0,0,.08-0.21l0-.19a1,1,0,0,0,0-.21,1.14,1.14,0,0,0-.22-0.7,0.74,0.74,0,0,0-.63-0.3,0.66,0.66,0,0,0-.38.11,0.78,0.78,0,0,0-.23.21,0.46,0.46,0,0,0-.07.12h0a0.41,0.41,0,0,1,.24.09,0.34,0.34,0,0,1,.12.3,0.38,0.38,0,0,1-.1.27A0.41,0.41,0,0,1,480.92,173.94Z"/>
      </g>
    </g>
    <g>
      <path d="M506.39,172.07a2.31,2.31,0,0,1,.74-1.67,2.24,2.24,0,0,1,1.6-.74,1.25,1.25,0,0,1,.76.2,0.66,0.66,0,0,1,.28.54,0.58,0.58,0,0,1-.58.6,0.37,0.37,0,0,1-.26-0.09,0.33,0.33,0,0,1-.09-0.26,0.45,0.45,0,0,1,.09-0.29,0.78,0.78,0,0,1,.19-0.18,0.22,0.22,0,0,1,.12-0.05h0a0.1,0.1,0,0,0-.05-0.05L509,170a1.15,1.15,0,0,0-.29,0,1.06,1.06,0,0,0-.49.12,1.22,1.22,0,0,0-.37.26,2.21,2.21,0,0,0-.55,1.06,5.21,5.21,0,0,0-.18,1,0.74,0.74,0,0,0,.22.59,0.65,0.65,0,0,0,.5.2h0a2,2,0,0,0,1.59-.72,0.24,0.24,0,0,1,.1-0.09,0.22,0.22,0,0,1,.11.08,0.29,0.29,0,0,1,.09.12,0.18,0.18,0,0,1-.08.13l-0.25.24a1.43,1.43,0,0,1-.39.26q-0.22.1-.55,0.21a1.86,1.86,0,0,1-.69.09,1.39,1.39,0,0,1-1-.41A1.46,1.46,0,0,1,506.39,172.07Z"/>
      <g>
        <rect x="501.9" y="171.7" width="4.05" height="0.39"/>
        <path d="M503.68,166.79l-0.08,0-0.26.06-0.38,0h-0.12v-0.3H503a2.15,2.15,0,0,0,.57-0.1,1.55,1.55,0,0,0,.37-0.16l0.18-.14a0.1,0.1,0,0,1,.08,0,0.18,0.18,0,0,1,.11,0v3.87l0.08,0.06,0.16,0h0.57v0.3H505q-0.14,0-1,0t-1,0h-0.08v-0.3h0.58l0.1,0h0.05l0,0,0,0v-3.34Z"/>
        <path d="M503,174.81a0.36,0.36,0,0,1-.28-0.12,0.41,0.41,0,0,1-.1-0.28,1.07,1.07,0,0,1,.35-0.8,1.19,1.19,0,0,1,.86-0.34,1.42,1.42,0,0,1,1,.36,1.23,1.23,0,0,1,.41.94,1.14,1.14,0,0,1-.13.53,1.83,1.83,0,0,1-.31.44q-0.18.19-.52,0.48l-0.65.59-0.39.36h0.5a7.93,7.93,0,0,0,1.09,0,1.74,1.74,0,0,0,.16-0.58v0h0.26v0s0,0.21-.08.59a4.77,4.77,0,0,1-.1.59v0h-2.42v-0.2a0.16,0.16,0,0,1,0-.1l0.2-.23,0.33-.36,0.22-.24,0.22-.24,0.19-.21,0.18-.22,0.15-.19a1.1,1.1,0,0,0,.14-0.21l0.1-.19a0.83,0.83,0,0,0,.08-0.21l0-.19a1,1,0,0,0,0-.21,1.14,1.14,0,0,0-.22-0.7,0.74,0.74,0,0,0-.63-0.3,0.66,0.66,0,0,0-.38.11,0.78,0.78,0,0,0-.23.21,0.46,0.46,0,0,0-.07.12h0a0.41,0.41,0,0,1,.24.09,0.34,0.34,0,0,1,.12.3,0.38,0.38,0,0,1-.1.27A0.41,0.41,0,0,1,503,174.81Z"/>
      </g>
    </g>
    <g>
      <path d="M543,208.41a2.31,2.31,0,0,1,.74-1.67,2.24,2.24,0,0,1,1.6-.74,1.25,1.25,0,0,1,.76.2,0.66,0.66,0,0,1,.28.54,0.58,0.58,0,0,1-.58.6,0.37,0.37,0,0,1-.26-0.09,0.33,0.33,0,0,1-.09-0.26,0.45,0.45,0,0,1,.09-0.29,0.78,0.78,0,0,1,.19-0.18,0.22,0.22,0,0,1,.12-0.05h0a0.1,0.1,0,0,0-.05-0.05l-0.18-.07a1.15,1.15,0,0,0-.29,0,1.06,1.06,0,0,0-.49.12,1.22,1.22,0,0,0-.37.26,2.21,2.21,0,0,0-.55,1.06,5.21,5.21,0,0,0-.18,1,0.74,0.74,0,0,0,.22.59,0.65,0.65,0,0,0,.5.2h0a2,2,0,0,0,1.59-.72,0.24,0.24,0,0,1,.1-0.09,0.22,0.22,0,0,1,.11.08,0.29,0.29,0,0,1,.09.12,0.18,0.18,0,0,1-.08.13l-0.25.24a1.43,1.43,0,0,1-.39.26q-0.22.1-.55,0.21a1.86,1.86,0,0,1-.69.09,1.39,1.39,0,0,1-1-.41A1.46,1.46,0,0,1,543,208.41Z"/>
      <g>
        <rect x="538.51" y="208.04" width="4.05" height="0.39"/>
        <path d="M540.29,203.13l-0.08,0-0.26.06-0.38,0h-0.12V203h0.12a2.15,2.15,0,0,0,.57-0.1,1.55,1.55,0,0,0,.37-0.16l0.18-.14a0.1,0.1,0,0,1,.08,0,0.18,0.18,0,0,1,.11,0v3.87l0.08,0.06,0.16,0h0.57v0.3h-0.07q-0.14,0-1,0t-1,0h-0.08v-0.3h0.58l0.1,0h0.05l0,0,0,0v-3.34Z"/>
        <path d="M539.61,211.15a0.36,0.36,0,0,1-.28-0.12,0.41,0.41,0,0,1-.1-0.28,1.07,1.07,0,0,1,.35-0.8,1.19,1.19,0,0,1,.86-0.34,1.42,1.42,0,0,1,1,.36,1.23,1.23,0,0,1,.41.94,1.14,1.14,0,0,1-.13.53,1.83,1.83,0,0,1-.31.44q-0.18.19-.52,0.48l-0.65.59-0.39.36h0.5a7.93,7.93,0,0,0,1.09,0,1.74,1.74,0,0,0,.16-0.58v0h0.26v0s0,0.21-.08.59a4.77,4.77,0,0,1-.1.59v0h-2.42v-0.2a0.16,0.16,0,0,1,0-.1l0.2-.23,0.33-.36,0.22-.24,0.22-.24,0.19-.21,0.18-.22,0.15-.19a1.1,1.1,0,0,0,.14-0.21l0.1-.19a0.83,0.83,0,0,0,.08-0.21l0-.19a1,1,0,0,0,0-.21,1.14,1.14,0,0,0-.22-0.7,0.74,0.74,0,0,0-.63-0.3,0.66,0.66,0,0,0-.38.11,0.78,0.78,0,0,0-.23.21,0.46,0.46,0,0,0-.07.12h0a0.41,0.41,0,0,1,.24.09,0.34,0.34,0,0,1,.12.3,0.38,0.38,0,0,1-.1.27A0.41,0.41,0,0,1,539.61,211.15Z"/>
      </g>
    </g>
    <g>
      <path d="M422.61,132.19a0.76,0.76,0,0,0,0-.19,0.81,0.81,0,0,0-.2-0.3,0.55,0.55,0,0,0-.4-0.17,0.83,0.83,0,0,0-.58.26,1.78,1.78,0,0,0-.43.69,6.75,6.75,0,0,0-.35,1.4V134a0.45,0.45,0,0,1,0,.1,0.71,0.71,0,0,0,.16.53,0.56,0.56,0,0,0,.37.15,1,1,0,0,0,.65-0.28,1.44,1.44,0,0,0,.38-0.43s0.09-.33.23-0.91S422.6,132.24,422.61,132.19Zm-2.74,1.46a2.5,2.5,0,0,1,.65-1.64,1.93,1.93,0,0,1,1.47-.78,1,1,0,0,1,.78.42,0.43,0.43,0,0,1,.4-0.26,0.31,0.31,0,0,1,.2.07,0.21,0.21,0,0,1,.09.17q0,0.11-.32,1.36t-0.33,1.41a0.45,0.45,0,0,0,.06.28,0.25,0.25,0,0,0,.18.08,0.38,0.38,0,0,0,.17-0.08,1.92,1.92,0,0,0,.35-0.82,0.32,0.32,0,0,1,.09-0.18h0.12q0.16,0,.16.08a1.34,1.34,0,0,1,0,.23,2.65,2.65,0,0,1-.17.46,1.45,1.45,0,0,1-.28.43,0.85,0.85,0,0,1-.28.18l-0.21,0a0.89,0.89,0,0,1-.49-0.13,0.66,0.66,0,0,1-.26-0.26l-0.05-.13h0l0,0a1.52,1.52,0,0,1-1,.48,1.18,1.18,0,0,1-.84-0.34A1.43,1.43,0,0,1,419.87,133.65Z"/>
      <path d="M425.11,133v-0.11a0.19,0.19,0,0,1,.12-0.17h2.58v-2.56A0.23,0.23,0,0,1,428,130a0.19,0.19,0,0,1,.17.13v2.54h2.57a0.18,0.18,0,0,1,0,.34h-2.57v2.54a0.19,0.19,0,0,1-.16.12h0a0.17,0.17,0,0,1-.16-0.12V133h-2.58a0.19,0.19,0,0,1-.12-0.17V133Z"/>
      <path d="M434.7,132.22v-0.05a0.52,0.52,0,0,0-.53-0.63,0.75,0.75,0,0,0-.3.07,1.14,1.14,0,0,0-.28.18l-0.22.2a1.12,1.12,0,0,0-.16.19l-0.05.07L433,133a4.86,4.86,0,0,0-.19,1,0.83,0.83,0,0,0,.21.61,0.47,0.47,0,0,0,.34.14,0.86,0.86,0,0,0,.58-0.27,1.46,1.46,0,0,0,.34-0.48,5.64,5.64,0,0,0,.28-0.89A4.15,4.15,0,0,0,434.7,132.22Zm-2.27-2.74a0.67,0.67,0,0,1,0-.2,0.12,0.12,0,0,1,.1-0.11l0.62,0,0.63-.05q0.1,0,.1.08t-0.29,1.22l-0.15.6q-0.08.31-.13,0.46l0,0.16s0,0,.05,0a1.37,1.37,0,0,1,.87-0.34,1.07,1.07,0,0,1,.86.39,1.53,1.53,0,0,1,.34,1,2.52,2.52,0,0,1-.68,1.71,2,2,0,0,1-1.46.77,1.13,1.13,0,0,1-.78-0.32,1.39,1.39,0,0,1-.36-1v-0.08a2.48,2.48,0,0,1,.07-0.49q0.07-.32.42-1.68,0.43-1.68.43-1.78t-0.33-.12h-0.22l-0.06,0A0.05,0.05,0,0,1,432.43,129.47Z"/>
      <path d="M436.46,133v-0.11a0.19,0.19,0,0,1,.12-0.17h2.58v-2.56a0.23,0.23,0,0,1,.16-0.11,0.19,0.19,0,0,1,.17.13v2.54h2.57a0.18,0.18,0,0,1,0,.34H439.5v2.54a0.19,0.19,0,0,1-.16.12h0a0.17,0.17,0,0,1-.16-0.12V133h-2.58a0.19,0.19,0,0,1-.12-0.17V133Z"/>
      <path d="M448.07,133.63a2.31,2.31,0,0,1,.74-1.67,2.24,2.24,0,0,1,1.6-.74,1.25,1.25,0,0,1,.76.2,0.66,0.66,0,0,1,.28.54,0.59,0.59,0,0,1-.58.6,0.37,0.37,0,0,1-.26-0.09,0.33,0.33,0,0,1-.09-0.26,0.45,0.45,0,0,1,.09-0.29,0.78,0.78,0,0,1,.19-0.18,0.22,0.22,0,0,1,.12-0.05h0a0.1,0.1,0,0,0-.05-0.05l-0.18-.07a1.15,1.15,0,0,0-.29,0,1.06,1.06,0,0,0-.49.12,1.22,1.22,0,0,0-.37.26A2.21,2.21,0,0,0,449,133a5.2,5.2,0,0,0-.18,1,0.74,0.74,0,0,0,.22.59,0.65,0.65,0,0,0,.5.2h0a2,2,0,0,0,1.59-.72,0.24,0.24,0,0,1,.1-0.09,0.22,0.22,0,0,1,.11.08,0.29,0.29,0,0,1,.09.12,0.18,0.18,0,0,1-.08.13l-0.25.24a1.43,1.43,0,0,1-.39.26q-0.22.1-.55,0.21a1.86,1.86,0,0,1-.69.09,1.39,1.39,0,0,1-1-.41A1.46,1.46,0,0,1,448.07,133.63Z"/>
      <g>
        <rect x="414.41" y="132.56" width="4.05" height="0.39"/>
        <path d="M416.19,127.66l-0.08,0-0.26.06-0.38,0h-0.12v-0.3h0.12a2.15,2.15,0,0,0,.57-0.1,1.55,1.55,0,0,0,.37-0.16l0.18-.14a0.1,0.1,0,0,1,.08,0,0.18,0.18,0,0,1,.11,0V131l0.08,0.06,0.16,0h0.57v0.3h-0.07q-0.14,0-1,0t-1,0h-0.08v-0.3H416l0.1,0h0.05l0,0,0,0v-3.34Z"/>
        <path d="M415.51,135.68a0.36,0.36,0,0,1-.28-0.12,0.41,0.41,0,0,1-.1-0.28,1.07,1.07,0,0,1,.35-0.8,1.19,1.19,0,0,1,.86-0.34,1.42,1.42,0,0,1,1,.36,1.23,1.23,0,0,1,.41.94,1.14,1.14,0,0,1-.13.53,1.83,1.83,0,0,1-.31.44q-0.18.19-.52,0.48l-0.65.59-0.39.36h0.5a7.93,7.93,0,0,0,1.09,0,1.74,1.74,0,0,0,.16-0.58v0h0.26v0s0,0.21-.08.59a4.77,4.77,0,0,1-.1.59v0h-2.42v-0.2a0.16,0.16,0,0,1,0-.1l0.2-.23,0.33-.36,0.22-.24,0.22-.24,0.19-.21,0.18-.22,0.15-.19a1.1,1.1,0,0,0,.14-0.21l0.1-.19a0.83,0.83,0,0,0,.08-0.21l0-.19a1,1,0,0,0,0-.21,1.14,1.14,0,0,0-.22-0.7,0.74,0.74,0,0,0-.63-0.3,0.66,0.66,0,0,0-.38.11,0.78,0.78,0,0,0-.23.21,0.46,0.46,0,0,0-.07.12h0a0.41,0.41,0,0,1,.24.09,0.34,0.34,0,0,1,.12.3,0.38,0.38,0,0,1-.1.27A0.41,0.41,0,0,1,415.51,135.68Z"/>
      </g>
      <g>
        <rect x="443.25" y="132.56" width="4.05" height="0.39"/>
        <path d="M445,127.66l-0.08,0-0.26.06-0.38,0h-0.12v-0.3h0.12a2.15,2.15,0,0,0,.57-0.1,1.55,1.55,0,0,0,.37-0.16l0.18-.14a0.1,0.1,0,0,1,.08,0,0.18,0.18,0,0,1,.11,0V131l0.08,0.06,0.16,0h0.57v0.3h-0.07q-0.14,0-1,0t-1,0h-0.08v-0.3h0.58l0.1,0H445l0,0,0,0v-3.34Z"/>
        <path d="M444.35,135.68a0.36,0.36,0,0,1-.28-0.12,0.41,0.41,0,0,1-.1-0.28,1.07,1.07,0,0,1,.35-0.8,1.19,1.19,0,0,1,.86-0.34,1.42,1.42,0,0,1,1,.36,1.23,1.23,0,0,1,.41.94,1.14,1.14,0,0,1-.13.53,1.83,1.83,0,0,1-.31.44q-0.18.19-.52,0.48l-0.65.59-0.39.36h0.5a7.93,7.93,0,0,0,1.09,0,1.74,1.74,0,0,0,.16-0.58v0h0.26v0s0,0.21-.08.59a4.77,4.77,0,0,1-.1.59v0H444v-0.2a0.16,0.16,0,0,1,0-.1l0.2-.23,0.33-.36,0.22-.24,0.22-.24,0.19-.21,0.18-.22,0.15-.19a1.1,1.1,0,0,0,.14-0.21l0.1-.19a0.83,0.83,0,0,0,.08-0.21l0-.19a1,1,0,0,0,0-.21,1.14,1.14,0,0,0-.22-0.7,0.74,0.74,0,0,0-.63-0.3,0.66,0.66,0,0,0-.38.11,0.78,0.78,0,0,0-.23.21,0.46,0.46,0,0,0-.07.12h0a0.41,0.41,0,0,1,.24.09,0.34,0.34,0,0,1,.12.3,0.38,0.38,0,0,1-.1.27A0.41,0.41,0,0,1,444.35,135.68Z"/>
      </g>
    </g>
    <g>
      <path d="M469.82,133.81a2.31,2.31,0,0,1,.74-1.67,2.24,2.24,0,0,1,1.6-.74,1.25,1.25,0,0,1,.76.2,0.66,0.66,0,0,1,.28.54,0.58,0.58,0,0,1-.58.6,0.37,0.37,0,0,1-.26-0.09,0.33,0.33,0,0,1-.09-0.26,0.45,0.45,0,0,1,.09-0.29,0.78,0.78,0,0,1,.19-0.18,0.22,0.22,0,0,1,.12-0.05h0a0.1,0.1,0,0,0-.05-0.05l-0.18-.07a1.15,1.15,0,0,0-.29,0,1.06,1.06,0,0,0-.49.12,1.22,1.22,0,0,0-.37.26,2.21,2.21,0,0,0-.55,1.06,5.21,5.21,0,0,0-.18,1,0.74,0.74,0,0,0,.22.59,0.65,0.65,0,0,0,.5.2h0a2,2,0,0,0,1.59-.72,0.24,0.24,0,0,1,.1-0.09,0.22,0.22,0,0,1,.11.08,0.29,0.29,0,0,1,.09.12,0.18,0.18,0,0,1-.08.13l-0.25.24a1.43,1.43,0,0,1-.39.26q-0.22.1-.55,0.21a1.86,1.86,0,0,1-.69.09,1.39,1.39,0,0,1-1-.41A1.46,1.46,0,0,1,469.82,133.81Z"/>
      <g>
        <rect x="465.33" y="133.43" width="4.05" height="0.39"/>
        <path d="M467.12,128.53l-0.08,0-0.26.06-0.38,0h-0.12v-0.3h0.12a2.15,2.15,0,0,0,.57-0.1,1.55,1.55,0,0,0,.37-0.16l0.18-.14a0.1,0.1,0,0,1,.08,0,0.18,0.18,0,0,1,.11,0v3.87l0.08,0.06,0.16,0h0.57v0.3h-0.07q-0.14,0-1,0t-1,0H466.3V132h0.58l0.1,0H467l0,0,0,0v-3.34Z"/>
        <path d="M466.44,136.55a0.36,0.36,0,0,1-.28-0.12,0.41,0.41,0,0,1-.1-0.28,1.07,1.07,0,0,1,.35-0.8,1.19,1.19,0,0,1,.86-0.34,1.42,1.42,0,0,1,1,.36,1.23,1.23,0,0,1,.41.94,1.14,1.14,0,0,1-.13.53,1.83,1.83,0,0,1-.31.44q-0.18.19-.52,0.48l-0.65.59-0.39.36h0.5a7.93,7.93,0,0,0,1.09,0,1.74,1.74,0,0,0,.16-0.58v0h0.26v0s0,0.21-.08.59a4.77,4.77,0,0,1-.1.59v0h-2.42v-0.2a0.16,0.16,0,0,1,0-.1l0.2-.23,0.33-.36,0.22-.24,0.22-.24,0.19-.21,0.18-.22,0.15-.19a1.1,1.1,0,0,0,.14-0.21l0.1-.19a0.83,0.83,0,0,0,.08-0.21l0-.19a1,1,0,0,0,0-.21,1.14,1.14,0,0,0-.22-0.7,0.74,0.74,0,0,0-.63-0.3,0.66,0.66,0,0,0-.38.11,0.78,0.78,0,0,0-.23.21,0.46,0.46,0,0,0-.07.12h0a0.41,0.41,0,0,1,.24.09,0.34,0.34,0,0,1,.12.3,0.38,0.38,0,0,1-.1.27A0.41,0.41,0,0,1,466.44,136.55Z"/>
      </g>
    </g>
    <g>
      <path d="M398.33,131.85a0.76,0.76,0,0,0,0-.19,0.81,0.81,0,0,0-.2-0.3,0.55,0.55,0,0,0-.4-0.17,0.83,0.83,0,0,0-.58.26,1.78,1.78,0,0,0-.43.69,6.75,6.75,0,0,0-.35,1.4v0.09a0.45,0.45,0,0,1,0,.1,0.71,0.71,0,0,0,.16.53,0.56,0.56,0,0,0,.37.15,1,1,0,0,0,.65-0.28,1.44,1.44,0,0,0,.38-0.43s0.09-.33.23-0.91S398.32,131.9,398.33,131.85Zm-2.74,1.46a2.5,2.5,0,0,1,.65-1.64,1.93,1.93,0,0,1,1.47-.78,1,1,0,0,1,.78.42,0.43,0.43,0,0,1,.4-0.26,0.31,0.31,0,0,1,.2.07,0.21,0.21,0,0,1,.09.17q0,0.11-.32,1.36t-0.33,1.41a0.45,0.45,0,0,0,.06.28,0.25,0.25,0,0,0,.18.08,0.38,0.38,0,0,0,.17-0.08,1.92,1.92,0,0,0,.35-0.82,0.32,0.32,0,0,1,.09-0.18h0.12q0.16,0,.16.08a1.34,1.34,0,0,1,0,.23,2.65,2.65,0,0,1-.17.46,1.45,1.45,0,0,1-.28.43,0.85,0.85,0,0,1-.28.18l-0.21,0a0.89,0.89,0,0,1-.49-0.13,0.66,0.66,0,0,1-.26-0.26l-0.05-.13h0l0,0a1.52,1.52,0,0,1-1,.48,1.18,1.18,0,0,1-.84-0.34A1.43,1.43,0,0,1,395.59,133.31Z"/>
      <g>
        <rect x="390.53" y="132.23" width="4.05" height="0.39"/>
        <path d="M392.32,127.32l-0.08,0-0.26.06-0.38,0h-0.12v-0.3h0.12a2.15,2.15,0,0,0,.57-0.1,1.55,1.55,0,0,0,.37-0.16l0.18-.14a0.1,0.1,0,0,1,.08,0,0.18,0.18,0,0,1,.11,0v3.87l0.08,0.06,0.16,0h0.57v0.3h-0.07q-0.14,0-1,0t-1,0H391.5v-0.3h0.58l0.1,0h0.05l0,0,0,0v-3.34Z"/>
        <path d="M391.64,135.34a0.36,0.36,0,0,1-.28-0.12,0.41,0.41,0,0,1-.1-0.28,1.07,1.07,0,0,1,.35-0.8,1.19,1.19,0,0,1,.86-0.34,1.42,1.42,0,0,1,1,.36,1.23,1.23,0,0,1,.41.94,1.14,1.14,0,0,1-.13.53,1.83,1.83,0,0,1-.31.44q-0.18.19-.52,0.48l-0.65.59-0.39.36h0.5a7.93,7.93,0,0,0,1.09,0,1.74,1.74,0,0,0,.16-0.58v0h0.26v0s0,0.21-.08.59a4.77,4.77,0,0,1-.1.59v0h-2.42v-0.2a0.16,0.16,0,0,1,0-.1l0.2-.23,0.33-.36L392,137l0.22-.24,0.19-.21,0.18-.22,0.15-.19a1.1,1.1,0,0,0,.14-0.21l0.1-.19a0.83,0.83,0,0,0,.08-0.21l0-.19a1,1,0,0,0,0-.21,1.14,1.14,0,0,0-.22-0.7,0.74,0.74,0,0,0-.63-0.3,0.66,0.66,0,0,0-.38.11,0.78,0.78,0,0,0-.23.21,0.46,0.46,0,0,0-.07.12h0a0.41,0.41,0,0,1,.24.09,0.34,0.34,0,0,1,.12.3,0.38,0.38,0,0,1-.1.27A0.41,0.41,0,0,1,391.64,135.34Z"/>
      </g>
    </g>
    <g>
      <path d="M495.87,208.45a0.76,0.76,0,0,0,0-.19,0.81,0.81,0,0,0-.2-0.3,0.55,0.55,0,0,0-.4-0.17,0.83,0.83,0,0,0-.58.26,1.78,1.78,0,0,0-.43.69,6.75,6.75,0,0,0-.35,1.4v0.09a0.45,0.45,0,0,1,0,.1,0.71,0.71,0,0,0,.16.53,0.56,0.56,0,0,0,.37.15,1,1,0,0,0,.65-0.28,1.44,1.44,0,0,0,.38-0.43s0.09-.33.23-0.91S495.86,208.49,495.87,208.45Zm-2.74,1.46a2.5,2.5,0,0,1,.65-1.64,1.93,1.93,0,0,1,1.47-.78,1,1,0,0,1,.78.42,0.43,0.43,0,0,1,.4-0.26,0.31,0.31,0,0,1,.2.07,0.21,0.21,0,0,1,.09.17q0,0.11-.32,1.36t-0.33,1.41a0.45,0.45,0,0,0,.06.28,0.25,0.25,0,0,0,.18.08,0.38,0.38,0,0,0,.17-0.08,1.92,1.92,0,0,0,.35-0.82,0.32,0.32,0,0,1,.09-0.18H497q0.16,0,.16.08a1.34,1.34,0,0,1,0,.23,2.65,2.65,0,0,1-.17.46,1.45,1.45,0,0,1-.28.43,0.85,0.85,0,0,1-.28.18l-0.21,0a0.89,0.89,0,0,1-.49-0.13,0.66,0.66,0,0,1-.26-0.26l-0.05-.13h0l0,0a1.52,1.52,0,0,1-1,.48,1.18,1.18,0,0,1-.84-0.34A1.43,1.43,0,0,1,493.13,209.9Z"/>
      <path d="M498.37,209.22v-0.11a0.19,0.19,0,0,1,.12-0.17h2.58v-2.56a0.23,0.23,0,0,1,.16-0.11,0.19,0.19,0,0,1,.17.13v2.54H504a0.18,0.18,0,0,1,0,.34h-2.57v2.54a0.19,0.19,0,0,1-.16.12h0a0.17,0.17,0,0,1-.16-0.12v-2.54h-2.58a0.19,0.19,0,0,1-.12-0.17v0.11Z"/>
      <path d="M508,208.47v-0.05a0.52,0.52,0,0,0-.53-0.63,0.75,0.75,0,0,0-.3.07,1.14,1.14,0,0,0-.28.18l-0.22.2a1.12,1.12,0,0,0-.16.19l-0.05.07-0.18.73a4.86,4.86,0,0,0-.19,1,0.83,0.83,0,0,0,.21.61,0.47,0.47,0,0,0,.34.14,0.86,0.86,0,0,0,.58-0.27,1.46,1.46,0,0,0,.34-0.48,5.64,5.64,0,0,0,.28-0.89A4.15,4.15,0,0,0,508,208.47Zm-2.27-2.74a0.67,0.67,0,0,1,0-.2,0.12,0.12,0,0,1,.1-0.11l0.62,0,0.63-.05q0.1,0,.1.08t-0.29,1.22l-0.15.6q-0.08.31-.13,0.46l0,0.16s0,0,.05,0a1.37,1.37,0,0,1,.87-0.34,1.07,1.07,0,0,1,.86.39,1.53,1.53,0,0,1,.34,1,2.52,2.52,0,0,1-.68,1.71,2,2,0,0,1-1.46.77,1.13,1.13,0,0,1-.78-0.32,1.39,1.39,0,0,1-.36-1v-0.08a2.48,2.48,0,0,1,.07-0.49q0.07-.32.42-1.68,0.43-1.68.43-1.78t-0.33-.12h-0.22l-0.06,0A0.05,0.05,0,0,1,505.69,205.73Z"/>
      <path d="M509.72,209.22v-0.11a0.19,0.19,0,0,1,.12-0.17h2.58v-2.56a0.23,0.23,0,0,1,.16-0.11,0.19,0.19,0,0,1,.17.13v2.54h2.57a0.18,0.18,0,0,1,0,.34h-2.57v2.54a0.19,0.19,0,0,1-.16.12h0a0.17,0.17,0,0,1-.16-0.12v-2.54h-2.58a0.19,0.19,0,0,1-.12-0.17v0.11Z"/>
      <path d="M521.33,209.89a2.31,2.31,0,0,1,.74-1.67,2.24,2.24,0,0,1,1.6-.74,1.25,1.25,0,0,1,.76.2,0.66,0.66,0,0,1,.28.54,0.59,0.59,0,0,1-.58.6,0.37,0.37,0,0,1-.26-0.09,0.33,0.33,0,0,1-.09-0.26,0.45,0.45,0,0,1,.09-0.29,0.78,0.78,0,0,1,.19-0.18,0.22,0.22,0,0,1,.12-0.05h0a0.1,0.1,0,0,0-.05-0.05l-0.18-.07a1.15,1.15,0,0,0-.29,0,1.06,1.06,0,0,0-.49.12,1.22,1.22,0,0,0-.37.26,2.21,2.21,0,0,0-.55,1.06,5.2,5.2,0,0,0-.18,1,0.74,0.74,0,0,0,.22.59,0.65,0.65,0,0,0,.5.2h0a2,2,0,0,0,1.59-.72,0.24,0.24,0,0,1,.1-0.09,0.22,0.22,0,0,1,.11.08,0.29,0.29,0,0,1,.09.12,0.18,0.18,0,0,1-.08.13l-0.25.24a1.43,1.43,0,0,1-.39.26q-0.22.1-.55,0.21a1.86,1.86,0,0,1-.69.09,1.39,1.39,0,0,1-1-.41A1.46,1.46,0,0,1,521.33,209.89Z"/>
      <g>
        <rect x="487.66" y="208.82" width="4.05" height="0.39"/>
        <path d="M489.45,203.92l-0.08,0-0.26.06-0.38,0H488.6v-0.3h0.12a2.15,2.15,0,0,0,.57-0.1,1.55,1.55,0,0,0,.37-0.16l0.18-.14a0.1,0.1,0,0,1,.08,0,0.18,0.18,0,0,1,.11,0v3.87l0.08,0.06,0.16,0h0.57v0.3h-0.07q-0.14,0-1,0t-1,0h-0.08v-0.3h0.58l0.1,0h0.05l0,0,0,0v-3.34Z"/>
        <path d="M488.77,211.93a0.36,0.36,0,0,1-.28-0.12,0.41,0.41,0,0,1-.1-0.28,1.07,1.07,0,0,1,.35-0.8,1.19,1.19,0,0,1,.86-0.34,1.42,1.42,0,0,1,1,.36,1.23,1.23,0,0,1,.41.94,1.14,1.14,0,0,1-.13.53,1.83,1.83,0,0,1-.31.44q-0.18.19-.52,0.48l-0.65.59-0.39.36h0.5a7.93,7.93,0,0,0,1.09,0,1.74,1.74,0,0,0,.16-0.58v0H491v0s0,0.21-.08.59a4.77,4.77,0,0,1-.1.59v0h-2.42v-0.2a0.16,0.16,0,0,1,0-.1l0.2-.23,0.33-.36,0.22-.24,0.22-.24,0.19-.21,0.18-.22,0.15-.19a1.1,1.1,0,0,0,.14-0.21l0.1-.19a0.83,0.83,0,0,0,.08-0.21l0-.19a1,1,0,0,0,0-.21,1.14,1.14,0,0,0-.22-0.7,0.74,0.74,0,0,0-.63-0.3,0.66,0.66,0,0,0-.38.11,0.78,0.78,0,0,0-.23.21,0.46,0.46,0,0,0-.07.12h0a0.41,0.41,0,0,1,.24.09,0.34,0.34,0,0,1,.12.3,0.38,0.38,0,0,1-.1.27A0.41,0.41,0,0,1,488.77,211.93Z"/>
      </g>
      <g>
        <rect x="516.51" y="208.82" width="4.05" height="0.39"/>
        <path d="M518.29,203.92l-0.08,0-0.26.06-0.38,0h-0.12v-0.3h0.12a2.15,2.15,0,0,0,.57-0.1,1.55,1.55,0,0,0,.37-0.16l0.18-.14a0.1,0.1,0,0,1,.08,0,0.18,0.18,0,0,1,.11,0v3.87l0.08,0.06,0.16,0h0.57v0.3h-0.07q-0.14,0-1,0t-1,0h-0.08v-0.3h0.58l0.1,0h0.05l0,0,0,0v-3.34Z"/>
        <path d="M517.61,211.93a0.36,0.36,0,0,1-.28-0.12,0.41,0.41,0,0,1-.1-0.28,1.07,1.07,0,0,1,.35-0.8,1.19,1.19,0,0,1,.86-0.34,1.42,1.42,0,0,1,1,.36,1.23,1.23,0,0,1,.41.94,1.14,1.14,0,0,1-.13.53,1.83,1.83,0,0,1-.31.44q-0.18.19-.52,0.48l-0.65.59-0.39.36h0.5a7.93,7.93,0,0,0,1.09,0,1.74,1.74,0,0,0,.16-0.58v0h0.26v0s0,0.21-.08.59a4.77,4.77,0,0,1-.1.59v0h-2.42v-0.2a0.16,0.16,0,0,1,0-.1l0.2-.23,0.33-.36,0.22-.24,0.22-.24,0.19-.21,0.18-.22,0.15-.19a1.1,1.1,0,0,0,.14-0.21l0.1-.19a0.83,0.83,0,0,0,.08-0.21l0-.19a1,1,0,0,0,0-.21,1.14,1.14,0,0,0-.22-0.7,0.74,0.74,0,0,0-.63-0.3,0.66,0.66,0,0,0-.38.11,0.78,0.78,0,0,0-.23.21,0.46,0.46,0,0,0-.07.12h0a0.41,0.41,0,0,1,.24.09,0.34,0.34,0,0,1,.12.3,0.38,0.38,0,0,1-.1.27A0.41,0.41,0,0,1,517.61,211.93Z"/>
      </g>
    </g>
    <g>
      <path d="M472.93,208.45a0.76,0.76,0,0,0,0-.19,0.81,0.81,0,0,0-.2-0.3,0.55,0.55,0,0,0-.4-0.17,0.83,0.83,0,0,0-.58.26,1.78,1.78,0,0,0-.43.69,6.75,6.75,0,0,0-.35,1.4v0.09a0.45,0.45,0,0,1,0,.1,0.71,0.71,0,0,0,.16.53,0.56,0.56,0,0,0,.37.15,1,1,0,0,0,.65-0.28,1.44,1.44,0,0,0,.38-0.43s0.09-.33.23-0.91S472.92,208.49,472.93,208.45Zm-2.74,1.46a2.5,2.5,0,0,1,.65-1.64,1.93,1.93,0,0,1,1.47-.78,1,1,0,0,1,.78.42,0.43,0.43,0,0,1,.4-0.26,0.31,0.31,0,0,1,.2.07,0.21,0.21,0,0,1,.09.17q0,0.11-.32,1.36t-0.33,1.41a0.45,0.45,0,0,0,.06.28,0.25,0.25,0,0,0,.18.08,0.38,0.38,0,0,0,.17-0.08,1.92,1.92,0,0,0,.35-0.82,0.32,0.32,0,0,1,.09-0.18h0.12q0.16,0,.16.08a1.34,1.34,0,0,1,0,.23,2.65,2.65,0,0,1-.17.46,1.45,1.45,0,0,1-.28.43,0.85,0.85,0,0,1-.28.18l-0.21,0a0.89,0.89,0,0,1-.49-0.13,0.66,0.66,0,0,1-.26-0.26l-0.05-.13h0l0,0a1.52,1.52,0,0,1-1,.48,1.18,1.18,0,0,1-.84-0.34A1.43,1.43,0,0,1,470.19,209.9Z"/>
      <g>
        <rect x="465.14" y="208.82" width="4.05" height="0.39"/>
        <path d="M466.92,203.92l-0.08,0-0.26.06-0.38,0h-0.12v-0.3h0.12a2.15,2.15,0,0,0,.57-0.1,1.55,1.55,0,0,0,.37-0.16l0.18-.14a0.1,0.1,0,0,1,.08,0,0.18,0.18,0,0,1,.11,0v3.87l0.08,0.06,0.16,0h0.57v0.3h-0.07q-0.14,0-1,0t-1,0H466.1v-0.3h0.58l0.1,0h0.05l0,0,0,0v-3.34Z"/>
        <path d="M466.24,211.93a0.36,0.36,0,0,1-.28-0.12,0.41,0.41,0,0,1-.1-0.28,1.07,1.07,0,0,1,.35-0.8,1.19,1.19,0,0,1,.86-0.34,1.42,1.42,0,0,1,1,.36,1.23,1.23,0,0,1,.41.94,1.14,1.14,0,0,1-.13.53,1.83,1.83,0,0,1-.31.44q-0.18.19-.52,0.48l-0.65.59-0.39.36H467a7.93,7.93,0,0,0,1.09,0,1.74,1.74,0,0,0,.16-0.58v0h0.26v0s0,0.21-.08.59a4.77,4.77,0,0,1-.1.59v0h-2.42v-0.2a0.16,0.16,0,0,1,0-.1l0.2-.23,0.33-.36,0.22-.24,0.22-.24,0.19-.21,0.18-.22,0.15-.19a1.1,1.1,0,0,0,.14-0.21l0.1-.19a0.83,0.83,0,0,0,.08-0.21l0-.19a1,1,0,0,0,0-.21,1.14,1.14,0,0,0-.22-0.7,0.74,0.74,0,0,0-.63-0.3,0.66,0.66,0,0,0-.38.11,0.78,0.78,0,0,0-.23.21,0.46,0.46,0,0,0-.07.12h0a0.41,0.41,0,0,1,.24.09,0.34,0.34,0,0,1,.12.3,0.38,0.38,0,0,1-.1.27A0.41,0.41,0,0,1,466.24,211.93Z"/>
      </g>
    </g>
  </g>
  <text transform="translate(168 242.62)" font-size="13" fill="#231f20" font-family="Open Sans">Transpose Convolution</text>
  <text transform="translate(600 242.62)" font-size="13" fill="#231f20" font-family="Open Sans">NN-Resize Convolution</text>
  <text transform="translate(384 242.62)" font-size="13" fill="#231f20" font-family="Open Sans">Bilinear-Resize Convolution</text>
  <g>
    <polygon points="648 32.62 624 80.62 696 80.62 672 32.62 648 32.62" fill="#2c3e98" stroke="#2c3e98" stroke-miterlimit="10" opacity="0.4"/>
    <polygon points="624 32.62 600 80.62 672 80.62 648 32.62 624 32.62" fill="#2c3e98" stroke="#2c3e98" stroke-miterlimit="10" opacity="0.4"/>
    <polygon points="672 32.62 648 80.62 720 80.62 696 32.62 672 32.62" fill="#2c3e98" stroke="#2c3e98" stroke-miterlimit="10" opacity="0.4"/>
    <polygon points="720 32.62 696 80.62 768 80.62 744 32.62 720 32.62" fill="#2c3e98" stroke="#2c3e98" stroke-miterlimit="10" opacity="0.4"/>
    <polygon points="696 32.62 672 80.62 744 80.62 720 32.62 696 32.62" fill="#2c3e98" stroke="#2c3e98" stroke-miterlimit="10" opacity="0.4"/>
    <polygon points="744 32.62 720 80.62 768 80.62 768 32.62 744 32.62" fill="#2c3e98" stroke="#2c3e98" stroke-miterlimit="10" opacity="0.4"/>
    <polygon points="600 32.62 600 80.62 648 80.62 624 32.62 600 32.62" fill="#2c3e98" stroke="#2c3e98" stroke-miterlimit="10" opacity="0.4"/>
    <rect x="600.33" y="8.62" width="23.93" height="23.93" fill="#727273" stroke="#231f20" stroke-miterlimit="10"/>
    <rect x="624.27" y="8.62" width="23.93" height="23.93" fill="silver" stroke="#231f20" stroke-miterlimit="10"/>
    <rect x="648.2" y="8.62" width="23.93" height="23.93" fill="#727273" stroke="#231f20" stroke-miterlimit="10"/>
    <rect x="672.13" y="8.62" width="23.93" height="23.93" fill="silver" stroke="#231f20" stroke-miterlimit="10"/>
    <rect x="696.07" y="8.62" width="23.93" height="23.93" fill="#727273" stroke="#231f20" stroke-miterlimit="10"/>
    <rect x="720" y="8.62" width="23.93" height="23.93" fill="silver" stroke="#231f20" stroke-miterlimit="10"/>
    <rect x="743.93" y="8.62" width="23.93" height="23.93" fill="#727273" stroke="#231f20" stroke-miterlimit="10"/>
    <rect x="600.33" y="80.62" width="23.93" height="23.93" fill="silver" stroke="#231f20" stroke-miterlimit="10"/>
    <rect x="624.27" y="80.62" width="23.93" height="23.93" fill="#727273" stroke="#231f20" stroke-miterlimit="10"/>
    <rect x="648.2" y="80.62" width="23.93" height="23.93" fill="#727273" stroke="#231f20" stroke-miterlimit="10"/>
    <rect x="672.13" y="80.62" width="23.93" height="23.93" fill="#727273" stroke="#231f20" stroke-miterlimit="10"/>
    <rect x="696.07" y="80.62" width="23.93" height="23.93" fill="#727273" stroke="#231f20" stroke-miterlimit="10"/>
    <rect x="720" y="80.62" width="23.93" height="23.93" fill="#727273" stroke="#231f20" stroke-miterlimit="10"/>
    <rect x="743.93" y="80.62" width="23.93" height="23.93" fill="silver" stroke="#231f20" stroke-miterlimit="10"/>
    <g>
      <line x1="618" y1="20.62" x2="628.54" y2="20.62" fill="none" stroke="#231f20" stroke-miterlimit="10"/>
      <path d="M632.76,20.62a21.15,21.15,0,0,0-6,3.33l1.2-3.33-1.2-3.33A21.13,21.13,0,0,0,632.76,20.62Z" fill="#231f20"/>
    </g>
    <g>
      <line x1="666" y1="20.62" x2="677.2" y2="20.62" fill="none" stroke="#231f20" stroke-miterlimit="10"/>
      <path d="M681.43,20.62a21.15,21.15,0,0,0-6,3.33l1.2-3.33-1.2-3.33A21.13,21.13,0,0,0,681.43,20.62Z" fill="#231f20"/>
    </g>
    <g>
      <line x1="714.57" y1="20.62" x2="725.78" y2="20.62" fill="none" stroke="#231f20" stroke-miterlimit="10"/>
      <path d="M730,20.62A21.15,21.15,0,0,0,724,24l1.2-3.33L724,17.3A21.13,21.13,0,0,0,730,20.62Z" fill="#231f20"/>
    </g>
  </g>
  <g>
    <polygon points="432 32.69 408 80.69 480 80.69 456 32.69 432 32.69" fill="#2c3e98" stroke="#2c3e98" stroke-miterlimit="10" opacity="0.4"/>
    <polygon points="408 32.69 384 80.69 456 80.69 432 32.69 408 32.69" fill="#2c3e98" stroke="#2c3e98" stroke-miterlimit="10" opacity="0.4"/>
    <polygon points="456 32.69 432 80.69 504 80.69 480 32.69 456 32.69" fill="#2c3e98" stroke="#2c3e98" stroke-miterlimit="10" opacity="0.4"/>
    <polygon points="504 32.69 480 80.69 552 80.69 528 32.69 504 32.69" fill="#2c3e98" stroke="#2c3e98" stroke-miterlimit="10" opacity="0.4"/>
    <polygon points="480 32.69 456 80.69 528 80.69 504 32.69 480 32.69" fill="#2c3e98" stroke="#2c3e98" stroke-miterlimit="10" opacity="0.4"/>
    <polygon points="528 32.69 504 80.69 552 80.69 552 32.69 528 32.69" fill="#2c3e98" stroke="#2c3e98" stroke-miterlimit="10" opacity="0.4"/>
    <polygon points="384 32.69 384 80.69 432 80.69 408 32.69 384 32.69" fill="#2c3e98" stroke="#2c3e98" stroke-miterlimit="10" opacity="0.4"/>
    <rect x="384.33" y="8.69" width="23.93" height="23.93" fill="#727273" stroke="#231f20" stroke-miterlimit="10"/>
    <rect x="408.27" y="8.69" width="23.93" height="23.93" fill="silver" stroke="#231f20" stroke-miterlimit="10"/>
    <rect x="432.2" y="8.69" width="23.93" height="23.93" fill="#727273" stroke="#231f20" stroke-miterlimit="10"/>
    <rect x="456.13" y="8.69" width="23.93" height="23.93" fill="silver" stroke="#231f20" stroke-miterlimit="10"/>
    <rect x="480.07" y="8.69" width="23.93" height="23.93" fill="#727273" stroke="#231f20" stroke-miterlimit="10"/>
    <rect x="504" y="8.69" width="23.93" height="23.93" fill="silver" stroke="#231f20" stroke-miterlimit="10"/>
    <rect x="527.93" y="8.69" width="23.93" height="23.93" fill="#727273" stroke="#231f20" stroke-miterlimit="10"/>
    <rect x="384.33" y="80.69" width="23.93" height="23.93" fill="silver" stroke="#231f20" stroke-miterlimit="10"/>
    <rect x="408.27" y="80.69" width="23.93" height="23.93" fill="#727273" stroke="#231f20" stroke-miterlimit="10"/>
    <rect x="432.2" y="80.69" width="23.93" height="23.93" fill="#727273" stroke="#231f20" stroke-miterlimit="10"/>
    <rect x="456.13" y="80.69" width="23.93" height="23.93" fill="#727273" stroke="#231f20" stroke-miterlimit="10"/>
    <rect x="480.07" y="80.69" width="23.93" height="23.93" fill="#727273" stroke="#231f20" stroke-miterlimit="10"/>
    <rect x="504" y="80.69" width="23.93" height="23.93" fill="#727273" stroke="#231f20" stroke-miterlimit="10"/>
    <rect x="527.93" y="80.69" width="23.93" height="23.93" fill="silver" stroke="#231f20" stroke-miterlimit="10"/>
    <g>
      <line x1="450" y1="20.69" x2="461.21" y2="20.69" fill="none" stroke="#231f20" stroke-miterlimit="10"/>
      <path d="M465.43,20.69a21.15,21.15,0,0,0-6,3.33l1.2-3.33-1.2-3.33A21.13,21.13,0,0,0,465.43,20.69Z" fill="#231f20"/>
    </g>
    <g>
      <line x1="486" y1="20.69" x2="470.57" y2="20.69" fill="#d8d9e8"/>
      <g>
        <line x1="486" y1="20.69" x2="474.8" y2="20.69" fill="none" stroke="#231f20" stroke-miterlimit="10"/>
        <path d="M470.57,20.69a21.15,21.15,0,0,0,6-3.33l-1.2,3.33,1.2,3.33A21.13,21.13,0,0,0,470.57,20.69Z" fill="#231f20"/>
      </g>
    </g>
    <g>
      <line x1="498" y1="20.69" x2="509.21" y2="20.69" fill="none" stroke="#231f20" stroke-miterlimit="10"/>
      <path d="M513.43,20.69a21.15,21.15,0,0,0-6,3.33l1.2-3.33-1.2-3.33A21.13,21.13,0,0,0,513.43,20.69Z" fill="#231f20"/>
    </g>
    <g>
      <line x1="534" y1="20.69" x2="518.57" y2="20.69" fill="#d8d9e8"/>
      <g>
        <line x1="534" y1="20.69" x2="522.8" y2="20.69" fill="none" stroke="#231f20" stroke-miterlimit="10"/>
        <path d="M518.57,20.69a21.15,21.15,0,0,0,6-3.33l-1.2,3.33,1.2,3.33A21.13,21.13,0,0,0,518.57,20.69Z" fill="#231f20"/>
      </g>
    </g>
    <g>
      <line x1="402" y1="20.69" x2="413.21" y2="20.69" fill="none" stroke="#231f20" stroke-miterlimit="10"/>
      <path d="M417.43,20.69a21.15,21.15,0,0,0-6,3.33l1.2-3.33-1.2-3.33A21.13,21.13,0,0,0,417.43,20.69Z" fill="#231f20"/>
    </g>
    <g>
      <line x1="438" y1="20.69" x2="422.57" y2="20.69" fill="#d8d9e8"/>
      <g>
        <line x1="438" y1="20.69" x2="426.8" y2="20.69" fill="none" stroke="#231f20" stroke-miterlimit="10"/>
        <path d="M422.57,20.69a21.15,21.15,0,0,0,6-3.33l-1.2,3.33,1.2,3.33A21.13,21.13,0,0,0,422.57,20.69Z" fill="#231f20"/>
      </g>
    </g>
  </g>
  <line x1="360" y1="6" x2="360" y2="246" fill="none" stroke="#8d8d8d" stroke-miterlimit="10" stroke-width="0.5"/>
  <line x1="576" y1="6" x2="576" y2="246" fill="none" stroke="#8d8d8d" stroke-miterlimit="10" stroke-width="0.5"/>
  <g opacity="0.6">
    <text transform="translate(6 36.5)" font-size="13" font-family="Open Sans">Artifacts are hard to <tspan x="0" y="18">avoid when outputs </tspan><tspan x="0" y="36">get different </tspan><tspan x="0" y="54">numbers of inputs.</tspan></text>
  </g>
  <g opacity="0.6">
    <text transform="translate(6.96 140.5)" font-size="13" font-family="Open Sans">This corresponds to <tspan x="0" y="18">unequal numbers of </tspan><tspan x="0" y="36">entries in matrix </tspan><tspan x="0" y="54">rows.</tspan></text>
  </g>
</svg>
