<svg id="text" xmlns="http://www.w3.org/2000/svg" width="984" height="331" viewBox="0 0 984 331">
  <title>upsample</title>
  <polygon points="78 73 48 133 138 133 108 73 78 73" fill="#2c3e98" stroke="#2c3e98" stroke-miterlimit="10" opacity="0.4"/>
  <polygon points="138 73 108 133 198 133 168 73 138 73" fill="#2c3e98" stroke="#2c3e98" stroke-miterlimit="10" opacity="0.4"/>
  <polygon points="198 73 168 133 228 133 228 73 198 73" fill="#2c3e98" stroke="#2c3e98" stroke-miterlimit="10" opacity="0.4"/>
  <polygon points="18 73 18 133 78 133 48 73 18 73" fill="#2c3e98" stroke="#2c3e98" stroke-miterlimit="10" opacity="0.4"/>
  <rect x="18.42" y="43" width="29.92" height="29.92" fill="#727273" stroke="#231f20" stroke-miterlimit="10"/>
  <rect x="48.33" y="43" width="29.92" height="29.92" fill="#f2f2f2" stroke="#231f20" stroke-miterlimit="10"/>
  <rect x="78.25" y="43" width="29.92" height="29.92" fill="#727273" stroke="#231f20" stroke-miterlimit="10"/>
  <rect x="108.17" y="43" width="29.92" height="29.92" fill="#f2f2f2" stroke="#231f20" stroke-miterlimit="10"/>
  <rect x="138.08" y="43" width="29.92" height="29.92" fill="#727273" stroke="#231f20" stroke-miterlimit="10"/>
  <rect x="168" y="43" width="29.92" height="29.92" fill="#f2f2f2" stroke="#231f20" stroke-miterlimit="10"/>
  <rect x="197.92" y="43" width="29.92" height="29.92" fill="#727273" stroke="#231f20" stroke-miterlimit="10"/>
  <rect x="18.42" y="133" width="29.92" height="29.92" fill="silver" stroke="#231f20" stroke-miterlimit="10"/>
  <rect x="48.33" y="133" width="29.92" height="29.92" fill="#727273" stroke="#231f20" stroke-miterlimit="10"/>
  <rect x="78.25" y="133" width="29.92" height="29.92" fill="silver" stroke="#231f20" stroke-miterlimit="10"/>
  <rect x="108.17" y="133" width="29.92" height="29.92" fill="#727273" stroke="#231f20" stroke-miterlimit="10"/>
  <rect x="138.08" y="133" width="29.92" height="29.92" fill="silver" stroke="#231f20" stroke-miterlimit="10"/>
  <rect x="168" y="133" width="29.92" height="29.92" fill="#727273" stroke="#231f20" stroke-miterlimit="10"/>
  <rect x="197.92" y="133" width="29.92" height="29.92" fill="silver" stroke="#231f20" stroke-miterlimit="10"/>
  <polygon points="908.19 73.08 876 73.08 861 88.08 846 73.08 816 73.08 801 88.08 786 73.08 756 73.08 808.5 125.58 801 133.08 861 133.08 853.5 125.58 908.19 73.08" fill="#2c3e98" stroke="#2c3e98" stroke-linejoin="bevel" opacity="0.4"/>
  <polygon points="966 73.08 936 73.08 921 88.08 906 73.08 876 73.08 861 88.08 846 73.08 816 73.08 868.5 125.58 861 133.08 921 133.08 913.5 125.58 966 73.08" fill="#2c3e98" stroke="#2c3e98" stroke-linejoin="bevel" opacity="0.4"/>
  <rect x="756.42" y="43.08" width="29.92" height="29.92" fill="#727273" stroke="#231f20" stroke-miterlimit="10"/>
  <rect x="786.33" y="43.08" width="29.92" height="29.92" fill="#f2f2f2" stroke="#231f20" stroke-miterlimit="10"/>
  <rect x="816.25" y="43.08" width="29.92" height="29.92" fill="#727273" stroke="#231f20" stroke-miterlimit="10"/>
  <rect x="846.17" y="43.08" width="29.92" height="29.92" fill="#f2f2f2" stroke="#231f20" stroke-miterlimit="10"/>
  <rect x="876.08" y="43.08" width="29.92" height="29.92" fill="#727273" stroke="#231f20" stroke-miterlimit="10"/>
  <rect x="906" y="43.08" width="29.92" height="29.92" fill="#f2f2f2" stroke="#231f20" stroke-miterlimit="10"/>
  <rect x="935.92" y="43.08" width="29.92" height="29.92" fill="#727273" stroke="#231f20" stroke-miterlimit="10"/>
  <rect x="771" y="133.08" width="29.92" height="29.92" fill="#f2f2f2" stroke="#231f20" stroke-miterlimit="10"/>
  <rect x="800.92" y="133.08" width="29.92" height="29.92" fill="#727273" stroke="#231f20" stroke-miterlimit="10"/>
  <rect x="830.83" y="133.08" width="29.92" height="29.92" fill="#727273" stroke="#231f20" stroke-miterlimit="10"/>
  <rect x="860.75" y="133.08" width="29.92" height="29.92" fill="#727273" stroke="#231f20" stroke-miterlimit="10"/>
  <rect x="890.67" y="133.08" width="29.92" height="29.92" fill="#727273" stroke="#231f20" stroke-miterlimit="10"/>
  <rect x="920.58" y="133.08" width="30.42" height="29.92" fill="#f2f2f2" stroke="#231f20" stroke-miterlimit="10"/>
  <polyline points="756 133.08 770.92 133.08 770.92 163 756 163" fill="#f2f2f2" stroke="#231f20" stroke-miterlimit="10"/>
  <polyline points="965.92 133.08 951 133.08 951 163 965.92 163" fill="#f2f2f2" stroke="#231f20" stroke-miterlimit="10"/>
  <text transform="translate(18 325)" font-size="14" fill="#231f20" font-family="Open Sans">Transpose Convolution</text>
  <text transform="translate(18 18)" font-size="14" fill="#231f20" font-family="Open Sans" font-weight="700">Unbalanced Upsampling</text>
  <text transform="translate(288 18)" font-size="14" fill="#231f20" font-family="Open Sans" font-weight="700">Balanced Upsampling</text>
  <text transform="translate(288 325)" font-size="14" fill="#231f20" font-family="Open Sans">NN-Resize Convolution</text>
  <text transform="translate(522 325)" font-size="14" fill="#231f20" font-family="Open Sans">Bilinear-Resize Convolution</text>
  <text transform="translate(756 325)" font-size="14" fill="#231f20" font-family="Open Sans">Sub-Pixel Convolution</text>
  <polygon points="348 73 318 133 408 133 378 73 348 73" fill="#2c3e98" stroke="#2c3e98" stroke-miterlimit="10" opacity="0.4"/>
  <polygon points="318 73 288 133 378 133 348 73 318 73" fill="#2c3e98" stroke="#2c3e98" stroke-miterlimit="10" opacity="0.4"/>
  <polygon points="378 73 348 133 438 133 408 73 378 73" fill="#2c3e98" stroke="#2c3e98" stroke-miterlimit="10" opacity="0.4"/>
  <polygon points="438 73 408 133 498 133 468 73 438 73" fill="#2c3e98" stroke="#2c3e98" stroke-miterlimit="10" opacity="0.4"/>
  <polygon points="408 73 378 133 468 133 438 73 408 73" fill="#2c3e98" stroke="#2c3e98" stroke-miterlimit="10" opacity="0.4"/>
  <polygon points="468 73 438 133 498 133 498 73 468 73" fill="#2c3e98" stroke="#2c3e98" stroke-miterlimit="10" opacity="0.4"/>
  <polygon points="288 73 288 133 348 133 318 73 288 73" fill="#2c3e98" stroke="#2c3e98" stroke-miterlimit="10" opacity="0.4"/>
  <rect x="288.42" y="43" width="29.92" height="29.92" fill="#727273" stroke="#231f20" stroke-miterlimit="10"/>
  <rect x="318.33" y="43" width="29.92" height="29.92" fill="silver" stroke="#231f20" stroke-miterlimit="10"/>
  <rect x="348.25" y="43" width="29.92" height="29.92" fill="#727273" stroke="#231f20" stroke-miterlimit="10"/>
  <rect x="378.17" y="43" width="29.92" height="29.92" fill="silver" stroke="#231f20" stroke-miterlimit="10"/>
  <rect x="408.08" y="43" width="29.92" height="29.92" fill="#727273" stroke="#231f20" stroke-miterlimit="10"/>
  <rect x="438" y="43" width="29.92" height="29.92" fill="silver" stroke="#231f20" stroke-miterlimit="10"/>
  <rect x="467.92" y="43" width="29.92" height="29.92" fill="#727273" stroke="#231f20" stroke-miterlimit="10"/>
  <rect x="288.42" y="133" width="29.92" height="29.92" fill="silver" stroke="#231f20" stroke-miterlimit="10"/>
  <rect x="318.33" y="133" width="29.92" height="29.92" fill="#727273" stroke="#231f20" stroke-miterlimit="10"/>
  <rect x="348.25" y="133" width="29.92" height="29.92" fill="#727273" stroke="#231f20" stroke-miterlimit="10"/>
  <rect x="378.17" y="133" width="29.92" height="29.92" fill="#727273" stroke="#231f20" stroke-miterlimit="10"/>
  <rect x="408.08" y="133" width="29.92" height="29.92" fill="#727273" stroke="#231f20" stroke-miterlimit="10"/>
  <rect x="438" y="133" width="29.92" height="29.92" fill="#727273" stroke="#231f20" stroke-miterlimit="10"/>
  <rect x="467.92" y="133" width="29.92" height="29.92" fill="silver" stroke="#231f20" stroke-miterlimit="10"/>
  <g>
    <line x1="310.5" y1="58" x2="322.62" y2="58" fill="none" stroke="#231f20" stroke-miterlimit="10" stroke-width="1.5"/>
    <path d="M329,58a31.73,31.73,0,0,0-9,5l1.81-5L320,53A31.71,31.71,0,0,0,329,58Z" fill="#231f20"/>
  </g>
  <g>
    <line x1="370.5" y1="58" x2="383.45" y2="58" fill="none" stroke="#231f20" stroke-miterlimit="10" stroke-width="1.5"/>
    <path d="M389.79,58a31.73,31.73,0,0,0-9,5l1.81-5-1.81-5A31.71,31.71,0,0,0,389.79,58Z" fill="#231f20"/>
  </g>
  <g>
    <line x1="431.21" y1="58" x2="444.16" y2="58" fill="none" stroke="#231f20" stroke-miterlimit="10" stroke-width="1.5"/>
    <path d="M450.5,58a31.73,31.73,0,0,0-9,5l1.81-5-1.81-5A31.71,31.71,0,0,0,450.5,58Z" fill="#231f20"/>
  </g>
  <polygon points="582 73.08 552 133.08 642 133.08 612 73.08 582 73.08" fill="#2c3e98" stroke="#2c3e98" stroke-miterlimit="10" opacity="0.4"/>
  <polygon points="552 73.08 522 133.08 612 133.08 582 73.08 552 73.08" fill="#2c3e98" stroke="#2c3e98" stroke-miterlimit="10" opacity="0.4"/>
  <polygon points="612 73.08 582 133.08 672 133.08 642 73.08 612 73.08" fill="#2c3e98" stroke="#2c3e98" stroke-miterlimit="10" opacity="0.4"/>
  <polygon points="672 73.08 642 133.08 732 133.08 702 73.08 672 73.08" fill="#2c3e98" stroke="#2c3e98" stroke-miterlimit="10" opacity="0.4"/>
  <polygon points="642 73.08 612 133.08 702 133.08 672 73.08 642 73.08" fill="#2c3e98" stroke="#2c3e98" stroke-miterlimit="10" opacity="0.4"/>
  <polygon points="702 73.08 672 133.08 732 133.08 732 73.08 702 73.08" fill="#2c3e98" stroke="#2c3e98" stroke-miterlimit="10" opacity="0.4"/>
  <polygon points="522 73.08 522 133.08 582 133.08 552 73.08 522 73.08" fill="#2c3e98" stroke="#2c3e98" stroke-miterlimit="10" opacity="0.4"/>
  <rect x="522.42" y="43.08" width="29.92" height="29.92" fill="#727273" stroke="#231f20" stroke-miterlimit="10"/>
  <rect x="552.33" y="43.08" width="29.92" height="29.92" fill="silver" stroke="#231f20" stroke-miterlimit="10"/>
  <rect x="582.25" y="43.08" width="29.92" height="29.92" fill="#727273" stroke="#231f20" stroke-miterlimit="10"/>
  <rect x="612.17" y="43.08" width="29.92" height="29.92" fill="silver" stroke="#231f20" stroke-miterlimit="10"/>
  <rect x="642.08" y="43.08" width="29.92" height="29.92" fill="#727273" stroke="#231f20" stroke-miterlimit="10"/>
  <rect x="672" y="43.08" width="29.92" height="29.92" fill="silver" stroke="#231f20" stroke-miterlimit="10"/>
  <rect x="701.92" y="43.08" width="29.92" height="29.92" fill="#727273" stroke="#231f20" stroke-miterlimit="10"/>
  <rect x="522.42" y="133.08" width="29.92" height="29.92" fill="silver" stroke="#231f20" stroke-miterlimit="10"/>
  <rect x="552.33" y="133.08" width="29.92" height="29.92" fill="#727273" stroke="#231f20" stroke-miterlimit="10"/>
  <rect x="582.25" y="133.08" width="29.92" height="29.92" fill="#727273" stroke="#231f20" stroke-miterlimit="10"/>
  <rect x="612.17" y="133.08" width="29.92" height="29.92" fill="#727273" stroke="#231f20" stroke-miterlimit="10"/>
  <rect x="642.08" y="133.08" width="29.92" height="29.92" fill="#727273" stroke="#231f20" stroke-miterlimit="10"/>
  <rect x="672" y="133.08" width="29.92" height="29.92" fill="#727273" stroke="#231f20" stroke-miterlimit="10"/>
  <rect x="701.92" y="133.08" width="29.92" height="29.92" fill="silver" stroke="#231f20" stroke-miterlimit="10"/>
  <g>
    <line x1="604.5" y1="58.08" x2="617.45" y2="58.08" fill="none" stroke="#231f20" stroke-miterlimit="10" stroke-width="1.5"/>
    <path d="M623.79,58.08a31.73,31.73,0,0,0-9,5l1.81-5-1.81-5A31.7,31.7,0,0,0,623.79,58.08Z" fill="#231f20"/>
  </g>
  <g>
    <line x1="649.5" y1="58.08" x2="630.21" y2="58.08" fill="#d8d9e8"/>
    <g>
      <line x1="649.5" y1="58.08" x2="636.55" y2="58.08" fill="none" stroke="#231f20" stroke-miterlimit="10" stroke-width="1.5"/>
      <path d="M630.21,58.08a31.73,31.73,0,0,0,9-5l-1.81,5,1.81,5A31.71,31.71,0,0,0,630.21,58.08Z" fill="#231f20"/>
    </g>
  </g>
  <g>
    <line x1="664.5" y1="58.08" x2="677.45" y2="58.08" fill="none" stroke="#231f20" stroke-miterlimit="10" stroke-width="1.5"/>
    <path d="M683.79,58.08a31.73,31.73,0,0,0-9,5l1.81-5-1.81-5A31.7,31.7,0,0,0,683.79,58.08Z" fill="#231f20"/>
  </g>
  <g>
    <line x1="709.5" y1="58.08" x2="690.21" y2="58.08" fill="#d8d9e8"/>
    <g>
      <line x1="709.5" y1="58.08" x2="696.55" y2="58.08" fill="none" stroke="#231f20" stroke-miterlimit="10" stroke-width="1.5"/>
      <path d="M690.21,58.08a31.73,31.73,0,0,0,9-5l-1.81,5,1.81,5A31.71,31.71,0,0,0,690.21,58.08Z" fill="#231f20"/>
    </g>
  </g>
  <g>
    <line x1="544.5" y1="58.08" x2="557.45" y2="58.08" fill="none" stroke="#231f20" stroke-miterlimit="10" stroke-width="1.5"/>
    <path d="M563.79,58.08a31.73,31.73,0,0,0-9,5l1.81-5-1.81-5A31.7,31.7,0,0,0,563.79,58.08Z" fill="#231f20"/>
  </g>
  <g>
    <line x1="589.5" y1="58.08" x2="570.21" y2="58.08" fill="#d8d9e8"/>
    <g>
      <line x1="589.5" y1="58.08" x2="576.55" y2="58.08" fill="none" stroke="#231f20" stroke-miterlimit="10" stroke-width="1.5"/>
      <path d="M570.21,58.08a31.73,31.73,0,0,0,9-5l-1.81,5,1.81,5A31.71,31.71,0,0,0,570.21,58.08Z" fill="#231f20"/>
    </g>
  </g>
  <g>
    <polygon points="755.95 203.79 755.95 175 761.57 175 761.57 176.34 757.31 176.34 757.31 203.79 755.95 203.79"/>
    <rect x="755.95" y="202.99" width="1.36" height="64.02"/>
    <polygon points="755.95 295 755.95 266.21 757.31 266.21 757.31 293.66 761.57 293.66 761.57 295 755.95 295"/>
  </g>
  <g>
    <polygon points="960.33 176.34 960.33 175 965.95 175 965.95 203.79 964.59 203.79 964.59 176.34 960.33 176.34"/>
    <rect x="964.59" y="202.99" width="1.36" height="64.02"/>
    <polygon points="964.59 293.66 964.59 266.21 965.95 266.21 965.95 295 960.33 295 960.33 293.66 964.59 293.66"/>
  </g>
  <path d="M779.27,186.82a1.47,1.47,0,0,0-.08-0.36,1.56,1.56,0,0,0-.38-0.57,1.07,1.07,0,0,0-.76-0.33,1.6,1.6,0,0,0-1.11.51,3.42,3.42,0,0,0-.83,1.33,13,13,0,0,0-.68,2.69v0.18a0.86,0.86,0,0,1,0,.2,1.37,1.37,0,0,0,.3,1,1.07,1.07,0,0,0,.71.3,1.88,1.88,0,0,0,1.24-.54,2.76,2.76,0,0,0,.73-0.84s0.17-.63.45-1.75S779.26,186.9,779.27,186.82Zm-5.27,2.8a4.81,4.81,0,0,1,1.26-3.15,3.72,3.72,0,0,1,2.83-1.51,1.89,1.89,0,0,1,1.49.8,0.83,0.83,0,0,1,.76-0.49,0.6,0.6,0,0,1,.38.13,0.4,0.4,0,0,1,.17.33q0,0.21-.61,2.62t-0.63,2.72a0.87,0.87,0,0,0,.12.54,0.49,0.49,0,0,0,.35.15,0.72,0.72,0,0,0,.33-0.15,3.7,3.7,0,0,0,.68-1.57,0.61,0.61,0,0,1,.17-0.34l0.17,0h0.07q0.31,0,.31.15a2.58,2.58,0,0,1-.08.44,5.1,5.1,0,0,1-.33.88,2.79,2.79,0,0,1-.53.82,1.64,1.64,0,0,1-.53.34,1.79,1.79,0,0,1-.4,0,1.71,1.71,0,0,1-.94-0.25,1.26,1.26,0,0,1-.5-0.51l-0.1-.25s0,0-.07,0l-0.07.07a2.92,2.92,0,0,1-2,.92,2.28,2.28,0,0,1-1.61-.66A2.74,2.74,0,0,1,774,189.62Z"/>
  <path d="M779.5,211.5a1.42,1.42,0,0,0-1.24-1.29,1.6,1.6,0,0,0-1.11.51,3.42,3.42,0,0,0-.83,1.33,13,13,0,0,0-.68,2.69v0.18a0.86,0.86,0,0,1,0,.2,1.37,1.37,0,0,0,.3,1,1.07,1.07,0,0,0,.71.29,2.54,2.54,0,0,0,1.84-1.18l0.13-.18Zm0.23-5.85,1.19-.08,1.21-.1q0.2,0,.2.13t-1.21,4.95q-1.21,4.83-1.24,4.93a0.58,0.58,0,0,0,0,.25q0,0.69.46,0.69a0.72,0.72,0,0,0,.33-0.15,3.7,3.7,0,0,0,.68-1.57,0.61,0.61,0,0,1,.17-0.34l0.17,0h0.13q0.25,0,.25.13a1.13,1.13,0,0,1,0,.26,5.83,5.83,0,0,1-.5,1.33,2.43,2.43,0,0,1-.46.66,1.83,1.83,0,0,1-.46.26,1.79,1.79,0,0,1-.4,0,1.71,1.71,0,0,1-.94-0.25,1.26,1.26,0,0,1-.5-0.51l-0.1-.25s0,0-.07,0l-0.07.07a2.92,2.92,0,0,1-2,.92,2.28,2.28,0,0,1-1.61-.66,2.74,2.74,0,0,1-.7-2.08,4.26,4.26,0,0,1,.33-1.61,5.76,5.76,0,0,1,.8-1.41,4.67,4.67,0,0,1,1.56-1.29,3.4,3.4,0,0,1,1.41-.36,1.57,1.57,0,0,1,1.39.69q0.08,0.1.08,0.07l0.45-1.79q0.43-1.72.46-1.82a0.25,0.25,0,0,0-.12-0.26,2.81,2.81,0,0,0-.65-0.08h-0.35a0.31,0.31,0,0,1-.1-0.13s0-.13,0-0.31A0.33,0.33,0,0,1,779.73,205.65Z"/>
  <path d="M822.64,188.42v-0.1a1,1,0,0,0-1-1.21,1.44,1.44,0,0,0-.58.13,2.19,2.19,0,0,0-.55.34l-0.43.39a2.14,2.14,0,0,0-.3.36l-0.1.13-0.35,1.41a9.33,9.33,0,0,0-.36,2,1.59,1.59,0,0,0,.4,1.18,0.91,0.91,0,0,0,.66.26,1.66,1.66,0,0,0,1.11-.52,2.81,2.81,0,0,0,.66-0.92,10.83,10.83,0,0,0,.55-1.72A8,8,0,0,0,822.64,188.42Zm-4.36-5.28a1.29,1.29,0,0,1,.07-0.38,0.24,0.24,0,0,1,.2-0.21l1.19-.08,1.21-.1q0.2,0,.2.15t-0.56,2.34q-0.13.56-.28,1.15t-0.25.88l-0.07.31s0,0,.1,0a2.64,2.64,0,0,1,1.67-.66,2.05,2.05,0,0,1,1.66.75,2.93,2.93,0,0,1,.65,1.9,4.84,4.84,0,0,1-1.31,3.29,3.77,3.77,0,0,1-2.82,1.47,2.18,2.18,0,0,1-1.51-.62,2.66,2.66,0,0,1-.7-2v-0.15a4.75,4.75,0,0,1,.13-1q0.13-.61.81-3.23,0.83-3.23.83-3.42t-0.63-.23h-0.43a0.21,0.21,0,0,1-.12,0A0.1,0.1,0,0,1,818.28,183.14Z"/>
  <path d="M823.24,210.08a1,1,0,0,0-1.13-.85,2.25,2.25,0,0,0-1,.23,2.33,2.33,0,0,0-.75.56,4.44,4.44,0,0,0-.48.67,2.57,2.57,0,0,0-.27.59l-0.08.31a1.28,1.28,0,0,0,.33,0,6.13,6.13,0,0,0,2.62-.39A1.26,1.26,0,0,0,823.24,210.08Zm-5.54,3a4.46,4.46,0,0,1,.31-1.7,3.93,3.93,0,0,1,.81-1.28,4.91,4.91,0,0,1,1.11-.85,5.79,5.79,0,0,1,1.16-.51,3.26,3.26,0,0,1,1-.15h0a2.3,2.3,0,0,1,1.29.36,1.19,1.19,0,0,1,.55,1.07q0,1.47-1.84,1.93a9.58,9.58,0,0,1-2.22.23,2.44,2.44,0,0,0-.63,0s0,0.21-.1.57a6.87,6.87,0,0,0-.12,1,1.91,1.91,0,0,0,.35,1.21,1.29,1.29,0,0,0,1,.46,4,4,0,0,0,1.54-.31,4,4,0,0,0,1.53-1.08,0.47,0.47,0,0,1,.2-0.16,0.43,0.43,0,0,1,.22.15,0.56,0.56,0,0,1,.17.23,0.4,0.4,0,0,1-.15.26,4.45,4.45,0,0,1-.5.44,6.11,6.11,0,0,1-.76.51,4.4,4.4,0,0,1-1,.41,4.86,4.86,0,0,1-1.26.16,2.47,2.47,0,0,1-2-.87A3.23,3.23,0,0,1,817.71,213.12Z"/>
  <path d="M860.49,189.81a4.44,4.44,0,0,1,1.43-3.21,4.31,4.31,0,0,1,3.08-1.43,2.4,2.4,0,0,1,1.46.39,1.27,1.27,0,0,1,.55,1,1.13,1.13,0,0,1-1.11,1.15,0.72,0.72,0,0,1-.5-0.16,0.63,0.63,0,0,1-.18-0.49,0.87,0.87,0,0,1,.18-0.56,1.51,1.51,0,0,1,.36-0.34,0.42,0.42,0,0,1,.23-0.1h0a0.19,0.19,0,0,0-.1-0.1,1.28,1.28,0,0,0-.35-0.13,2.21,2.21,0,0,0-.56-0.07,2,2,0,0,0-.94.23,2.35,2.35,0,0,0-.71.51,4.25,4.25,0,0,0-1.06,2,10,10,0,0,0-.35,1.9,1.42,1.42,0,0,0,.43,1.13,1.25,1.25,0,0,0,1,.39h0.07a3.89,3.89,0,0,0,3.07-1.39,0.47,0.47,0,0,1,.2-0.16,0.43,0.43,0,0,1,.22.15,0.56,0.56,0,0,1,.17.23,0.35,0.35,0,0,1-.15.25l-0.48.46a2.75,2.75,0,0,1-.75.49q-0.43.2-1.06,0.41a3.58,3.58,0,0,1-1.33.18,2.67,2.67,0,0,1-2-.79A2.81,2.81,0,0,1,860.49,189.81Z"/>
  <path d="M860.52,218.9l0.1,0,0.18,0,0.2,0a0.52,0.52,0,0,0,.4-0.21,1.35,1.35,0,0,0,.27-0.48,23,23,0,0,0,.56-2.51l0.76-3.93q0.36-1.87.36-1.88v0h-0.78a4.52,4.52,0,0,1-.83,0,0.19,0.19,0,0,1-.07-0.16l0.12-.46a0.13,0.13,0,0,1,.13-0.08l0.78,0a7.26,7.26,0,0,0,.8,0s0-.29.15-0.82,0.17-.84.2-1q0.61-2.7,2.42-2.7a1.69,1.69,0,0,1,1,.36,1.07,1.07,0,0,1,.4.87,1,1,0,0,1-.35.85,1.26,1.26,0,0,1-.7.28,0.63,0.63,0,0,1-.73-0.69,0.84,0.84,0,0,1,.18-0.54,1.29,1.29,0,0,1,.4-0.34l0.15-.08a1.44,1.44,0,0,0-.5-0.1,0.57,0.57,0,0,0-.38.16,0.85,0.85,0,0,0-.25.46q-0.12.48-.27,1.28T865,208.56q-0.12.56-.12,0.59a4.79,4.79,0,0,0,.91,0l0.86,0a0.27,0.27,0,0,1,.18.1,0.76,0.76,0,0,1,0,.28,1,1,0,0,1-.08.26,0.14,0.14,0,0,1-.15.08l-0.9,0h-0.93l-0.38,2q-0.8,4.06-1.11,5.08a4.82,4.82,0,0,1-1.16,2.06,1.88,1.88,0,0,1-1.21.52,1.6,1.6,0,0,1-1-.31,1,1,0,0,1-.43-0.88,1.07,1.07,0,0,1,.35-0.88,1.11,1.11,0,0,1,.7-0.28,0.63,0.63,0,0,1,.73.69,0.84,0.84,0,0,1-.18.54,1.28,1.28,0,0,1-.4.34Z"/>
  <path d="M821.37,234a1.47,1.47,0,0,0-.08-0.36,1.56,1.56,0,0,0-.38-0.57,1.07,1.07,0,0,0-.76-0.33,1.6,1.6,0,0,0-1.11.51,3.42,3.42,0,0,0-.83,1.33,13,13,0,0,0-.68,2.69v0.18a0.86,0.86,0,0,1,0,.2,1.37,1.37,0,0,0,.3,1,1.07,1.07,0,0,0,.71.3,1.88,1.88,0,0,0,1.24-.54,2.76,2.76,0,0,0,.73-0.84s0.17-.63.45-1.75S821.36,234.08,821.37,234Zm-5.27,2.8a4.81,4.81,0,0,1,1.26-3.15,3.72,3.72,0,0,1,2.83-1.51,1.89,1.89,0,0,1,1.49.8,0.83,0.83,0,0,1,.76-0.49,0.6,0.6,0,0,1,.38.13,0.4,0.4,0,0,1,.17.33q0,0.21-.61,2.62t-0.63,2.72a0.87,0.87,0,0,0,.12.54,0.49,0.49,0,0,0,.35.15,0.72,0.72,0,0,0,.33-0.15,3.7,3.7,0,0,0,.68-1.57,0.61,0.61,0,0,1,.17-0.34l0.17,0h0.07q0.31,0,.31.15a2.58,2.58,0,0,1-.08.44,5.1,5.1,0,0,1-.33.88,2.79,2.79,0,0,1-.53.82,1.64,1.64,0,0,1-.53.34,1.79,1.79,0,0,1-.4,0,1.71,1.71,0,0,1-.94-0.25,1.26,1.26,0,0,1-.5-0.51l-0.1-.25s0,0-.07,0l-0.07.07a2.92,2.92,0,0,1-2,.92,2.28,2.28,0,0,1-1.61-.66A2.74,2.74,0,0,1,816.1,236.8Z"/>
  <path d="M821.6,258.68a1.42,1.42,0,0,0-1.24-1.29,1.6,1.6,0,0,0-1.11.51,3.42,3.42,0,0,0-.83,1.33,13,13,0,0,0-.68,2.69v0.18a0.86,0.86,0,0,1,0,.2,1.37,1.37,0,0,0,.3,1,1.07,1.07,0,0,0,.71.29,2.54,2.54,0,0,0,1.84-1.18l0.13-.18Zm0.23-5.85,1.19-.08,1.21-.1q0.2,0,.2.13t-1.21,4.95q-1.21,4.83-1.24,4.93a0.58,0.58,0,0,0,0,.25q0,0.69.46,0.69a0.72,0.72,0,0,0,.33-0.15,3.7,3.7,0,0,0,.68-1.57,0.61,0.61,0,0,1,.17-0.34l0.17,0h0.13q0.25,0,.25.13a1.13,1.13,0,0,1,0,.26,5.83,5.83,0,0,1-.5,1.33,2.43,2.43,0,0,1-.46.66,1.83,1.83,0,0,1-.46.26,1.79,1.79,0,0,1-.4,0,1.71,1.71,0,0,1-.94-0.25,1.26,1.26,0,0,1-.5-0.51l-0.1-.25s0,0-.07,0l-0.07.07a2.92,2.92,0,0,1-2,.92,2.28,2.28,0,0,1-1.61-.66,2.74,2.74,0,0,1-.7-2.08,4.26,4.26,0,0,1,.33-1.61,5.76,5.76,0,0,1,.8-1.41,4.67,4.67,0,0,1,1.56-1.29,3.4,3.4,0,0,1,1.41-.36,1.57,1.57,0,0,1,1.39.69q0.08,0.1.08,0.07l0.45-1.79q0.43-1.72.46-1.82a0.25,0.25,0,0,0-.12-0.26,2.81,2.81,0,0,0-.65-0.08h-0.35a0.31,0.31,0,0,1-.1-0.13s0-.13,0-0.31A0.33,0.33,0,0,1,821.83,252.83Z"/>
  <path d="M865,235.59v-0.1a1,1,0,0,0-1-1.21,1.44,1.44,0,0,0-.58.13,2.19,2.19,0,0,0-.55.34l-0.43.39a2.14,2.14,0,0,0-.3.36l-0.1.13-0.35,1.41a9.33,9.33,0,0,0-.36,2,1.59,1.59,0,0,0,.4,1.18,0.91,0.91,0,0,0,.66.26,1.66,1.66,0,0,0,1.11-.52,2.81,2.81,0,0,0,.66-0.92,10.83,10.83,0,0,0,.55-1.72A8,8,0,0,0,865,235.59Zm-4.36-5.28a1.29,1.29,0,0,1,.07-0.38,0.24,0.24,0,0,1,.2-0.21l1.19-.08,1.21-.1q0.2,0,.2.15T863,232q-0.13.56-.28,1.15t-0.25.88l-0.07.31s0,0,.1,0a2.64,2.64,0,0,1,1.67-.66,2.05,2.05,0,0,1,1.66.75,2.93,2.93,0,0,1,.65,1.9,4.84,4.84,0,0,1-1.31,3.29,3.77,3.77,0,0,1-2.82,1.47,2.18,2.18,0,0,1-1.51-.62,2.66,2.66,0,0,1-.7-2v-0.15a4.75,4.75,0,0,1,.13-1q0.13-.61.81-3.23,0.83-3.23.83-3.42t-0.63-.23h-0.43a0.21,0.21,0,0,1-.12,0A0.1,0.1,0,0,1,860.68,230.32Z"/>
  <path d="M865.64,257.26a1,1,0,0,0-1.13-.85,2.25,2.25,0,0,0-1,.23,2.33,2.33,0,0,0-.75.56,4.44,4.44,0,0,0-.48.67,2.57,2.57,0,0,0-.27.59l-0.08.31a1.28,1.28,0,0,0,.33,0,6.13,6.13,0,0,0,2.62-.39A1.26,1.26,0,0,0,865.64,257.26Zm-5.54,3a4.46,4.46,0,0,1,.31-1.7,3.93,3.93,0,0,1,.81-1.28,4.91,4.91,0,0,1,1.11-.85,5.79,5.79,0,0,1,1.16-.51,3.26,3.26,0,0,1,1-.15h0a2.3,2.3,0,0,1,1.29.36,1.19,1.19,0,0,1,.55,1.07q0,1.47-1.84,1.93a9.58,9.58,0,0,1-2.22.23,2.44,2.44,0,0,0-.63,0s0,0.21-.1.57a6.87,6.87,0,0,0-.12,1,1.91,1.91,0,0,0,.35,1.21,1.29,1.29,0,0,0,1,.46,4,4,0,0,0,1.54-.31,4,4,0,0,0,1.53-1.08,0.47,0.47,0,0,1,.2-0.16,0.43,0.43,0,0,1,.22.15,0.56,0.56,0,0,1,.17.23,0.4,0.4,0,0,1-.15.26,4.45,4.45,0,0,1-.5.44,6.11,6.11,0,0,1-.76.51,4.4,4.4,0,0,1-1,.41,4.86,4.86,0,0,1-1.26.16,2.47,2.47,0,0,1-2-.87A3.23,3.23,0,0,1,860.1,260.29Z"/>
  <path d="M901.93,237a4.44,4.44,0,0,1,1.43-3.21,4.31,4.31,0,0,1,3.08-1.43,2.4,2.4,0,0,1,1.46.39,1.27,1.27,0,0,1,.55,1,1.13,1.13,0,0,1-1.11,1.15,0.72,0.72,0,0,1-.5-0.16,0.63,0.63,0,0,1-.18-0.49,0.87,0.87,0,0,1,.18-0.56,1.51,1.51,0,0,1,.36-0.34,0.42,0.42,0,0,1,.23-0.1h0a0.19,0.19,0,0,0-.1-0.1A1.28,1.28,0,0,0,907,233a2.21,2.21,0,0,0-.56-0.07,2,2,0,0,0-.94.23,2.35,2.35,0,0,0-.71.51,4.25,4.25,0,0,0-1.06,2,10,10,0,0,0-.35,1.9,1.42,1.42,0,0,0,.43,1.13,1.25,1.25,0,0,0,1,.39h0.07a3.89,3.89,0,0,0,3.07-1.39,0.47,0.47,0,0,1,.2-0.16,0.43,0.43,0,0,1,.22.15,0.56,0.56,0,0,1,.17.23,0.35,0.35,0,0,1-.15.25l-0.48.46a2.75,2.75,0,0,1-.75.49q-0.43.2-1.06,0.41a3.58,3.58,0,0,1-1.33.18,2.67,2.67,0,0,1-2-.79A2.81,2.81,0,0,1,901.93,237Z"/>
  <path d="M902,266.08l0.1,0,0.18,0,0.2,0a0.52,0.52,0,0,0,.4-0.21,1.35,1.35,0,0,0,.27-0.48,23,23,0,0,0,.56-2.51l0.76-3.93q0.36-1.87.36-1.88v0H904a4.52,4.52,0,0,1-.83,0,0.19,0.19,0,0,1-.07-0.16l0.12-.46a0.13,0.13,0,0,1,.13-0.08l0.78,0a7.26,7.26,0,0,0,.8,0s0-.29.15-0.82,0.17-.84.2-1q0.61-2.7,2.42-2.7a1.69,1.69,0,0,1,1,.36,1.07,1.07,0,0,1,.4.87,1,1,0,0,1-.35.85,1.26,1.26,0,0,1-.7.28,0.63,0.63,0,0,1-.73-0.69,0.84,0.84,0,0,1,.18-0.54,1.29,1.29,0,0,1,.4-0.34l0.15-.08a1.44,1.44,0,0,0-.5-0.1,0.57,0.57,0,0,0-.38.16,0.85,0.85,0,0,0-.25.46q-0.12.48-.27,1.28t-0.27,1.36q-0.12.56-.12,0.59a4.79,4.79,0,0,0,.91,0l0.86,0a0.27,0.27,0,0,1,.18.1,0.76,0.76,0,0,1,0,.28,1,1,0,0,1-.08.26,0.14,0.14,0,0,1-.15.08l-0.9,0h-0.93l-0.38,2q-0.8,4.06-1.11,5.08a4.82,4.82,0,0,1-1.16,2.06,1.88,1.88,0,0,1-1.21.52,1.6,1.6,0,0,1-1-.31,1,1,0,0,1-.43-0.88,1.07,1.07,0,0,1,.35-0.88,1.11,1.11,0,0,1,.7-0.28,0.63,0.63,0,0,1,.73.69,0.84,0.84,0,0,1-.18.54,1.28,1.28,0,0,1-.4.34Z"/>
  <path d="M863.5,280.48a1.47,1.47,0,0,0-.08-0.36,1.56,1.56,0,0,0-.38-0.57,1.07,1.07,0,0,0-.76-0.33,1.6,1.6,0,0,0-1.11.51,3.42,3.42,0,0,0-.83,1.33,13,13,0,0,0-.68,2.69v0.18a0.86,0.86,0,0,1,0,.2,1.37,1.37,0,0,0,.3,1,1.07,1.07,0,0,0,.71.3,1.88,1.88,0,0,0,1.24-.54,2.76,2.76,0,0,0,.73-0.84s0.17-.63.45-1.75S863.49,280.57,863.5,280.48Zm-5.27,2.8a4.81,4.81,0,0,1,1.26-3.15,3.72,3.72,0,0,1,2.83-1.51,1.89,1.89,0,0,1,1.49.8,0.83,0.83,0,0,1,.76-0.49,0.6,0.6,0,0,1,.38.13,0.4,0.4,0,0,1,.17.33q0,0.21-.61,2.62t-0.63,2.72a0.87,0.87,0,0,0,.12.54,0.49,0.49,0,0,0,.35.15,0.72,0.72,0,0,0,.33-0.15,3.7,3.7,0,0,0,.68-1.57,0.61,0.61,0,0,1,.17-0.34l0.17,0h0.07q0.31,0,.31.15a2.58,2.58,0,0,1-.08.44,5.1,5.1,0,0,1-.33.88,2.79,2.79,0,0,1-.53.82,1.64,1.64,0,0,1-.53.34,1.79,1.79,0,0,1-.4,0,1.71,1.71,0,0,1-.94-0.25,1.26,1.26,0,0,1-.5-0.51l-0.1-.25s0,0-.07,0l-0.07.07a2.92,2.92,0,0,1-2,.92,2.28,2.28,0,0,1-1.61-.66A2.74,2.74,0,0,1,858.23,283.29Z"/>
  <path d="M907.16,282.08V282a1,1,0,0,0-1-1.21,1.44,1.44,0,0,0-.58.13,2.19,2.19,0,0,0-.55.34l-0.43.39a2.14,2.14,0,0,0-.3.36l-0.1.13-0.35,1.41a9.33,9.33,0,0,0-.36,2,1.59,1.59,0,0,0,.4,1.18,0.91,0.91,0,0,0,.66.26,1.66,1.66,0,0,0,1.11-.52,2.81,2.81,0,0,0,.66-0.92,10.83,10.83,0,0,0,.55-1.72A8,8,0,0,0,907.16,282.08Zm-4.36-5.28a1.29,1.29,0,0,1,.07-0.38,0.24,0.24,0,0,1,.2-0.21l1.19-.08,1.21-.1q0.2,0,.2.15t-0.56,2.34q-0.13.56-.28,1.15t-0.25.88l-0.07.31s0,0,.1,0a2.64,2.64,0,0,1,1.67-.66,2.05,2.05,0,0,1,1.66.75,2.93,2.93,0,0,1,.65,1.9,4.84,4.84,0,0,1-1.31,3.29,3.77,3.77,0,0,1-2.82,1.47A2.18,2.18,0,0,1,903,287a2.66,2.66,0,0,1-.7-2V284.8a4.75,4.75,0,0,1,.13-1q0.13-.61.81-3.23,0.83-3.23.83-3.42T903.4,277H903a0.21,0.21,0,0,1-.12,0A0.1,0.1,0,0,1,902.8,276.81Z"/>
  <path d="M942,283.48a4.44,4.44,0,0,1,1.43-3.21,4.31,4.31,0,0,1,3.08-1.43,2.4,2.4,0,0,1,1.46.39,1.27,1.27,0,0,1,.55,1,1.13,1.13,0,0,1-1.11,1.15,0.72,0.72,0,0,1-.5-0.16,0.63,0.63,0,0,1-.18-0.49,0.87,0.87,0,0,1,.18-0.56,1.51,1.51,0,0,1,.36-0.34,0.42,0.42,0,0,1,.23-0.1h0a0.19,0.19,0,0,0-.1-0.1,1.28,1.28,0,0,0-.35-0.13,2.21,2.21,0,0,0-.56-0.07,2,2,0,0,0-.94.23,2.35,2.35,0,0,0-.71.51,4.25,4.25,0,0,0-1.06,2,10,10,0,0,0-.35,1.9,1.42,1.42,0,0,0,.43,1.13,1.25,1.25,0,0,0,1,.39h0.07a3.89,3.89,0,0,0,3.07-1.39,0.47,0.47,0,0,1,.2-0.16,0.43,0.43,0,0,1,.22.15,0.56,0.56,0,0,1,.17.23,0.35,0.35,0,0,1-.15.25l-0.48.46a2.75,2.75,0,0,1-.75.49q-0.43.2-1.06,0.41a3.58,3.58,0,0,1-1.33.18,2.67,2.67,0,0,1-2-.79A2.81,2.81,0,0,1,942,283.48Z"/>
  <g>
    <polygon points="287.95 203.49 287.95 175 293.57 175 293.57 176.33 289.31 176.33 289.31 203.49 287.95 203.49"/>
    <rect x="287.95" y="202.7" width="1.36" height="63.35"/>
    <polygon points="287.95 295 287.95 265.26 289.31 265.26 289.31 293.67 293.57 293.67 293.57 295 287.95 295"/>
  </g>
  <g>
    <polygon points="492.33 176.33 492.33 175 497.95 175 497.95 203.49 496.59 203.49 496.59 176.33 492.33 176.33"/>
    <rect x="496.59" y="202.7" width="1.36" height="63.35"/>
    <polygon points="496.59 293.67 496.59 265.26 497.95 265.26 497.95 295 492.33 295 492.33 293.67 496.59 293.67"/>
  </g>
  <path d="M414.55,214.77a4.88,4.88,0,0,1,4.51-4.59,2.42,2.42,0,0,1,1.46.39,1.25,1.25,0,0,1,.55,1,1.1,1.1,0,0,1-.31.79,1.12,1.12,0,0,1-.8.34,0.72,0.72,0,0,1-.5-0.16,0.62,0.62,0,0,1-.18-0.49,0.85,0.85,0,0,1,.18-0.55,1.5,1.5,0,0,1,.36-0.34,0.42,0.42,0,0,1,.23-0.1h0a0.19,0.19,0,0,0-.1-0.1,1.29,1.29,0,0,0-.35-0.13,2.24,2.24,0,0,0-.56-0.06,2.06,2.06,0,0,0-.94.23,2.34,2.34,0,0,0-.71.5,4.19,4.19,0,0,0-1.06,2,9.78,9.78,0,0,0-.35,1.88,1.4,1.4,0,0,0,.43,1.12,1.26,1.26,0,0,0,1,.39h0.07a3.9,3.9,0,0,0,3.07-1.38,0.47,0.47,0,0,1,.2-0.16,0.43,0.43,0,0,1,.22.15,0.55,0.55,0,0,1,.17.23,0.35,0.35,0,0,1-.15.24l-0.48.45a2.75,2.75,0,0,1-.75.49q-0.43.19-1.06,0.41a3.61,3.61,0,0,1-1.33.18,2.68,2.68,0,0,1-2-.78A2.77,2.77,0,0,1,414.55,214.77Z"/>
  <g>
    <path d="M408.58,233.54v-0.1a1,1,0,0,0-1-1.2,1.45,1.45,0,0,0-.58.13,2.19,2.19,0,0,0-.55.34l-0.43.39a2.13,2.13,0,0,0-.3.36l-0.1.13L405.27,235a9.15,9.15,0,0,0-.36,2,1.56,1.56,0,0,0,.4,1.17,0.91,0.91,0,0,0,.66.26,1.67,1.67,0,0,0,1.11-.52,2.78,2.78,0,0,0,.66-0.91,10.63,10.63,0,0,0,.55-1.7A7.8,7.8,0,0,0,408.58,233.54Zm-4.36-5.22a1.26,1.26,0,0,1,.07-0.37,0.24,0.24,0,0,1,.2-0.21l1.19-.08,1.21-.1q0.2,0,.2.15T406.53,230q-0.13.55-.28,1.13T406,232l-0.07.31s0,0,.1,0a2.66,2.66,0,0,1,1.67-.65,2.06,2.06,0,0,1,1.66.75,2.88,2.88,0,0,1,.65,1.88,4.76,4.76,0,0,1-1.31,3.26,3.78,3.78,0,0,1-2.82,1.46,2.19,2.19,0,0,1-1.51-.62,2.62,2.62,0,0,1-.7-2v-0.15a4.65,4.65,0,0,1,.13-0.94q0.13-.6.81-3.19,0.83-3.19.83-3.39t-0.63-.23h-0.43a0.21,0.21,0,0,1-.12,0A0.1,0.1,0,0,1,404.23,228.32Z"/>
    <path d="M412,235v-0.21a0.35,0.35,0,0,1,.23-0.32h5V232l0-2.43a0.44,0.44,0,0,1,.31-0.21,0.36,0.36,0,0,1,.33.24v4.83h4.94a0.34,0.34,0,0,1,0,.65h-4.94v4.83a0.37,0.37,0,0,1-.3.23h-0.07a0.32,0.32,0,0,1-.3-0.23v-4.83h-5a0.35,0.35,0,0,1-.23-0.32V235Z"/>
    <path d="M425.42,236.23a4.88,4.88,0,0,1,4.51-4.59,2.42,2.42,0,0,1,1.46.39,1.25,1.25,0,0,1,.55,1,1.1,1.1,0,0,1-.31.79,1.12,1.12,0,0,1-.8.34,0.72,0.72,0,0,1-.5-0.16,0.62,0.62,0,0,1-.18-0.49,0.85,0.85,0,0,1,.18-0.55,1.5,1.5,0,0,1,.36-0.34,0.42,0.42,0,0,1,.23-0.1h0a0.19,0.19,0,0,0-.1-0.1,1.29,1.29,0,0,0-.35-0.13,2.24,2.24,0,0,0-.56-0.06,2.06,2.06,0,0,0-.94.23,2.34,2.34,0,0,0-.71.5,4.19,4.19,0,0,0-1.06,2,9.78,9.78,0,0,0-.35,1.88,1.4,1.4,0,0,0,.43,1.12,1.26,1.26,0,0,0,1,.39h0.07a3.9,3.9,0,0,0,3.07-1.38,0.47,0.47,0,0,1,.2-0.16,0.43,0.43,0,0,1,.22.15,0.55,0.55,0,0,1,.17.23,0.35,0.35,0,0,1-.15.24l-0.48.45a2.75,2.75,0,0,1-.75.49q-0.43.19-1.06,0.41a3.61,3.61,0,0,1-1.33.18,2.68,2.68,0,0,1-2-.78A2.77,2.77,0,0,1,425.42,236.23Z"/>
  </g>
  <g>
    <path d="M408.12,259.29a1.44,1.44,0,0,0-.08-0.36,1.54,1.54,0,0,0-.38-0.57,1.07,1.07,0,0,0-.76-0.32,1.61,1.61,0,0,0-1.11.5,3.38,3.38,0,0,0-.83,1.31,12.71,12.71,0,0,0-.68,2.66v0.18a0.85,0.85,0,0,1,0,.19,1.34,1.34,0,0,0,.3,1,1.08,1.08,0,0,0,.71.29,1.89,1.89,0,0,0,1.24-.53,2.74,2.74,0,0,0,.73-0.83s0.17-.62.45-1.73S408.11,259.38,408.12,259.29Zm-5.27,2.77a4.73,4.73,0,0,1,1.26-3.11,3.73,3.73,0,0,1,2.83-1.49,1.89,1.89,0,0,1,1.49.79,0.83,0.83,0,0,1,.76-0.49,0.6,0.6,0,0,1,.38.13,0.4,0.4,0,0,1,.17.32q0,0.21-.61,2.59t-0.63,2.69a0.85,0.85,0,0,0,.12.53,0.49,0.49,0,0,0,.35.15,0.73,0.73,0,0,0,.33-0.15,3.64,3.64,0,0,0,.68-1.56,0.6,0.6,0,0,1,.17-0.34l0.17,0h0.07q0.31,0,.31.15a2.52,2.52,0,0,1-.08.44,5,5,0,0,1-.33.88,2.76,2.76,0,0,1-.53.81,1.64,1.64,0,0,1-.53.34,1.8,1.8,0,0,1-.4,0,1.72,1.72,0,0,1-.94-0.24,1.26,1.26,0,0,1-.5-0.5l-0.1-.24a0.06,0.06,0,0,0-.07,0l-0.07.06a2.93,2.93,0,0,1-2,.91,2.29,2.29,0,0,1-1.61-.65A2.69,2.69,0,0,1,402.85,262.06Z"/>
    <path d="M412.91,260.76v-0.21a0.35,0.35,0,0,1,.23-0.32h5V257.8l0-2.43a0.44,0.44,0,0,1,.31-0.21,0.36,0.36,0,0,1,.33.24v4.83h4.94a0.34,0.34,0,0,1,0,.65h-4.94v4.83a0.37,0.37,0,0,1-.3.23h-0.07a0.32,0.32,0,0,1-.3-0.23v-4.83h-5a0.35,0.35,0,0,1-.23-0.32v0.21Z"/>
    <path d="M431.36,259.34v-0.1a1,1,0,0,0-1-1.2,1.45,1.45,0,0,0-.58.13,2.19,2.19,0,0,0-.55.34l-0.43.39a2.12,2.12,0,0,0-.3.36l-0.1.13-0.35,1.39a9.15,9.15,0,0,0-.36,2,1.56,1.56,0,0,0,.4,1.17,0.91,0.91,0,0,0,.66.26,1.67,1.67,0,0,0,1.11-.52,2.78,2.78,0,0,0,.66-0.91,10.64,10.64,0,0,0,.55-1.7A7.8,7.8,0,0,0,431.36,259.34ZM427,254.12a1.26,1.26,0,0,1,.07-0.37,0.24,0.24,0,0,1,.2-0.21l1.19-.08,1.21-.1q0.2,0,.2.15t-0.56,2.32q-0.13.55-.28,1.13t-0.25.88l-0.07.31s0,0,.1,0a2.66,2.66,0,0,1,1.67-.65,2.06,2.06,0,0,1,1.66.75,2.88,2.88,0,0,1,.65,1.88,4.76,4.76,0,0,1-1.31,3.26,3.78,3.78,0,0,1-2.82,1.46,2.19,2.19,0,0,1-1.51-.62,2.62,2.62,0,0,1-.7-2V262a4.65,4.65,0,0,1,.13-0.94q0.13-.6.81-3.19,0.83-3.19.83-3.39t-0.63-.23h-0.43a0.21,0.21,0,0,1-.12,0A0.1,0.1,0,0,1,427,254.12Z"/>
  </g>
  <path d="M419.17,284.46a1.44,1.44,0,0,0-.08-0.36,1.54,1.54,0,0,0-.38-0.57,1.07,1.07,0,0,0-.76-0.32,1.61,1.61,0,0,0-1.11.5A3.38,3.38,0,0,0,416,285a12.71,12.71,0,0,0-.68,2.66v0.18a0.85,0.85,0,0,1,0,.19,1.34,1.34,0,0,0,.3,1,1.08,1.08,0,0,0,.71.29,1.89,1.89,0,0,0,1.24-.53,2.74,2.74,0,0,0,.73-0.83s0.17-.62.45-1.73S419.16,284.55,419.17,284.46Zm-5.27,2.77a4.73,4.73,0,0,1,1.26-3.11,3.73,3.73,0,0,1,2.83-1.49,1.89,1.89,0,0,1,1.49.79,0.83,0.83,0,0,1,.76-0.49,0.6,0.6,0,0,1,.38.13,0.4,0.4,0,0,1,.17.32q0,0.21-.61,2.59t-0.63,2.69a0.85,0.85,0,0,0,.12.53,0.49,0.49,0,0,0,.35.15,0.73,0.73,0,0,0,.33-0.15,3.64,3.64,0,0,0,.68-1.56,0.6,0.6,0,0,1,.17-0.34l0.17,0h0.07q0.31,0,.31.15a2.52,2.52,0,0,1-.08.44,5,5,0,0,1-.33.88,2.76,2.76,0,0,1-.53.81,1.64,1.64,0,0,1-.53.34,1.8,1.8,0,0,1-.4,0,1.72,1.72,0,0,1-.94-0.24,1.26,1.26,0,0,1-.5-0.5l-0.1-.24a0.06,0.06,0,0,0-.07,0l-0.07.06a2.93,2.93,0,0,1-2,.91,2.29,2.29,0,0,1-1.61-.65A2.69,2.69,0,0,1,413.9,287.23Z"/>
  <g>
    <path d="M350.57,184.27v-0.1a1,1,0,0,0-1-1.2,1.45,1.45,0,0,0-.58.13,2.19,2.19,0,0,0-.55.34l-0.43.39a2.13,2.13,0,0,0-.3.36l-0.1.13-0.35,1.39a9.15,9.15,0,0,0-.36,2,1.56,1.56,0,0,0,.4,1.17,0.91,0.91,0,0,0,.66.26,1.67,1.67,0,0,0,1.11-.52,2.78,2.78,0,0,0,.66-0.91,10.63,10.63,0,0,0,.55-1.7A7.8,7.8,0,0,0,350.57,184.27Zm-4.36-5.22a1.26,1.26,0,0,1,.07-0.37,0.24,0.24,0,0,1,.2-0.21l1.19-.08,1.21-.1q0.2,0,.2.15t-0.56,2.32q-0.13.55-.28,1.13t-0.25.88l-0.07.31s0,0,.1,0a2.66,2.66,0,0,1,1.67-.65,2.06,2.06,0,0,1,1.66.75A2.88,2.88,0,0,1,352,185a4.76,4.76,0,0,1-1.31,3.26,3.78,3.78,0,0,1-2.82,1.46,2.19,2.19,0,0,1-1.51-.62,2.62,2.62,0,0,1-.7-2V187a4.65,4.65,0,0,1,.13-0.94q0.13-.6.81-3.19,0.83-3.19.83-3.39t-0.63-.23h-0.43a0.21,0.21,0,0,1-.12,0A0.1,0.1,0,0,1,346.21,179.05Z"/>
    <path d="M353.95,185.7v-0.21a0.35,0.35,0,0,1,.23-0.32h5v-2.43l0-2.43a0.44,0.44,0,0,1,.31-0.21,0.36,0.36,0,0,1,.33.24v4.83h4.94a0.34,0.34,0,0,1,0,.65h-4.94v4.83a0.37,0.37,0,0,1-.3.23h-0.07a0.32,0.32,0,0,1-.3-0.23v-4.83h-5a0.35,0.35,0,0,1-.23-0.32v0.21Z"/>
    <path d="M367.4,187a4.88,4.88,0,0,1,4.51-4.59,2.42,2.42,0,0,1,1.46.39,1.25,1.25,0,0,1,.55,1,1.1,1.1,0,0,1-.31.79,1.12,1.12,0,0,1-.8.34,0.72,0.72,0,0,1-.5-0.16,0.62,0.62,0,0,1-.18-0.49,0.85,0.85,0,0,1,.18-0.55,1.5,1.5,0,0,1,.36-0.34,0.42,0.42,0,0,1,.23-0.1h0a0.19,0.19,0,0,0-.1-0.1,1.29,1.29,0,0,0-.35-0.13,2.24,2.24,0,0,0-.56-0.06,2.06,2.06,0,0,0-.94.23,2.34,2.34,0,0,0-.71.5,4.19,4.19,0,0,0-1.06,2,9.78,9.78,0,0,0-.35,1.88,1.4,1.4,0,0,0,.43,1.12,1.26,1.26,0,0,0,1,.39h0.07a3.9,3.9,0,0,0,3.07-1.38,0.47,0.47,0,0,1,.2-0.16,0.43,0.43,0,0,1,.22.15,0.55,0.55,0,0,1,.17.23,0.35,0.35,0,0,1-.15.24l-0.48.45a2.75,2.75,0,0,1-.75.49q-0.43.19-1.06,0.41a3.61,3.61,0,0,1-1.33.18,2.68,2.68,0,0,1-2-.78A2.77,2.77,0,0,1,367.4,187Z"/>
  </g>
  <g>
    <path d="M350.1,210a1.44,1.44,0,0,0-.08-0.36,1.54,1.54,0,0,0-.38-0.57,1.07,1.07,0,0,0-.76-0.32,1.61,1.61,0,0,0-1.11.5,3.38,3.38,0,0,0-.83,1.31,12.71,12.71,0,0,0-.68,2.66v0.18a0.85,0.85,0,0,1,0,.19,1.34,1.34,0,0,0,.3,1,1.08,1.08,0,0,0,.71.29,1.89,1.89,0,0,0,1.24-.53,2.74,2.74,0,0,0,.73-0.83s0.17-.62.45-1.73S350.09,210.11,350.1,210Zm-5.27,2.77a4.73,4.73,0,0,1,1.26-3.11,3.73,3.73,0,0,1,2.83-1.49,1.89,1.89,0,0,1,1.49.79,0.83,0.83,0,0,1,.76-0.49,0.6,0.6,0,0,1,.38.13,0.4,0.4,0,0,1,.17.32q0,0.21-.61,2.59t-0.63,2.69a0.85,0.85,0,0,0,.12.53,0.49,0.49,0,0,0,.35.15,0.73,0.73,0,0,0,.33-0.15,3.64,3.64,0,0,0,.68-1.56,0.6,0.6,0,0,1,.17-0.34l0.17,0h0.07q0.31,0,.31.15a2.52,2.52,0,0,1-.08.44,5,5,0,0,1-.33.88,2.76,2.76,0,0,1-.53.81,1.64,1.64,0,0,1-.53.34,1.8,1.8,0,0,1-.4,0,1.72,1.72,0,0,1-.94-0.24,1.26,1.26,0,0,1-.5-0.5l-0.1-.24a0.06,0.06,0,0,0-.07,0l-0.07.06a2.93,2.93,0,0,1-2,.91,2.29,2.29,0,0,1-1.61-.65A2.69,2.69,0,0,1,344.83,212.79Z"/>
    <path d="M354.89,211.5v-0.21a0.35,0.35,0,0,1,.23-0.32h5v-2.43l0-2.43a0.44,0.44,0,0,1,.31-0.21,0.36,0.36,0,0,1,.33.24V211h4.94a0.34,0.34,0,0,1,0,.65h-4.94v4.83a0.37,0.37,0,0,1-.3.23h-0.07a0.32,0.32,0,0,1-.3-0.23v-4.83h-5a0.35,0.35,0,0,1-.23-0.32v0.21Z"/>
    <path d="M373.35,210.07V210a1,1,0,0,0-1-1.2,1.45,1.45,0,0,0-.58.13,2.19,2.19,0,0,0-.55.34l-0.43.39a2.12,2.12,0,0,0-.3.36l-0.1.13L370,211.51a9.15,9.15,0,0,0-.36,2,1.56,1.56,0,0,0,.4,1.17,0.91,0.91,0,0,0,.66.26,1.67,1.67,0,0,0,1.11-.52,2.78,2.78,0,0,0,.66-0.91,10.64,10.64,0,0,0,.55-1.7A7.8,7.8,0,0,0,373.35,210.07ZM369,204.85a1.26,1.26,0,0,1,.07-0.37,0.24,0.24,0,0,1,.2-0.21l1.19-.08,1.21-.1q0.2,0,.2.15t-0.56,2.32q-0.13.55-.28,1.13t-0.25.88l-0.07.31s0,0,.1,0a2.66,2.66,0,0,1,1.67-.65,2.06,2.06,0,0,1,1.66.75,2.88,2.88,0,0,1,.65,1.88,4.76,4.76,0,0,1-1.31,3.26,3.78,3.78,0,0,1-2.82,1.46,2.19,2.19,0,0,1-1.51-.62,2.62,2.62,0,0,1-.7-2v-0.15a4.65,4.65,0,0,1,.13-0.94q0.13-.6.81-3.19,0.83-3.19.83-3.39t-0.63-.23h-0.43a0.21,0.21,0,0,1-.12,0A0.1,0.1,0,0,1,369,204.85Z"/>
  </g>
  <path d="M361.15,235.19a1.44,1.44,0,0,0-.08-0.36,1.54,1.54,0,0,0-.38-0.57,1.07,1.07,0,0,0-.76-0.32,1.61,1.61,0,0,0-1.11.5,3.38,3.38,0,0,0-.83,1.31,12.71,12.71,0,0,0-.68,2.66v0.18a0.85,0.85,0,0,1,0,.19,1.34,1.34,0,0,0,.3,1,1.08,1.08,0,0,0,.71.29,1.89,1.89,0,0,0,1.24-.53,2.74,2.74,0,0,0,.73-0.83s0.17-.62.45-1.73S361.14,235.28,361.15,235.19ZM355.88,238a4.73,4.73,0,0,1,1.26-3.11,3.73,3.73,0,0,1,2.83-1.49,1.89,1.89,0,0,1,1.49.79,0.83,0.83,0,0,1,.76-0.49,0.6,0.6,0,0,1,.38.13,0.4,0.4,0,0,1,.17.32q0,0.21-.61,2.59t-0.63,2.69a0.85,0.85,0,0,0,.12.53,0.49,0.49,0,0,0,.35.15,0.73,0.73,0,0,0,.33-0.15,3.64,3.64,0,0,0,.68-1.56,0.6,0.6,0,0,1,.17-0.34l0.17,0h0.07q0.31,0,.31.15a2.52,2.52,0,0,1-.08.44,5,5,0,0,1-.33.88,2.76,2.76,0,0,1-.53.81,1.64,1.64,0,0,1-.53.34,1.8,1.8,0,0,1-.4,0,1.72,1.72,0,0,1-.94-0.24,1.26,1.26,0,0,1-.5-0.5l-0.1-.24a0.06,0.06,0,0,0-.07,0l-0.07.06a2.93,2.93,0,0,1-2,.91,2.29,2.29,0,0,1-1.61-.65A2.69,2.69,0,0,1,355.88,238Z"/>
  <path d="M310.37,183.54a1.44,1.44,0,0,0-.08-0.36,1.54,1.54,0,0,0-.38-0.57,1.07,1.07,0,0,0-.76-0.32,1.61,1.61,0,0,0-1.11.5,3.38,3.38,0,0,0-.83,1.31,12.71,12.71,0,0,0-.68,2.66v0.18a0.85,0.85,0,0,1,0,.19,1.34,1.34,0,0,0,.3,1,1.08,1.08,0,0,0,.71.29,1.89,1.89,0,0,0,1.24-.53,2.74,2.74,0,0,0,.73-0.83s0.17-.62.45-1.73S310.35,183.63,310.37,183.54Zm-5.27,2.77a4.73,4.73,0,0,1,1.26-3.11,3.73,3.73,0,0,1,2.83-1.49,1.89,1.89,0,0,1,1.49.79,0.83,0.83,0,0,1,.76-0.49,0.6,0.6,0,0,1,.38.13,0.4,0.4,0,0,1,.17.32q0,0.21-.61,2.59t-0.63,2.69a0.85,0.85,0,0,0,.12.53,0.49,0.49,0,0,0,.35.15,0.73,0.73,0,0,0,.33-0.15,3.64,3.64,0,0,0,.68-1.56,0.6,0.6,0,0,1,.17-0.34l0.17,0h0.07q0.31,0,.31.15a2.52,2.52,0,0,1-.08.44,5,5,0,0,1-.33.88,2.76,2.76,0,0,1-.53.81,1.64,1.64,0,0,1-.53.34,1.8,1.8,0,0,1-.4,0,1.72,1.72,0,0,1-.94-0.24,1.26,1.26,0,0,1-.5-0.5l-0.1-.24a0.06,0.06,0,0,0-.07,0l-0.07.06a2.93,2.93,0,0,1-2,.91,2.29,2.29,0,0,1-1.61-.65A2.69,2.69,0,0,1,305.1,186.32Z"/>
  <path d="M468.71,264.8a4.88,4.88,0,0,1,4.51-4.59,2.42,2.42,0,0,1,1.46.39,1.25,1.25,0,0,1,.55,1,1.1,1.1,0,0,1-.31.79,1.12,1.12,0,0,1-.8.34,0.72,0.72,0,0,1-.5-0.16,0.62,0.62,0,0,1-.18-0.49,0.85,0.85,0,0,1,.18-0.55,1.5,1.5,0,0,1,.36-0.34,0.42,0.42,0,0,1,.23-0.1h0a0.19,0.19,0,0,0-.1-0.1,1.29,1.29,0,0,0-.35-0.13,2.24,2.24,0,0,0-.56-0.06,2.06,2.06,0,0,0-.94.23,2.34,2.34,0,0,0-.71.5,4.19,4.19,0,0,0-1.06,2,9.78,9.78,0,0,0-.35,1.88,1.4,1.4,0,0,0,.43,1.12,1.26,1.26,0,0,0,1,.39h0.07a3.9,3.9,0,0,0,3.07-1.38,0.47,0.47,0,0,1,.2-0.16,0.43,0.43,0,0,1,.22.15,0.55,0.55,0,0,1,.17.23,0.35,0.35,0,0,1-.15.24l-0.48.45a2.75,2.75,0,0,1-.75.49q-0.43.19-1.06,0.41a3.61,3.61,0,0,1-1.33.18,2.68,2.68,0,0,1-2-.78A2.77,2.77,0,0,1,468.71,264.8Z"/>
  <g>
    <path d="M462.75,283.57v-0.1a1,1,0,0,0-1-1.2,1.45,1.45,0,0,0-.58.13,2.19,2.19,0,0,0-.55.34l-0.43.39a2.13,2.13,0,0,0-.3.36l-0.1.13L459.43,285a9.15,9.15,0,0,0-.36,2,1.56,1.56,0,0,0,.4,1.17,0.91,0.91,0,0,0,.66.26,1.67,1.67,0,0,0,1.11-.52,2.78,2.78,0,0,0,.66-0.91,10.63,10.63,0,0,0,.55-1.7A7.8,7.8,0,0,0,462.75,283.57Zm-4.36-5.22a1.26,1.26,0,0,1,.07-0.37,0.24,0.24,0,0,1,.2-0.21l1.19-.08,1.21-.1q0.2,0,.2.15t-0.56,2.32q-0.13.55-.28,1.13t-0.25.88l-0.07.31s0,0,.1,0a2.66,2.66,0,0,1,1.67-.65,2.06,2.06,0,0,1,1.66.75,2.88,2.88,0,0,1,.65,1.88,4.76,4.76,0,0,1-1.31,3.26A3.78,3.78,0,0,1,460,289a2.19,2.19,0,0,1-1.51-.62,2.62,2.62,0,0,1-.7-2v-0.15a4.65,4.65,0,0,1,.13-0.94q0.13-.6.81-3.19,0.83-3.19.83-3.39t-0.63-.23h-0.43a0.21,0.21,0,0,1-.12,0A0.1,0.1,0,0,1,458.39,278.35Z"/>
    <path d="M466.13,285v-0.21a0.35,0.35,0,0,1,.23-0.32h5V282l0-2.43a0.44,0.44,0,0,1,.31-0.21,0.36,0.36,0,0,1,.33.24v4.83h4.94a0.34,0.34,0,0,1,0,.65H472v4.83a0.37,0.37,0,0,1-.3.23h-0.07a0.32,0.32,0,0,1-.3-0.23v-4.83h-5a0.35,0.35,0,0,1-.23-0.32V285Z"/>
    <path d="M479.58,286.26a4.88,4.88,0,0,1,4.51-4.59,2.42,2.42,0,0,1,1.46.39,1.25,1.25,0,0,1,.55,1,1.1,1.1,0,0,1-.31.79,1.12,1.12,0,0,1-.8.34,0.72,0.72,0,0,1-.5-0.16,0.62,0.62,0,0,1-.18-0.49,0.85,0.85,0,0,1,.18-0.55,1.5,1.5,0,0,1,.36-0.34,0.42,0.42,0,0,1,.23-0.1h0a0.19,0.19,0,0,0-.1-0.1,1.29,1.29,0,0,0-.35-0.13,2.24,2.24,0,0,0-.56-0.06,2.06,2.06,0,0,0-.94.23,2.34,2.34,0,0,0-.71.5,4.19,4.19,0,0,0-1.06,2,9.78,9.78,0,0,0-.35,1.88,1.4,1.4,0,0,0,.43,1.12,1.26,1.26,0,0,0,1,.39h0.07a3.9,3.9,0,0,0,3.07-1.38,0.47,0.47,0,0,1,.2-0.16,0.43,0.43,0,0,1,.22.15,0.55,0.55,0,0,1,.17.23,0.35,0.35,0,0,1-.15.24l-0.48.45a2.75,2.75,0,0,1-.75.49q-0.43.19-1.06,0.41a3.61,3.61,0,0,1-1.33.18,2.68,2.68,0,0,1-2-.78A2.77,2.77,0,0,1,479.58,286.26Z"/>
  </g>
  <g>
    <polygon points="17.95 203.99 17.95 175 23.61 175 23.61 176.35 19.32 176.35 19.32 203.99 17.95 203.99"/>
    <rect x="17.95" y="203.18" width="1.37" height="64.46"/>
    <polygon points="17.95 295.83 17.95 266.84 19.32 266.84 19.32 294.47 23.61 294.47 23.61 295.83 17.95 295.83"/>
  </g>
  <g>
    <polygon points="223.74 176.35 223.74 175 229.4 175 229.4 203.99 228.03 203.99 228.03 176.35 223.74 176.35"/>
    <rect x="228.03" y="203.18" width="1.37" height="64.46"/>
    <polygon points="228.03 294.47 228.03 266.84 229.4 266.84 229.4 295.83 223.74 295.83 223.74 294.47 228.03 294.47"/>
  </g>
  <path d="M82.89,210.41a1.65,1.65,0,0,0-.09-0.41,1.75,1.75,0,0,0-.43-0.65,1.2,1.2,0,0,0-.86-0.37,1.8,1.8,0,0,0-1.25.57,3.85,3.85,0,0,0-.93,1.49,14.58,14.58,0,0,0-.76,3v0.2a1,1,0,0,1,0,.22,1.54,1.54,0,0,0,.34,1.14,1.21,1.21,0,0,0,.8.33,2.12,2.12,0,0,0,1.4-.61,3.11,3.11,0,0,0,.82-0.94s0.19-.71.5-2S82.87,210.51,82.89,210.41ZM77,213.57A5.41,5.41,0,0,1,78.37,210a4.19,4.19,0,0,1,3.19-1.7,2.12,2.12,0,0,1,1.68.9,0.93,0.93,0,0,1,.86-0.55,0.67,0.67,0,0,1,.43.15,0.45,0.45,0,0,1,.19.37q0,0.24-.69,3t-0.71,3.06a1,1,0,0,0,.13.61,0.55,0.55,0,0,0,.39.17,0.82,0.82,0,0,0,.37-0.17A4.16,4.16,0,0,0,85,214a0.68,0.68,0,0,1,.19-0.39l0.19,0h0.07q0.35,0,.35.17a2.9,2.9,0,0,1-.09.5,5.74,5.74,0,0,1-.37,1,3.14,3.14,0,0,1-.6.92,1.85,1.85,0,0,1-.6.39,2,2,0,0,1-.45,0,1.92,1.92,0,0,1-1.06-.28A1.42,1.42,0,0,1,82,215.8l-0.11-.28s0,0-.07,0l-0.07.07a3.29,3.29,0,0,1-2.24,1,2.56,2.56,0,0,1-1.81-.74A3.09,3.09,0,0,1,77,213.57Z"/>
  <path d="M82.86,187.39v-0.11a1.12,1.12,0,0,0-1.14-1.36,1.62,1.62,0,0,0-.65.15,2.46,2.46,0,0,0-.62.39q-0.28.24-.49,0.44a2.42,2.42,0,0,0-.34.41l-0.11.15L79.13,189a10.5,10.5,0,0,0-.41,2.25,1.79,1.79,0,0,0,.45,1.33,1,1,0,0,0,.75.3,1.87,1.87,0,0,0,1.25-.59,3.16,3.16,0,0,0,.75-1,12.19,12.19,0,0,0,.62-1.94A9,9,0,0,0,82.86,187.39ZM78,181.45A1.45,1.45,0,0,1,78,181a0.27,0.27,0,0,1,.22-0.24l1.34-.09q1.32-.09,1.36-0.11,0.22,0,.22.17t-0.63,2.64q-0.15.63-.32,1.29t-0.28,1l-0.07.35s0,0,.11-0.06a3,3,0,0,1,1.88-.74,2.31,2.31,0,0,1,1.87.85,3.3,3.3,0,0,1,.73,2.14A5.45,5.45,0,0,1,83,191.92a4.24,4.24,0,0,1-3.17,1.66,2.46,2.46,0,0,1-1.7-.7,3,3,0,0,1-.78-2.27v-0.17a5.35,5.35,0,0,1,.15-1.07q0.15-.68.91-3.63,0.93-3.63.93-3.85t-0.71-.26H78.14a0.23,0.23,0,0,1-.13-0.06A0.12,0.12,0,0,1,78,181.45Z"/>
  <path d="M127.76,258a1.65,1.65,0,0,0-.09-0.41,1.75,1.75,0,0,0-.43-0.65,1.2,1.2,0,0,0-.86-0.37,1.8,1.8,0,0,0-1.25.57,3.85,3.85,0,0,0-.93,1.49,14.58,14.58,0,0,0-.76,3v0.2a1,1,0,0,1,0,.22,1.54,1.54,0,0,0,.34,1.14,1.21,1.21,0,0,0,.8.33,2.12,2.12,0,0,0,1.4-.61,3.11,3.11,0,0,0,.82-0.94s0.19-.71.5-2S127.75,258,127.76,258Zm-5.93,3.15a5.41,5.41,0,0,1,1.42-3.54,4.19,4.19,0,0,1,3.19-1.7,2.12,2.12,0,0,1,1.68.9,0.93,0.93,0,0,1,.86-0.55,0.67,0.67,0,0,1,.43.15,0.45,0.45,0,0,1,.19.37q0,0.24-.69,3t-0.71,3.06a1,1,0,0,0,.13.61,0.55,0.55,0,0,0,.39.17,0.82,0.82,0,0,0,.37-0.17,4.16,4.16,0,0,0,.76-1.77,0.68,0.68,0,0,1,.19-0.39l0.19,0h0.07q0.35,0,.35.17a2.9,2.9,0,0,1-.09.5,5.74,5.74,0,0,1-.37,1,3.14,3.14,0,0,1-.6.92,1.85,1.85,0,0,1-.6.39,2,2,0,0,1-.45,0,1.92,1.92,0,0,1-1.06-.28,1.42,1.42,0,0,1-.56-0.57l-0.11-.28s0,0-.07,0l-0.07.07a3.29,3.29,0,0,1-2.24,1,2.56,2.56,0,0,1-1.81-.74A3.09,3.09,0,0,1,121.83,261.1Z"/>
  <path d="M127.73,234.93v-0.11a1.12,1.12,0,0,0-1.14-1.36,1.62,1.62,0,0,0-.65.15,2.46,2.46,0,0,0-.62.39q-0.28.24-.49,0.44a2.42,2.42,0,0,0-.34.41l-0.11.15L124,236.57a10.5,10.5,0,0,0-.41,2.25,1.79,1.79,0,0,0,.45,1.33,1,1,0,0,0,.75.3,1.87,1.87,0,0,0,1.25-.59,3.16,3.16,0,0,0,.75-1,12.19,12.19,0,0,0,.62-1.94A9,9,0,0,0,127.73,234.93ZM122.83,229a1.45,1.45,0,0,1,.07-0.42,0.27,0.27,0,0,1,.22-0.24l1.34-.09q1.32-.09,1.36-0.11,0.22,0,.22.17t-0.63,2.64q-0.15.63-.32,1.29t-0.28,1l-0.07.35s0,0,.11-0.06a3,3,0,0,1,1.88-.74,2.31,2.31,0,0,1,1.87.85,3.3,3.3,0,0,1,.73,2.14,5.45,5.45,0,0,1-1.47,3.71,4.24,4.24,0,0,1-3.17,1.66,2.46,2.46,0,0,1-1.7-.7,3,3,0,0,1-.78-2.27V238a5.35,5.35,0,0,1,.15-1.07q0.15-.68.91-3.63,0.93-3.63.93-3.85t-0.71-.26H123a0.23,0.23,0,0,1-.13-0.06A0.12,0.12,0,0,1,122.83,229Z"/>
  <path d="M122.14,215.15a5,5,0,0,1,1.6-3.61,4.85,4.85,0,0,1,3.47-1.6,2.7,2.7,0,0,1,1.64.44,1.43,1.43,0,0,1,.62,1.16,1.27,1.27,0,0,1-1.25,1.29,0.81,0.81,0,0,1-.56-0.18,0.71,0.71,0,0,1-.21-0.55,1,1,0,0,1,.21-0.63,1.7,1.7,0,0,1,.41-0.39,0.47,0.47,0,0,1,.26-0.11h0a0.22,0.22,0,0,0-.11-0.11,1.44,1.44,0,0,0-.39-0.15,2.49,2.49,0,0,0-.63-0.07,2.3,2.3,0,0,0-1.06.26,2.64,2.64,0,0,0-.8.57,4.79,4.79,0,0,0-1.19,2.29,11.25,11.25,0,0,0-.39,2.14,1.6,1.6,0,0,0,.49,1.27,1.41,1.41,0,0,0,1.08.44h0.07a4.37,4.37,0,0,0,3.45-1.57,0.53,0.53,0,0,1,.22-0.18,0.48,0.48,0,0,1,.24.17,0.63,0.63,0,0,1,.19.26,0.4,0.4,0,0,1-.17.28l-0.54.52a3.1,3.1,0,0,1-.84.55q-0.48.22-1.19,0.46a4,4,0,0,1-1.49.2,3,3,0,0,1-2.26-.89A3.17,3.17,0,0,1,122.14,215.15Z"/>
  <path d="M172,282.47v-0.11a1.12,1.12,0,0,0-1.14-1.36,1.62,1.62,0,0,0-.65.15,2.46,2.46,0,0,0-.62.39q-0.28.24-.49,0.44a2.42,2.42,0,0,0-.34.41l-0.11.15-0.39,1.59a10.5,10.5,0,0,0-.41,2.25,1.79,1.79,0,0,0,.45,1.33,1,1,0,0,0,.75.3,1.87,1.87,0,0,0,1.25-.59,3.16,3.16,0,0,0,.75-1,12.19,12.19,0,0,0,.62-1.94A9,9,0,0,0,172,282.47Zm-4.91-5.94a1.45,1.45,0,0,1,.07-0.42,0.27,0.27,0,0,1,.22-0.24l1.34-.09q1.32-.09,1.36-0.11,0.22,0,.22.17t-0.63,2.64q-0.15.63-.32,1.29t-0.28,1l-0.07.35s0,0,.11-0.06a3,3,0,0,1,1.88-.74,2.31,2.31,0,0,1,1.87.85,3.3,3.3,0,0,1,.73,2.14,5.45,5.45,0,0,1-1.47,3.71,4.24,4.24,0,0,1-3.17,1.66,2.46,2.46,0,0,1-1.7-.7,3,3,0,0,1-.78-2.27v-0.17a5.35,5.35,0,0,1,.15-1.07q0.15-.68.91-3.63,0.93-3.63.93-3.85t-0.71-.26h-0.49a0.23,0.23,0,0,1-.13-0.06A0.12,0.12,0,0,1,167.1,276.53Z"/>
  <path d="M166.41,262.69a5,5,0,0,1,1.6-3.61,4.85,4.85,0,0,1,3.47-1.6,2.7,2.7,0,0,1,1.64.44,1.43,1.43,0,0,1,.62,1.16,1.27,1.27,0,0,1-1.25,1.29,0.81,0.81,0,0,1-.56-0.18,0.71,0.71,0,0,1-.21-0.55,1,1,0,0,1,.21-0.63,1.7,1.7,0,0,1,.41-0.39,0.47,0.47,0,0,1,.26-0.11h0a0.22,0.22,0,0,0-.11-0.11,1.44,1.44,0,0,0-.39-0.15,2.49,2.49,0,0,0-.63-0.07,2.3,2.3,0,0,0-1.06.26,2.64,2.64,0,0,0-.8.57,4.79,4.79,0,0,0-1.19,2.29,11.25,11.25,0,0,0-.39,2.14,1.6,1.6,0,0,0,.49,1.27,1.41,1.41,0,0,0,1.08.44h0.07a4.37,4.37,0,0,0,3.45-1.57,0.53,0.53,0,0,1,.22-0.18,0.48,0.48,0,0,1,.24.17,0.63,0.63,0,0,1,.19.26,0.4,0.4,0,0,1-.17.28l-0.54.52a3.1,3.1,0,0,1-.84.55q-0.48.22-1.19,0.46a4,4,0,0,1-1.49.2,3,3,0,0,1-2.26-.89A3.17,3.17,0,0,1,166.41,262.69Z"/>
  <g>
    <polygon points="522.12 203.99 522.12 175 527.77 175 527.77 176.35 523.49 176.35 523.49 203.99 522.12 203.99"/>
    <rect x="522.12" y="203.19" width="1.37" height="64.46"/>
    <polygon points="522.12 295.84 522.12 266.85 523.49 266.85 523.49 294.49 527.77 294.49 527.77 295.84 522.12 295.84"/>
  </g>
  <g>
    <polygon points="727.72 176.35 727.72 175 733.37 175 733.37 203.99 732.01 203.99 732.01 176.35 727.72 176.35"/>
    <rect x="732.01" y="203.19" width="1.37" height="64.46"/>
    <polygon points="732.01 294.49 732.01 266.85 733.37 266.85 733.37 295.84 727.72 295.84 727.72 294.49 732.01 294.49"/>
  </g>
  <g>
    <path d="M673.29,260.22v-0.06a0.65,0.65,0,0,0-.66-0.79,0.94,0.94,0,0,0-.38.09,1.43,1.43,0,0,0-.36.23l-0.28.26a1.4,1.4,0,0,0-.2.24l-0.07.09-0.23.92a6.12,6.12,0,0,0-.24,1.31,1,1,0,0,0,.26.77,0.59,0.59,0,0,0,.43.17,1.08,1.08,0,0,0,.73-0.34,1.84,1.84,0,0,0,.43-0.6,7.1,7.1,0,0,0,.36-1.13A5.22,5.22,0,0,0,673.29,260.22Zm-2.85-3.45a0.85,0.85,0,0,1,0-.25,0.16,0.16,0,0,1,.13-0.14l0.78-.05,0.79-.06q0.13,0,.13.1t-0.37,1.53l-0.18.75q-0.1.39-.16,0.58l0,0.2s0,0,.07,0a1.73,1.73,0,0,1,1.1-.43,1.34,1.34,0,0,1,1.08.49,1.92,1.92,0,0,1,.42,1.24,3.17,3.17,0,0,1-.86,2.16,2.47,2.47,0,0,1-1.84,1,1.43,1.43,0,0,1-1-.41,1.75,1.75,0,0,1-.46-1.32V262a3.12,3.12,0,0,1,.09-0.62q0.09-.4.53-2.11,0.54-2.11.54-2.24t-0.41-.15h-0.28l-0.08,0A0.07,0.07,0,0,1,670.44,256.77Z"/>
    <path d="M675.51,261.17V261a0.23,0.23,0,0,1,.15-0.21h3.24v-3.22a0.29,0.29,0,0,1,.21-0.14,0.24,0.24,0,0,1,.22.16v3.2h3.23a0.22,0.22,0,0,1,0,.43h-3.23v3.2a0.24,0.24,0,0,1-.2.15h0a0.21,0.21,0,0,1-.2-0.15v-3.2h-3.24a0.23,0.23,0,0,1-.15-0.21v0.14Z"/>
    <path d="M684.3,262a2.91,2.91,0,0,1,.93-2.1,2.82,2.82,0,0,1,2-.93,1.57,1.57,0,0,1,1,.26,0.83,0.83,0,0,1,.36.68,0.74,0.74,0,0,1-.73.75,0.47,0.47,0,0,1-.33-0.11,0.41,0.41,0,0,1-.12-0.32,0.57,0.57,0,0,1,.12-0.36,1,1,0,0,1,.24-0.23,0.27,0.27,0,0,1,.15-0.06h0a0.13,0.13,0,0,0-.07-0.06,0.84,0.84,0,0,0-.23-0.09,1.45,1.45,0,0,0-.37,0,1.34,1.34,0,0,0-.62.15,1.53,1.53,0,0,0-.47.33,2.79,2.79,0,0,0-.69,1.33,6.55,6.55,0,0,0-.23,1.24,0.93,0.93,0,0,0,.28.74,0.82,0.82,0,0,0,.63.26h0a2.54,2.54,0,0,0,2-.91,0.31,0.31,0,0,1,.13-0.11,0.28,0.28,0,0,1,.14.1,0.37,0.37,0,0,1,.11.15,0.23,0.23,0,0,1-.1.16l-0.31.3a1.8,1.8,0,0,1-.49.32q-0.28.13-.69,0.27a2.34,2.34,0,0,1-.87.12,1.74,1.74,0,0,1-1.31-.51A1.84,1.84,0,0,1,684.3,262Z"/>
    <g>
      <rect x="663.98" y="260.9" width="5.1" height="0.49"/>
      <path d="M666.23,254.72l-0.11,0-0.33.08a3.83,3.83,0,0,1-.48.06h-0.16v-0.37h0.16a2.7,2.7,0,0,0,.72-0.12,2,2,0,0,0,.46-0.2l0.23-.18a0.13,0.13,0,0,1,.1,0,0.23,0.23,0,0,1,.14,0v4.87l0.1,0.07,0.2,0,0.51,0H668v0.37H667.9q-0.17,0-1.31,0t-1.29,0h-0.1v-0.37h0.73l0.13,0,0.07,0,0,0,0,0v-4.21Z"/>
      <path d="M665.37,264.82a0.45,0.45,0,0,1-.35-0.15,0.52,0.52,0,0,1-.13-0.36,1.35,1.35,0,0,1,.44-1,1.5,1.5,0,0,1,1.09-.42,1.79,1.79,0,0,1,1.25.46,1.55,1.55,0,0,1,.51,1.18,1.43,1.43,0,0,1-.16.67,2.3,2.3,0,0,1-.39.55q-0.23.24-.66,0.6t-0.82.75l-0.49.46h0.62a10,10,0,0,0,1.37,0,2.19,2.19,0,0,0,.2-0.72v0h0.33v0s0,0.26-.11.74a6,6,0,0,1-.12.75v0h-3.05v-0.25a0.21,0.21,0,0,1,0-.12l0.25-.28,0.41-.46,0.28-.3,0.28-.3,0.24-.27,0.23-.28,0.19-.24a1.38,1.38,0,0,0,.17-0.26l0.12-.24a1,1,0,0,0,.11-0.26l0.06-.24a1.28,1.28,0,0,0,0-.27,1.44,1.44,0,0,0-.28-0.89,0.94,0.94,0,0,0-.8-0.37,0.83,0.83,0,0,0-.48.14,1,1,0,0,0-.29.27,0.58,0.58,0,0,0-.08.15h0a0.52,0.52,0,0,1,.3.11,0.43,0.43,0,0,1,.16.37,0.48,0.48,0,0,1-.13.34A0.51,0.51,0,0,1,665.37,264.82Z"/>
    </g>
  </g>
  <g>
    <path d="M619.21,260.12a1,1,0,0,0-.05-0.24,1,1,0,0,0-.25-0.38,0.7,0.7,0,0,0-.5-0.21,1,1,0,0,0-.73.33,2.24,2.24,0,0,0-.54.87,8.49,8.49,0,0,0-.44,1.76v0.12a0.57,0.57,0,0,1,0,.13,0.89,0.89,0,0,0,.2.67,0.7,0.7,0,0,0,.47.19,1.23,1.23,0,0,0,.81-0.35,1.81,1.81,0,0,0,.48-0.55s0.11-.41.29-1.15S619.2,260.18,619.21,260.12ZM615.76,262a3.15,3.15,0,0,1,.82-2.06,2.43,2.43,0,0,1,1.85-1,1.23,1.23,0,0,1,1,.53,0.54,0.54,0,0,1,.5-0.32,0.39,0.39,0,0,1,.25.09,0.26,0.26,0,0,1,.11.21q0,0.14-.4,1.72t-0.41,1.78a0.57,0.57,0,0,0,.08.35,0.32,0.32,0,0,0,.23.1,0.47,0.47,0,0,0,.22-0.1,2.42,2.42,0,0,0,.44-1,0.4,0.4,0,0,1,.11-0.23h0.15q0.21,0,.21.1a1.68,1.68,0,0,1-.05.29,3.34,3.34,0,0,1-.22.58,1.83,1.83,0,0,1-.35.54,1.07,1.07,0,0,1-.35.23l-0.26,0a1.12,1.12,0,0,1-.62-0.16,0.83,0.83,0,0,1-.33-0.33l-0.07-.16h0l0,0a1.91,1.91,0,0,1-1.3.6,1.49,1.49,0,0,1-1.05-.43A1.8,1.8,0,0,1,615.76,262Z"/>
    <path d="M623.23,261.09V261a0.23,0.23,0,0,1,.15-0.21h3.24v-3.22a0.29,0.29,0,0,1,.21-0.14,0.24,0.24,0,0,1,.22.16v3.2h3.23a0.22,0.22,0,0,1,0,.43h-3.23v3.2a0.24,0.24,0,0,1-.2.15h0a0.21,0.21,0,0,1-.2-0.15v-3.2h-3.24a0.23,0.23,0,0,1-.15-0.21v0.14Z"/>
    <path d="M642,260.15v-0.06a0.65,0.65,0,0,0-.66-0.79,0.94,0.94,0,0,0-.38.09,1.43,1.43,0,0,0-.36.23l-0.28.26a1.4,1.4,0,0,0-.2.24l-0.07.09-0.23.92a6.11,6.11,0,0,0-.24,1.31,1,1,0,0,0,.26.77,0.59,0.59,0,0,0,.43.17A1.08,1.08,0,0,0,641,263a1.84,1.84,0,0,0,.43-0.6,7.09,7.09,0,0,0,.36-1.13A5.22,5.22,0,0,0,642,260.15Zm-2.85-3.45a0.85,0.85,0,0,1,0-.25,0.16,0.16,0,0,1,.13-0.14l0.78-.05,0.79-.06q0.13,0,.13.1t-0.37,1.53l-0.18.75q-0.1.39-.16,0.58l0,0.2s0,0,.07,0a1.73,1.73,0,0,1,1.1-.43,1.34,1.34,0,0,1,1.08.49,1.92,1.92,0,0,1,.42,1.24,3.17,3.17,0,0,1-.86,2.16,2.47,2.47,0,0,1-1.84,1,1.43,1.43,0,0,1-1-.41,1.75,1.75,0,0,1-.46-1.32v-0.1a3.12,3.12,0,0,1,.09-0.62q0.09-.4.53-2.11,0.54-2.11.54-2.24t-0.41-.15h-0.28l-0.08,0A0.07,0.07,0,0,1,639.15,256.7Z"/>
    <g>
      <rect x="632.51" y="260.53" width="5.1" height="0.49"/>
      <path d="M634.76,254.36l-0.11,0-0.33.08a3.83,3.83,0,0,1-.48.06h-0.16v-0.37h0.16a2.7,2.7,0,0,0,.72-0.12,2,2,0,0,0,.46-0.2l0.23-.18a0.13,0.13,0,0,1,.1,0,0.23,0.23,0,0,1,.14,0v4.87l0.1,0.07,0.2,0,0.51,0h0.21v0.37h-0.09q-0.17,0-1.31,0t-1.29,0h-0.1v-0.37h0.73l0.13,0,0.07,0,0,0,0,0v-4.21Z"/>
      <path d="M633.9,264.45a0.45,0.45,0,0,1-.35-0.15,0.52,0.52,0,0,1-.13-0.36,1.35,1.35,0,0,1,.44-1,1.5,1.5,0,0,1,1.09-.42,1.79,1.79,0,0,1,1.25.46,1.55,1.55,0,0,1,.51,1.18,1.43,1.43,0,0,1-.16.67,2.3,2.3,0,0,1-.39.55q-0.23.24-.66,0.6t-0.82.75l-0.49.46h0.62a10,10,0,0,0,1.37,0,2.19,2.19,0,0,0,.2-0.72v0h0.33v0s0,0.26-.11.74a6,6,0,0,1-.12.75v0h-3.05v-0.25a0.21,0.21,0,0,1,0-.12l0.25-.28,0.41-.46,0.28-.3,0.28-.3,0.24-.27,0.23-.28,0.19-.24a1.38,1.38,0,0,0,.17-0.26l0.12-.24a1,1,0,0,0,.11-0.26l0.06-.24a1.28,1.28,0,0,0,0-.27,1.44,1.44,0,0,0-.28-0.89,0.94,0.94,0,0,0-.8-0.37,0.83,0.83,0,0,0-.48.14,1,1,0,0,0-.29.27,0.58,0.58,0,0,0-.08.15h0a0.52,0.52,0,0,1,.3.11,0.43,0.43,0,0,1,.16.37,0.48,0.48,0,0,1-.13.34A0.51,0.51,0,0,1,633.9,264.45Z"/>
    </g>
  </g>
  <g>
    <path d="M626.74,211.25v-0.06a0.65,0.65,0,0,0-.66-0.79,0.94,0.94,0,0,0-.38.09,1.43,1.43,0,0,0-.36.23l-0.28.26a1.4,1.4,0,0,0-.2.24l-0.07.09-0.23.92a6.12,6.12,0,0,0-.24,1.31,1,1,0,0,0,.26.77,0.59,0.59,0,0,0,.43.17,1.08,1.08,0,0,0,.73-0.34,1.84,1.84,0,0,0,.43-0.6,7.1,7.1,0,0,0,.36-1.13A5.22,5.22,0,0,0,626.74,211.25Zm-2.85-3.45a0.85,0.85,0,0,1,0-.25,0.16,0.16,0,0,1,.13-0.14l0.78-.05,0.79-.06q0.13,0,.13.1t-0.37,1.53l-0.18.75q-0.1.39-.16,0.58l0,0.2s0,0,.07,0a1.73,1.73,0,0,1,1.1-.43,1.34,1.34,0,0,1,1.08.49,1.92,1.92,0,0,1,.42,1.24,3.17,3.17,0,0,1-.86,2.16,2.47,2.47,0,0,1-1.84,1,1.43,1.43,0,0,1-1-.41,1.75,1.75,0,0,1-.46-1.32V213a3.12,3.12,0,0,1,.09-0.62q0.09-.4.53-2.11,0.54-2.11.54-2.24t-0.41-.15H624l-0.08,0A0.07,0.07,0,0,1,623.89,207.8Z"/>
    <path d="M629,212.19v-0.14a0.23,0.23,0,0,1,.15-0.21h3.24v-3.22a0.29,0.29,0,0,1,.21-0.14,0.24,0.24,0,0,1,.22.16v3.2H636a0.22,0.22,0,0,1,0,.43h-3.23v3.2a0.24,0.24,0,0,1-.2.15h0a0.21,0.21,0,0,1-.2-0.15v-3.2h-3.24a0.23,0.23,0,0,1-.15-0.21v0.14Z"/>
    <path d="M637.76,213a2.91,2.91,0,0,1,.93-2.1,2.82,2.82,0,0,1,2-.93,1.57,1.57,0,0,1,1,.26,0.83,0.83,0,0,1,.36.68,0.74,0.74,0,0,1-.73.75,0.47,0.47,0,0,1-.33-0.11,0.41,0.41,0,0,1-.12-0.32,0.57,0.57,0,0,1,.12-0.36,1,1,0,0,1,.24-0.23,0.27,0.27,0,0,1,.15-0.06h0a0.13,0.13,0,0,0-.07-0.06,0.84,0.84,0,0,0-.23-0.09,1.45,1.45,0,0,0-.37,0,1.34,1.34,0,0,0-.62.15,1.53,1.53,0,0,0-.47.33,2.79,2.79,0,0,0-.69,1.33,6.55,6.55,0,0,0-.23,1.24,0.93,0.93,0,0,0,.28.74,0.82,0.82,0,0,0,.63.26h0a2.54,2.54,0,0,0,2-.91,0.31,0.31,0,0,1,.13-0.11,0.28,0.28,0,0,1,.14.1,0.37,0.37,0,0,1,.11.15,0.23,0.23,0,0,1-.1.16l-0.31.3a1.8,1.8,0,0,1-.49.32q-0.28.13-.69,0.27a2.34,2.34,0,0,1-.87.12,1.74,1.74,0,0,1-1.31-.51A1.84,1.84,0,0,1,637.76,213Z"/>
    <g>
      <rect x="617.44" y="211.92" width="5.1" height="0.49"/>
      <path d="M619.68,205.75l-0.11,0-0.33.08a3.83,3.83,0,0,1-.48.06h-0.16v-0.37h0.16a2.7,2.7,0,0,0,.72-0.12,2,2,0,0,0,.46-0.2l0.23-.18a0.13,0.13,0,0,1,.1,0,0.23,0.23,0,0,1,.14,0V210l0.1,0.07,0.2,0,0.51,0h0.21v0.37h-0.09q-0.17,0-1.31,0t-1.29,0h-0.1v-0.37h0.73l0.13,0,0.07,0,0,0,0,0v-4.21Z"/>
      <path d="M618.83,215.84a0.45,0.45,0,0,1-.35-0.15,0.52,0.52,0,0,1-.13-0.36,1.35,1.35,0,0,1,.44-1,1.5,1.5,0,0,1,1.09-.42,1.79,1.79,0,0,1,1.25.46,1.55,1.55,0,0,1,.51,1.18,1.43,1.43,0,0,1-.16.67,2.3,2.3,0,0,1-.39.55q-0.23.24-.66,0.6t-0.82.75l-0.49.46h0.62a10,10,0,0,0,1.37,0,2.19,2.19,0,0,0,.2-0.72v0h0.33v0s0,0.26-.11.74a6,6,0,0,1-.12.75v0h-3.05v-0.25a0.21,0.21,0,0,1,0-.12l0.25-.28,0.41-.46,0.28-.3,0.28-.3,0.24-.27,0.23-.28,0.19-.24a1.38,1.38,0,0,0,.17-0.26l0.12-.24a1,1,0,0,0,.11-0.26l0.06-.24a1.28,1.28,0,0,0,0-.27,1.44,1.44,0,0,0-.28-0.89,0.94,0.94,0,0,0-.8-0.37,0.83,0.83,0,0,0-.48.14,1,1,0,0,0-.29.27,0.58,0.58,0,0,0-.08.15h0a0.52,0.52,0,0,1,.3.11,0.43,0.43,0,0,1,.16.37,0.48,0.48,0,0,1-.13.34A0.51,0.51,0,0,1,618.83,215.84Z"/>
    </g>
  </g>
  <g>
    <path d="M572.66,211.15a1,1,0,0,0-.05-0.24,1,1,0,0,0-.25-0.38,0.7,0.7,0,0,0-.5-0.21,1,1,0,0,0-.73.33,2.24,2.24,0,0,0-.54.87,8.49,8.49,0,0,0-.44,1.76v0.12a0.57,0.57,0,0,1,0,.13,0.89,0.89,0,0,0,.2.67,0.7,0.7,0,0,0,.47.19,1.23,1.23,0,0,0,.81-0.35,1.81,1.81,0,0,0,.48-0.55s0.11-.41.29-1.15S572.65,211.2,572.66,211.15ZM569.21,213a3.15,3.15,0,0,1,.82-2.06,2.43,2.43,0,0,1,1.85-1,1.23,1.23,0,0,1,1,.53,0.54,0.54,0,0,1,.5-0.32,0.39,0.39,0,0,1,.25.09,0.26,0.26,0,0,1,.11.21q0,0.14-.4,1.72t-0.41,1.78a0.57,0.57,0,0,0,.08.35,0.32,0.32,0,0,0,.23.1,0.47,0.47,0,0,0,.22-0.1,2.42,2.42,0,0,0,.44-1A0.4,0.4,0,0,1,574,213h0.15q0.21,0,.21.1a1.68,1.68,0,0,1-.05.29,3.34,3.34,0,0,1-.22.58,1.83,1.83,0,0,1-.35.54,1.07,1.07,0,0,1-.35.23l-0.26,0a1.12,1.12,0,0,1-.62-0.16,0.83,0.83,0,0,1-.33-0.33l-0.07-.16h0l0,0a1.91,1.91,0,0,1-1.3.6,1.49,1.49,0,0,1-1.05-.43A1.8,1.8,0,0,1,569.21,213Z"/>
    <path d="M576.68,212.12V212a0.23,0.23,0,0,1,.15-0.21h3.24v-3.22a0.29,0.29,0,0,1,.21-0.14,0.24,0.24,0,0,1,.22.16v3.2h3.23a0.22,0.22,0,0,1,0,.43h-3.23v3.2a0.24,0.24,0,0,1-.2.15h0a0.21,0.21,0,0,1-.2-0.15v-3.2h-3.24a0.23,0.23,0,0,1-.15-0.21v0.14Z"/>
    <path d="M595.46,211.18v-0.06a0.65,0.65,0,0,0-.66-0.79,0.94,0.94,0,0,0-.38.09,1.43,1.43,0,0,0-.36.23l-0.28.26a1.4,1.4,0,0,0-.2.24l-0.07.09-0.23.92a6.11,6.11,0,0,0-.24,1.31,1,1,0,0,0,.26.77,0.59,0.59,0,0,0,.43.17,1.08,1.08,0,0,0,.73-0.34,1.84,1.84,0,0,0,.43-0.6,7.09,7.09,0,0,0,.36-1.13A5.22,5.22,0,0,0,595.46,211.18Zm-2.85-3.45a0.85,0.85,0,0,1,0-.25,0.16,0.16,0,0,1,.13-0.14l0.78-.05,0.79-.06q0.13,0,.13.1t-0.37,1.53l-0.18.75q-0.1.39-.16,0.58l0,0.2s0,0,.07,0a1.73,1.73,0,0,1,1.1-.43,1.34,1.34,0,0,1,1.08.49,1.92,1.92,0,0,1,.42,1.24,3.17,3.17,0,0,1-.86,2.16,2.47,2.47,0,0,1-1.84,1,1.43,1.43,0,0,1-1-.41,1.75,1.75,0,0,1-.46-1.32V213a3.12,3.12,0,0,1,.09-0.62q0.09-.4.53-2.11,0.54-2.11.54-2.24t-0.41-.15h-0.28l-0.08,0A0.07,0.07,0,0,1,592.61,207.72Z"/>
    <g>
      <rect x="585.97" y="211.56" width="5.1" height="0.49"/>
      <path d="M588.21,205.39l-0.11,0-0.33.08a3.83,3.83,0,0,1-.48.06h-0.16v-0.37h0.16a2.7,2.7,0,0,0,.72-0.12,2,2,0,0,0,.46-0.2l0.23-.18a0.13,0.13,0,0,1,.1,0,0.23,0.23,0,0,1,.14,0v4.87l0.1,0.07,0.2,0,0.51,0H590v0.37h-0.09q-0.17,0-1.31,0t-1.29,0h-0.1v-0.37h0.73l0.13,0,0.07,0,0,0,0,0v-4.21Z"/>
      <path d="M587.36,215.48a0.45,0.45,0,0,1-.35-0.15,0.52,0.52,0,0,1-.13-0.36,1.35,1.35,0,0,1,.44-1,1.5,1.5,0,0,1,1.09-.42,1.79,1.79,0,0,1,1.25.46,1.55,1.55,0,0,1,.51,1.18,1.43,1.43,0,0,1-.16.67,2.3,2.3,0,0,1-.39.55q-0.23.24-.66,0.6t-0.82.75l-0.49.46h0.62a10,10,0,0,0,1.37,0,2.19,2.19,0,0,0,.2-0.72v0h0.33v0s0,0.26-.11.74a6,6,0,0,1-.12.75v0h-3.05v-0.25a0.21,0.21,0,0,1,0-.12l0.25-.28,0.41-.46,0.28-.3,0.28-.3,0.24-.27,0.23-.28,0.19-.24a1.38,1.38,0,0,0,.17-0.26l0.12-.24a1,1,0,0,0,.11-0.26l0.06-.24a1.28,1.28,0,0,0,0-.27,1.44,1.44,0,0,0-.28-0.89,0.94,0.94,0,0,0-.8-0.37,0.83,0.83,0,0,0-.48.14,1,1,0,0,0-.29.27,0.58,0.58,0,0,0-.08.15h0a0.52,0.52,0,0,1,.3.11,0.43,0.43,0,0,1,.16.37,0.48,0.48,0,0,1-.13.34A0.51,0.51,0,0,1,587.36,215.48Z"/>
    </g>
  </g>
  <g>
    <path d="M616.53,235.21a1,1,0,0,0-.05-0.24,1,1,0,0,0-.25-0.38,0.7,0.7,0,0,0-.5-0.21,1,1,0,0,0-.73.33,2.24,2.24,0,0,0-.54.87,8.49,8.49,0,0,0-.44,1.76v0.12a0.57,0.57,0,0,1,0,.13,0.89,0.89,0,0,0,.2.67,0.7,0.7,0,0,0,.47.19,1.23,1.23,0,0,0,.81-0.35,1.81,1.81,0,0,0,.48-0.55s0.11-.41.29-1.15S616.52,235.26,616.53,235.21ZM613.08,237a3.15,3.15,0,0,1,.82-2.06,2.43,2.43,0,0,1,1.85-1,1.23,1.23,0,0,1,1,.53,0.54,0.54,0,0,1,.5-0.32,0.39,0.39,0,0,1,.25.09,0.26,0.26,0,0,1,.11.21q0,0.14-.4,1.72T616.78,238a0.57,0.57,0,0,0,.08.35,0.32,0.32,0,0,0,.23.1,0.47,0.47,0,0,0,.22-0.1,2.42,2.42,0,0,0,.44-1,0.4,0.4,0,0,1,.11-0.23H618q0.21,0,.21.1a1.69,1.69,0,0,1-.05.29,3.34,3.34,0,0,1-.22.58,1.83,1.83,0,0,1-.35.54,1.07,1.07,0,0,1-.35.23l-0.26,0a1.12,1.12,0,0,1-.62-0.16,0.83,0.83,0,0,1-.33-0.33l-0.07-.16h0l0,0a1.91,1.91,0,0,1-1.3.6,1.49,1.49,0,0,1-1.05-.43A1.8,1.8,0,0,1,613.08,237Z"/>
    <path d="M619.67,236.18V236a0.23,0.23,0,0,1,.15-0.21h3.24v-3.22a0.29,0.29,0,0,1,.21-0.14,0.24,0.24,0,0,1,.22.16v3.2h3.23a0.22,0.22,0,0,1,0,.43H623.5v3.2a0.24,0.24,0,0,1-.2.15h0a0.21,0.21,0,0,1-.2-0.15v-3.2h-3.24a0.23,0.23,0,0,1-.15-0.21v0.14Z"/>
    <path d="M631.74,235.24v-0.06a0.65,0.65,0,0,0-.66-0.79,0.94,0.94,0,0,0-.38.09,1.43,1.43,0,0,0-.36.23l-0.28.26a1.4,1.4,0,0,0-.2.24l-0.07.09-0.23.92a6.11,6.11,0,0,0-.24,1.31,1,1,0,0,0,.26.77,0.59,0.59,0,0,0,.43.17,1.08,1.08,0,0,0,.73-0.34,1.84,1.84,0,0,0,.43-0.6,7.1,7.1,0,0,0,.36-1.13A5.22,5.22,0,0,0,631.74,235.24Zm-2.85-3.45a0.84,0.84,0,0,1,0-.25,0.16,0.16,0,0,1,.13-0.14l0.78-.05,0.79-.06q0.13,0,.13.1t-0.37,1.53l-0.18.75q-0.1.39-.16,0.58l0,0.2s0,0,.07,0a1.73,1.73,0,0,1,1.1-.43,1.34,1.34,0,0,1,1.08.49,1.92,1.92,0,0,1,.42,1.24,3.17,3.17,0,0,1-.86,2.16,2.47,2.47,0,0,1-1.84,1,1.43,1.43,0,0,1-1-.41,1.75,1.75,0,0,1-.46-1.32V237a3.12,3.12,0,0,1,.09-0.62q0.09-.4.53-2.11,0.54-2.11.54-2.24t-0.41-.15H629l-0.08,0A0.07,0.07,0,0,1,628.89,231.78Z"/>
    <path d="M634,236.18V236a0.23,0.23,0,0,1,.15-0.21h3.24v-3.22a0.29,0.29,0,0,1,.21-0.14,0.24,0.24,0,0,1,.22.16v3.2H641a0.22,0.22,0,0,1,0,.43h-3.23v3.2a0.24,0.24,0,0,1-.2.15h0a0.21,0.21,0,0,1-.2-0.15v-3.2h-3.24A0.23,0.23,0,0,1,634,236v0.14Z"/>
    <path d="M648.58,237a2.91,2.91,0,0,1,.93-2.1,2.82,2.82,0,0,1,2-.93,1.57,1.57,0,0,1,1,.26,0.83,0.83,0,0,1,.36.68,0.74,0.74,0,0,1-.73.75,0.47,0.47,0,0,1-.33-0.11,0.41,0.41,0,0,1-.12-0.32,0.57,0.57,0,0,1,.12-0.36,1,1,0,0,1,.24-0.23,0.27,0.27,0,0,1,.15-0.06h0a0.13,0.13,0,0,0-.07-0.06,0.83,0.83,0,0,0-.23-0.09,1.45,1.45,0,0,0-.37,0,1.34,1.34,0,0,0-.62.15,1.53,1.53,0,0,0-.47.33,2.79,2.79,0,0,0-.69,1.33,6.55,6.55,0,0,0-.23,1.24,0.93,0.93,0,0,0,.28.74,0.82,0.82,0,0,0,.63.26h0a2.54,2.54,0,0,0,2-.91,0.31,0.31,0,0,1,.13-0.11,0.28,0.28,0,0,1,.14.1,0.37,0.37,0,0,1,.11.15,0.23,0.23,0,0,1-.1.16l-0.31.3a1.8,1.8,0,0,1-.49.32q-0.28.13-.69,0.27a2.34,2.34,0,0,1-.87.12,1.74,1.74,0,0,1-1.31-.51A1.84,1.84,0,0,1,648.58,237Z"/>
    <g>
      <rect x="606.2" y="235.68" width="5.1" height="0.49"/>
      <path d="M608.45,229.5l-0.11,0-0.33.08a3.83,3.83,0,0,1-.48.06h-0.16v-0.37h0.16a2.7,2.7,0,0,0,.72-0.12,2,2,0,0,0,.46-0.2l0.23-.18a0.13,0.13,0,0,1,.1,0,0.23,0.23,0,0,1,.14,0v4.87l0.1,0.07,0.2,0,0.51,0h0.21v0.37h-0.09q-0.17,0-1.31,0t-1.29,0h-0.1v-0.37h0.73l0.13,0,0.07,0,0,0,0,0V229.5Z"/>
      <path d="M607.59,239.59a0.45,0.45,0,0,1-.35-0.15,0.52,0.52,0,0,1-.13-0.36,1.35,1.35,0,0,1,.44-1,1.5,1.5,0,0,1,1.09-.42,1.79,1.79,0,0,1,1.25.46,1.55,1.55,0,0,1,.51,1.18,1.43,1.43,0,0,1-.16.67,2.3,2.3,0,0,1-.39.55q-0.23.24-.66,0.6t-0.82.75l-0.49.46h0.62a10,10,0,0,0,1.37,0,2.19,2.19,0,0,0,.2-0.72v0h0.33v0s0,0.26-.11.74a6,6,0,0,1-.12.75v0h-3.05v-0.25a0.21,0.21,0,0,1,0-.12l0.25-.28,0.41-.46,0.28-.3,0.28-.3,0.24-.27,0.23-.28,0.19-.24a1.38,1.38,0,0,0,.17-0.26l0.12-.24a1,1,0,0,0,.11-0.26l0.06-.24a1.28,1.28,0,0,0,0-.27,1.44,1.44,0,0,0-.28-0.89,0.94,0.94,0,0,0-.8-0.37,0.83,0.83,0,0,0-.48.14,1,1,0,0,0-.29.27,0.58,0.58,0,0,0-.08.15h0a0.52,0.52,0,0,1,.3.11,0.43,0.43,0,0,1,.16.37,0.48,0.48,0,0,1-.13.34A0.51,0.51,0,0,1,607.59,239.59Z"/>
    </g>
    <g>
      <rect x="642.51" y="235.68" width="5.1" height="0.49"/>
      <path d="M644.76,229.5l-0.11,0-0.33.08a3.83,3.83,0,0,1-.48.06h-0.16v-0.37h0.16a2.7,2.7,0,0,0,.72-0.12A2,2,0,0,0,645,229l0.23-.18a0.13,0.13,0,0,1,.1,0,0.23,0.23,0,0,1,.14,0v4.87l0.1,0.07,0.2,0,0.51,0h0.21v0.37h-0.09q-0.17,0-1.31,0t-1.29,0h-0.1v-0.37h0.73l0.13,0,0.07,0,0,0,0,0V229.5Z"/>
      <path d="M643.9,239.59a0.45,0.45,0,0,1-.35-0.15,0.52,0.52,0,0,1-.13-0.36,1.35,1.35,0,0,1,.44-1,1.5,1.5,0,0,1,1.09-.42,1.79,1.79,0,0,1,1.25.46,1.55,1.55,0,0,1,.51,1.18,1.43,1.43,0,0,1-.16.67,2.3,2.3,0,0,1-.39.55q-0.23.24-.66,0.6t-0.82.75l-0.49.46h0.62a10,10,0,0,0,1.37,0,2.19,2.19,0,0,0,.2-0.72v0h0.33v0s0,0.26-.11.74a6,6,0,0,1-.12.75v0h-3.05v-0.25a0.21,0.21,0,0,1,0-.12l0.25-.28,0.41-.46,0.28-.3,0.28-.3,0.24-.27,0.23-.28,0.19-.24a1.38,1.38,0,0,0,.17-0.26l0.12-.24a1,1,0,0,0,.11-0.26l0.06-.24a1.28,1.28,0,0,0,0-.27,1.44,1.44,0,0,0-.28-0.89,0.94,0.94,0,0,0-.8-0.37,0.83,0.83,0,0,0-.48.14,1,1,0,0,0-.29.27,0.58,0.58,0,0,0-.08.15h0a0.52,0.52,0,0,1,.3.11,0.43,0.43,0,0,1,.16.37,0.48,0.48,0,0,1-.13.34A0.51,0.51,0,0,1,643.9,239.59Z"/>
    </g>
  </g>
  <g>
    <path d="M676,237.24a2.91,2.91,0,0,1,.93-2.1,2.82,2.82,0,0,1,2-.93,1.57,1.57,0,0,1,1,.26,0.83,0.83,0,0,1,.36.68,0.74,0.74,0,0,1-.73.75,0.47,0.47,0,0,1-.33-0.11,0.41,0.41,0,0,1-.12-0.32,0.57,0.57,0,0,1,.12-0.36,1,1,0,0,1,.24-0.23,0.27,0.27,0,0,1,.15-0.06h0a0.13,0.13,0,0,0-.07-0.06,0.83,0.83,0,0,0-.23-0.09,1.45,1.45,0,0,0-.37,0,1.34,1.34,0,0,0-.62.15,1.53,1.53,0,0,0-.47.33,2.79,2.79,0,0,0-.69,1.33,6.55,6.55,0,0,0-.23,1.24,0.93,0.93,0,0,0,.28.74,0.82,0.82,0,0,0,.63.26h0a2.54,2.54,0,0,0,2-.91,0.31,0.31,0,0,1,.13-0.11,0.28,0.28,0,0,1,.14.1,0.36,0.36,0,0,1,.11.15,0.23,0.23,0,0,1-.1.16l-0.31.3a1.8,1.8,0,0,1-.49.32q-0.28.13-.69,0.27a2.34,2.34,0,0,1-.87.12,1.74,1.74,0,0,1-1.31-.51A1.84,1.84,0,0,1,676,237.24Z"/>
    <g>
      <rect x="670.31" y="236.77" width="5.1" height="0.49"/>
      <path d="M672.55,230.6l-0.11,0-0.33.08a3.83,3.83,0,0,1-.48.06h-0.16V230.4h0.16a2.7,2.7,0,0,0,.72-0.12,2,2,0,0,0,.46-0.2l0.23-.18a0.13,0.13,0,0,1,.1,0,0.23,0.23,0,0,1,.14,0v4.87l0.1,0.07,0.2,0,0.51,0h0.21v0.37h-0.09q-0.17,0-1.31,0t-1.29,0h-0.1v-0.37h0.73l0.13,0,0.07,0,0,0,0,0V230.6Z"/>
      <path d="M671.7,240.69a0.45,0.45,0,0,1-.35-0.15,0.52,0.52,0,0,1-.13-0.36,1.35,1.35,0,0,1,.44-1,1.5,1.5,0,0,1,1.09-.42,1.79,1.79,0,0,1,1.25.46,1.55,1.55,0,0,1,.51,1.18,1.43,1.43,0,0,1-.16.67,2.3,2.3,0,0,1-.39.55q-0.23.24-.66,0.6t-0.82.75l-0.49.46h0.62a10,10,0,0,0,1.37,0,2.19,2.19,0,0,0,.2-0.72v0h0.33v0s0,0.26-.11.74a6,6,0,0,1-.12.75v0h-3.05v-0.25a0.21,0.21,0,0,1,0-.12l0.25-.28,0.41-.46,0.28-.3,0.28-.3,0.24-.27,0.23-.28,0.19-.24a1.38,1.38,0,0,0,.17-0.26l0.12-.24a1,1,0,0,0,.11-0.26l0.06-.24a1.28,1.28,0,0,0,0-.27,1.44,1.44,0,0,0-.28-0.89,0.94,0.94,0,0,0-.8-0.37,0.83,0.83,0,0,0-.48.14,1,1,0,0,0-.29.27,0.58,0.58,0,0,0-.08.15h0a0.52,0.52,0,0,1,.3.11,0.43,0.43,0,0,1,.16.37,0.48,0.48,0,0,1-.13.34A0.51,0.51,0,0,1,671.7,240.69Z"/>
    </g>
  </g>
  <g>
    <path d="M722,283a2.91,2.91,0,0,1,.93-2.1,2.82,2.82,0,0,1,2-.93,1.57,1.57,0,0,1,1,.26,0.83,0.83,0,0,1,.36.68,0.74,0.74,0,0,1-.73.75,0.47,0.47,0,0,1-.33-0.11,0.41,0.41,0,0,1-.12-0.32,0.57,0.57,0,0,1,.12-0.36,1,1,0,0,1,.24-0.23,0.27,0.27,0,0,1,.15-0.06h0a0.13,0.13,0,0,0-.07-0.06,0.83,0.83,0,0,0-.23-0.09,1.45,1.45,0,0,0-.37,0,1.34,1.34,0,0,0-.62.15,1.53,1.53,0,0,0-.47.33,2.79,2.79,0,0,0-.69,1.33,6.55,6.55,0,0,0-.23,1.24,0.93,0.93,0,0,0,.28.74,0.82,0.82,0,0,0,.63.26h0a2.54,2.54,0,0,0,2-.91,0.31,0.31,0,0,1,.13-0.11,0.28,0.28,0,0,1,.14.1,0.36,0.36,0,0,1,.11.15,0.23,0.23,0,0,1-.1.16l-0.31.3a1.8,1.8,0,0,1-.49.32q-0.28.13-.69,0.27a2.34,2.34,0,0,1-.87.12,1.74,1.74,0,0,1-1.31-.51A1.84,1.84,0,0,1,722,283Z"/>
    <g>
      <rect x="716.39" y="282.51" width="5.1" height="0.49"/>
      <path d="M718.63,276.34l-0.11,0-0.33.08a3.83,3.83,0,0,1-.48.06h-0.16v-0.37h0.16a2.7,2.7,0,0,0,.72-0.12,2,2,0,0,0,.46-0.2l0.23-.18a0.13,0.13,0,0,1,.1,0,0.23,0.23,0,0,1,.14,0v4.87l0.1,0.07,0.2,0,0.51,0h0.21V281H720.3q-0.17,0-1.31,0t-1.29,0h-0.1v-0.37h0.73l0.13,0,0.07,0,0,0,0,0v-4.21Z"/>
      <path d="M717.78,286.43a0.45,0.45,0,0,1-.35-0.15,0.52,0.52,0,0,1-.13-0.36,1.35,1.35,0,0,1,.44-1,1.5,1.5,0,0,1,1.09-.42,1.79,1.79,0,0,1,1.25.46,1.55,1.55,0,0,1,.51,1.18,1.43,1.43,0,0,1-.16.67,2.3,2.3,0,0,1-.39.55q-0.23.24-.66,0.6t-0.82.75l-0.49.46h0.62a10,10,0,0,0,1.37,0,2.19,2.19,0,0,0,.2-0.72v0h0.33v0s0,0.26-.11.74a6,6,0,0,1-.12.75v0h-3.05v-0.25a0.21,0.21,0,0,1,0-.12l0.25-.28,0.41-.46,0.28-.3,0.28-.3,0.24-.27,0.23-.28,0.19-.24a1.38,1.38,0,0,0,.17-0.26l0.12-.24a1,1,0,0,0,.11-0.26l0.06-.24a1.28,1.28,0,0,0,0-.27,1.44,1.44,0,0,0-.28-0.89,0.94,0.94,0,0,0-.8-0.37,0.83,0.83,0,0,0-.48.14,1,1,0,0,0-.29.27,0.58,0.58,0,0,0-.08.15h0a0.52,0.52,0,0,1,.3.11,0.43,0.43,0,0,1,.16.37,0.48,0.48,0,0,1-.13.34A0.51,0.51,0,0,1,717.78,286.43Z"/>
    </g>
  </g>
  <g>
    <path d="M570.5,187a1,1,0,0,0-.05-0.24,1,1,0,0,0-.25-0.38,0.7,0.7,0,0,0-.5-0.21,1,1,0,0,0-.73.33,2.24,2.24,0,0,0-.54.87,8.49,8.49,0,0,0-.44,1.76v0.12a0.57,0.57,0,0,1,0,.13,0.89,0.89,0,0,0,.2.67,0.7,0.7,0,0,0,.47.19,1.23,1.23,0,0,0,.81-0.35,1.81,1.81,0,0,0,.48-0.55s0.11-.41.29-1.15S570.5,187.1,570.5,187Zm-3.45,1.83a3.15,3.15,0,0,1,.82-2.06,2.43,2.43,0,0,1,1.85-1,1.23,1.23,0,0,1,1,.53,0.54,0.54,0,0,1,.5-0.32,0.39,0.39,0,0,1,.25.09,0.26,0.26,0,0,1,.11.21q0,0.14-.4,1.72t-0.41,1.78a0.57,0.57,0,0,0,.08.35,0.32,0.32,0,0,0,.23.1,0.47,0.47,0,0,0,.22-0.1,2.42,2.42,0,0,0,.44-1,0.4,0.4,0,0,1,.11-0.23H572q0.21,0,.21.1a1.69,1.69,0,0,1-.05.29,3.34,3.34,0,0,1-.22.58,1.83,1.83,0,0,1-.35.54,1.07,1.07,0,0,1-.35.23l-0.26,0a1.12,1.12,0,0,1-.62-0.16,0.83,0.83,0,0,1-.33-0.33L570,190h0l0,0a1.91,1.91,0,0,1-1.3.6,1.49,1.49,0,0,1-1.05-.43A1.8,1.8,0,0,1,567.06,188.88Z"/>
    <path d="M573.65,188v-0.14a0.23,0.23,0,0,1,.15-0.21H577v-3.22a0.29,0.29,0,0,1,.21-0.14,0.24,0.24,0,0,1,.22.16v3.2h3.23a0.22,0.22,0,0,1,0,.43h-3.23v3.2a0.24,0.24,0,0,1-.2.15h0a0.21,0.21,0,0,1-.2-0.15v-3.2H573.8a0.23,0.23,0,0,1-.15-0.21V188Z"/>
    <path d="M585.72,187.08V187a0.65,0.65,0,0,0-.66-0.79,0.94,0.94,0,0,0-.38.09,1.43,1.43,0,0,0-.36.23l-0.28.26a1.4,1.4,0,0,0-.2.24l-0.07.09-0.23.92a6.11,6.11,0,0,0-.24,1.31,1,1,0,0,0,.26.77,0.59,0.59,0,0,0,.43.17,1.08,1.08,0,0,0,.73-0.34,1.84,1.84,0,0,0,.43-0.6,7.1,7.1,0,0,0,.36-1.13A5.22,5.22,0,0,0,585.72,187.08Zm-2.85-3.45a0.84,0.84,0,0,1,0-.25,0.16,0.16,0,0,1,.13-0.14l0.78-.05,0.79-.06q0.13,0,.13.1t-0.37,1.53l-0.18.75q-0.1.39-.16,0.58l0,0.2s0,0,.07,0a1.73,1.73,0,0,1,1.1-.43,1.34,1.34,0,0,1,1.08.49,1.92,1.92,0,0,1,.42,1.24,3.17,3.17,0,0,1-.86,2.16,2.47,2.47,0,0,1-1.84,1,1.43,1.43,0,0,1-1-.41,1.75,1.75,0,0,1-.46-1.32v-0.1a3.12,3.12,0,0,1,.09-0.62q0.09-.4.53-2.11,0.54-2.11.54-2.24t-0.41-.15H583l-0.08,0A0.07,0.07,0,0,1,582.87,183.62Z"/>
    <path d="M587.94,188v-0.14a0.23,0.23,0,0,1,.15-0.21h3.24v-3.22a0.29,0.29,0,0,1,.21-0.14,0.24,0.24,0,0,1,.22.16v3.2H595a0.22,0.22,0,0,1,0,.43h-3.23v3.2a0.24,0.24,0,0,1-.2.15h0a0.21,0.21,0,0,1-.2-0.15v-3.2h-3.24a0.23,0.23,0,0,1-.15-0.21V188Z"/>
    <path d="M602.56,188.86a2.91,2.91,0,0,1,.93-2.1,2.82,2.82,0,0,1,2-.93,1.57,1.57,0,0,1,1,.26,0.83,0.83,0,0,1,.36.68,0.74,0.74,0,0,1-.73.75,0.47,0.47,0,0,1-.33-0.11,0.41,0.41,0,0,1-.12-0.32,0.57,0.57,0,0,1,.12-0.36,1,1,0,0,1,.24-0.23,0.27,0.27,0,0,1,.15-0.06h0a0.13,0.13,0,0,0-.07-0.06,0.83,0.83,0,0,0-.23-0.09,1.45,1.45,0,0,0-.37,0,1.34,1.34,0,0,0-.62.15,1.53,1.53,0,0,0-.47.33,2.79,2.79,0,0,0-.69,1.33,6.55,6.55,0,0,0-.23,1.24,0.93,0.93,0,0,0,.28.74,0.82,0.82,0,0,0,.63.26h0a2.54,2.54,0,0,0,2-.91,0.31,0.31,0,0,1,.13-0.11,0.28,0.28,0,0,1,.14.1,0.37,0.37,0,0,1,.11.15,0.23,0.23,0,0,1-.1.16l-0.31.3a1.8,1.8,0,0,1-.49.32q-0.28.13-.69,0.27a2.34,2.34,0,0,1-.87.12,1.74,1.74,0,0,1-1.31-.51A1.84,1.84,0,0,1,602.56,188.86Z"/>
    <g>
      <rect x="560.18" y="187.51" width="5.1" height="0.49"/>
      <path d="M562.42,181.34l-0.11,0-0.33.08a3.83,3.83,0,0,1-.48.06h-0.16v-0.37h0.16a2.7,2.7,0,0,0,.72-0.12,2,2,0,0,0,.46-0.2l0.23-.18a0.13,0.13,0,0,1,.1,0,0.23,0.23,0,0,1,.14,0v4.87l0.1,0.07,0.2,0,0.51,0h0.21V186h-0.09q-0.17,0-1.31,0t-1.29,0h-0.1v-0.37h0.73l0.13,0,0.07,0,0,0,0,0v-4.21Z"/>
      <path d="M561.57,191.43a0.45,0.45,0,0,1-.35-0.15,0.52,0.52,0,0,1-.13-0.36,1.35,1.35,0,0,1,.44-1,1.5,1.5,0,0,1,1.09-.42,1.79,1.79,0,0,1,1.25.46,1.55,1.55,0,0,1,.51,1.18,1.43,1.43,0,0,1-.16.67,2.3,2.3,0,0,1-.39.55q-0.23.24-.66,0.6t-0.82.75l-0.49.46h0.62a10,10,0,0,0,1.37,0,2.19,2.19,0,0,0,.2-0.72v0h0.33v0s0,0.26-.11.74a6,6,0,0,1-.12.75v0h-3.05v-0.25a0.21,0.21,0,0,1,0-.12l0.25-.28,0.41-.46,0.28-.3,0.28-.3,0.24-.27,0.23-.28,0.19-.24a1.38,1.38,0,0,0,.17-0.26l0.12-.24a1,1,0,0,0,.11-0.26l0.06-.24a1.28,1.28,0,0,0,0-.27,1.44,1.44,0,0,0-.28-0.89,0.94,0.94,0,0,0-.8-0.37,0.83,0.83,0,0,0-.48.14,1,1,0,0,0-.29.27,0.58,0.58,0,0,0-.08.15h0a0.52,0.52,0,0,1,.3.11,0.43,0.43,0,0,1,.16.37,0.48,0.48,0,0,1-.13.34A0.51,0.51,0,0,1,561.57,191.43Z"/>
    </g>
    <g>
      <rect x="596.49" y="187.51" width="5.1" height="0.49"/>
      <path d="M598.73,181.34l-0.11,0-0.33.08a3.83,3.83,0,0,1-.48.06h-0.16v-0.37h0.16a2.7,2.7,0,0,0,.72-0.12,2,2,0,0,0,.46-0.2l0.23-.18a0.13,0.13,0,0,1,.1,0,0.23,0.23,0,0,1,.14,0v4.87l0.1,0.07,0.2,0,0.51,0h0.21V186H600.4q-0.17,0-1.31,0t-1.29,0h-0.1v-0.37h0.73l0.13,0,0.07,0,0,0,0,0v-4.21Z"/>
      <path d="M597.87,191.43a0.45,0.45,0,0,1-.35-0.15,0.52,0.52,0,0,1-.13-0.36,1.35,1.35,0,0,1,.44-1,1.5,1.5,0,0,1,1.09-.42,1.79,1.79,0,0,1,1.25.46,1.55,1.55,0,0,1,.51,1.18,1.43,1.43,0,0,1-.16.67,2.3,2.3,0,0,1-.39.55q-0.23.24-.66,0.6t-0.82.75l-0.49.46h0.62a10,10,0,0,0,1.37,0,2.19,2.19,0,0,0,.2-0.72v0h0.33v0s0,0.26-.11.74a6,6,0,0,1-.12.75v0h-3.05v-0.25a0.21,0.21,0,0,1,0-.12l0.25-.28,0.41-.46,0.28-.3,0.28-.3,0.24-.27,0.23-.28,0.19-.24a1.38,1.38,0,0,0,.17-0.26l0.12-.24a1,1,0,0,0,.11-0.26l0.06-.24a1.28,1.28,0,0,0,0-.27,1.44,1.44,0,0,0-.28-0.89,0.94,0.94,0,0,0-.8-0.37,0.83,0.83,0,0,0-.48.14,1,1,0,0,0-.29.27,0.58,0.58,0,0,0-.08.15h0a0.52,0.52,0,0,1,.3.11,0.43,0.43,0,0,1,.16.37,0.48,0.48,0,0,1-.13.34A0.51,0.51,0,0,1,597.87,191.43Z"/>
    </g>
  </g>
  <g>
    <path d="M629.93,189.08a2.91,2.91,0,0,1,.93-2.1,2.82,2.82,0,0,1,2-.93,1.57,1.57,0,0,1,1,.26,0.83,0.83,0,0,1,.36.68,0.74,0.74,0,0,1-.73.75,0.47,0.47,0,0,1-.33-0.11,0.41,0.41,0,0,1-.12-0.32,0.57,0.57,0,0,1,.12-0.36,1,1,0,0,1,.24-0.23,0.27,0.27,0,0,1,.15-0.06h0a0.13,0.13,0,0,0-.07-0.06,0.83,0.83,0,0,0-.23-0.09,1.45,1.45,0,0,0-.37,0,1.34,1.34,0,0,0-.62.15,1.53,1.53,0,0,0-.47.33,2.79,2.79,0,0,0-.69,1.33,6.55,6.55,0,0,0-.23,1.24,0.93,0.93,0,0,0,.28.74,0.82,0.82,0,0,0,.63.26h0a2.54,2.54,0,0,0,2-.91,0.31,0.31,0,0,1,.13-0.11,0.28,0.28,0,0,1,.14.1,0.36,0.36,0,0,1,.11.15,0.23,0.23,0,0,1-.1.16l-0.31.3a1.8,1.8,0,0,1-.49.32q-0.28.13-.69,0.27a2.34,2.34,0,0,1-.87.12,1.74,1.74,0,0,1-1.31-.51A1.84,1.84,0,0,1,629.93,189.08Z"/>
    <g>
      <rect x="624.28" y="188.61" width="5.1" height="0.49"/>
      <path d="M626.53,182.43l-0.11,0-0.33.08a3.83,3.83,0,0,1-.48.06h-0.16v-0.37h0.16a2.7,2.7,0,0,0,.72-0.12,2,2,0,0,0,.46-0.2l0.23-.18a0.13,0.13,0,0,1,.1,0,0.23,0.23,0,0,1,.14,0v4.87l0.1,0.07,0.2,0,0.51,0h0.21v0.37H628.2q-0.17,0-1.31,0t-1.29,0h-0.1v-0.37h0.73l0.13,0,0.07,0,0,0,0,0v-4.21Z"/>
      <path d="M625.67,192.52a0.45,0.45,0,0,1-.35-0.15,0.52,0.52,0,0,1-.13-0.36,1.35,1.35,0,0,1,.44-1,1.5,1.5,0,0,1,1.09-.42,1.79,1.79,0,0,1,1.25.46,1.55,1.55,0,0,1,.51,1.18,1.43,1.43,0,0,1-.16.67,2.3,2.3,0,0,1-.39.55q-0.23.24-.66,0.6t-0.82.75l-0.49.46h0.62a10,10,0,0,0,1.37,0,2.19,2.19,0,0,0,.2-0.72v0h0.33v0s0,0.26-.11.74a6,6,0,0,1-.12.75v0h-3.05v-0.25a0.21,0.21,0,0,1,0-.12l0.25-.28,0.41-.46,0.28-.3,0.28-.3,0.24-.27,0.23-.28,0.19-.24a1.38,1.38,0,0,0,.17-0.26l0.12-.24a1,1,0,0,0,.11-0.26l0.06-.24a1.28,1.28,0,0,0,0-.27,1.44,1.44,0,0,0-.28-0.89,0.94,0.94,0,0,0-.8-0.37,0.83,0.83,0,0,0-.48.14,1,1,0,0,0-.29.27,0.58,0.58,0,0,0-.08.15h0a0.52,0.52,0,0,1,.3.11,0.43,0.43,0,0,1,.16.37,0.48,0.48,0,0,1-.13.34A0.51,0.51,0,0,1,625.67,192.52Z"/>
    </g>
  </g>
  <g>
    <path d="M539.94,186.62a1,1,0,0,0-.05-0.24,1,1,0,0,0-.25-0.38,0.7,0.7,0,0,0-.5-0.21,1,1,0,0,0-.73.33,2.24,2.24,0,0,0-.54.87,8.49,8.49,0,0,0-.44,1.76v0.12a0.56,0.56,0,0,1,0,.13,0.89,0.89,0,0,0,.2.67,0.7,0.7,0,0,0,.47.19,1.23,1.23,0,0,0,.81-0.35,1.81,1.81,0,0,0,.48-0.55s0.11-.41.29-1.15S539.93,186.68,539.94,186.62Zm-3.45,1.83a3.15,3.15,0,0,1,.82-2.06,2.43,2.43,0,0,1,1.85-1,1.23,1.23,0,0,1,1,.53,0.54,0.54,0,0,1,.5-0.32,0.39,0.39,0,0,1,.25.09,0.26,0.26,0,0,1,.11.21q0,0.14-.4,1.72t-0.41,1.78a0.57,0.57,0,0,0,.08.35,0.32,0.32,0,0,0,.23.1,0.47,0.47,0,0,0,.22-0.1,2.42,2.42,0,0,0,.44-1,0.4,0.4,0,0,1,.11-0.23h0.15q0.21,0,.21.1a1.69,1.69,0,0,1-.05.29,3.34,3.34,0,0,1-.22.58,1.83,1.83,0,0,1-.35.54,1.07,1.07,0,0,1-.35.23l-0.26,0a1.12,1.12,0,0,1-.62-0.16,0.83,0.83,0,0,1-.33-0.33l-0.07-.16h0l0,0a1.91,1.91,0,0,1-1.3.6,1.49,1.49,0,0,1-1.05-.43A1.8,1.8,0,0,1,536.49,188.45Z"/>
    <g>
      <rect x="530.13" y="187.09" width="5.1" height="0.49"/>
      <path d="M532.37,180.92l-0.11,0-0.33.08a3.83,3.83,0,0,1-.48.06H531.3v-0.37h0.16a2.7,2.7,0,0,0,.72-0.12,2,2,0,0,0,.46-0.2l0.23-.18a0.13,0.13,0,0,1,.1,0,0.23,0.23,0,0,1,.14,0v4.87l0.1,0.07,0.2,0,0.51,0h0.21v0.37H534q-0.17,0-1.31,0t-1.29,0h-0.1v-0.37h0.73l0.13,0,0.07,0,0,0,0,0v-4.21Z"/>
      <path d="M531.52,191a0.45,0.45,0,0,1-.35-0.15,0.52,0.52,0,0,1-.13-0.36,1.35,1.35,0,0,1,.44-1,1.5,1.5,0,0,1,1.09-.42,1.79,1.79,0,0,1,1.25.46,1.55,1.55,0,0,1,.51,1.18,1.43,1.43,0,0,1-.16.67,2.3,2.3,0,0,1-.39.55q-0.23.24-.66,0.6t-0.82.75l-0.49.46h0.62a10,10,0,0,0,1.37,0A2.19,2.19,0,0,0,534,193v0h0.33v0s0,0.26-.11.74a6,6,0,0,1-.12.75v0H531v-0.25a0.21,0.21,0,0,1,0-.12l0.25-.28,0.41-.46,0.28-.3,0.28-.3,0.24-.27,0.23-.28L533,192a1.38,1.38,0,0,0,.17-0.26l0.12-.24a1,1,0,0,0,.11-0.26l0.06-.24a1.28,1.28,0,0,0,0-.27,1.44,1.44,0,0,0-.28-0.89,0.94,0.94,0,0,0-.8-0.37,0.83,0.83,0,0,0-.48.14,1,1,0,0,0-.29.27,0.58,0.58,0,0,0-.08.15h0a0.52,0.52,0,0,1,.3.11,0.43,0.43,0,0,1,.16.37,0.48,0.48,0,0,1-.13.34A0.51,0.51,0,0,1,531.52,191Z"/>
    </g>
  </g>
  <g>
    <path d="M662.72,283a1,1,0,0,0-.05-0.24,1,1,0,0,0-.25-0.38,0.7,0.7,0,0,0-.5-0.21,1,1,0,0,0-.73.33,2.24,2.24,0,0,0-.54.87,8.49,8.49,0,0,0-.44,1.76v0.12a0.57,0.57,0,0,1,0,.13,0.89,0.89,0,0,0,.2.67,0.7,0.7,0,0,0,.47.19,1.23,1.23,0,0,0,.81-0.35,1.81,1.81,0,0,0,.48-0.55s0.11-.41.29-1.15S662.71,283.09,662.72,283Zm-3.45,1.83a3.15,3.15,0,0,1,.82-2.06,2.43,2.43,0,0,1,1.85-1,1.23,1.23,0,0,1,1,.53,0.54,0.54,0,0,1,.5-0.32,0.39,0.39,0,0,1,.25.09,0.26,0.26,0,0,1,.11.21q0,0.14-.4,1.72T663,285.82a0.57,0.57,0,0,0,.08.35,0.32,0.32,0,0,0,.23.1,0.47,0.47,0,0,0,.22-0.1,2.42,2.42,0,0,0,.44-1,0.4,0.4,0,0,1,.11-0.23h0.15q0.21,0,.21.1a1.69,1.69,0,0,1-.05.29,3.34,3.34,0,0,1-.22.58,1.83,1.83,0,0,1-.35.54,1.07,1.07,0,0,1-.35.23l-0.26,0a1.12,1.12,0,0,1-.62-0.16,0.83,0.83,0,0,1-.33-0.33l-0.07-.16h0l0,0a1.91,1.91,0,0,1-1.3.6,1.49,1.49,0,0,1-1.05-.43A1.8,1.8,0,0,1,659.27,284.86Z"/>
    <path d="M665.86,284v-0.14a0.23,0.23,0,0,1,.15-0.21h3.24v-3.22a0.29,0.29,0,0,1,.21-0.14,0.24,0.24,0,0,1,.22.16v3.2h3.23a0.22,0.22,0,0,1,0,.43h-3.23v3.2a0.24,0.24,0,0,1-.2.15h0a0.21,0.21,0,0,1-.2-0.15v-3.2H666a0.23,0.23,0,0,1-.15-0.21V284Z"/>
    <path d="M677.93,283.06V283a0.65,0.65,0,0,0-.66-0.79,0.94,0.94,0,0,0-.38.09,1.43,1.43,0,0,0-.36.23l-0.28.26a1.4,1.4,0,0,0-.2.24l-0.07.09-0.23.92a6.11,6.11,0,0,0-.24,1.31,1,1,0,0,0,.26.77,0.59,0.59,0,0,0,.43.17,1.08,1.08,0,0,0,.73-0.34,1.84,1.84,0,0,0,.43-0.6,7.1,7.1,0,0,0,.36-1.13A5.22,5.22,0,0,0,677.93,283.06Zm-2.85-3.45a0.84,0.84,0,0,1,0-.25,0.16,0.16,0,0,1,.13-0.14l0.78-.05,0.79-.06q0.13,0,.13.1t-0.37,1.53l-0.18.75q-0.1.39-.16,0.58l0,0.2s0,0,.07,0a1.73,1.73,0,0,1,1.1-.43,1.34,1.34,0,0,1,1.08.49,1.92,1.92,0,0,1,.42,1.24,3.17,3.17,0,0,1-.86,2.16,2.47,2.47,0,0,1-1.84,1,1.43,1.43,0,0,1-1-.41,1.75,1.75,0,0,1-.46-1.32v-0.1a3.12,3.12,0,0,1,.09-0.62q0.09-.4.53-2.11,0.54-2.11.54-2.24t-0.41-.15h-0.28l-0.08,0A0.07,0.07,0,0,1,675.08,279.61Z"/>
    <path d="M680.15,284v-0.14a0.23,0.23,0,0,1,.15-0.21h3.24v-3.22a0.29,0.29,0,0,1,.21-0.14,0.24,0.24,0,0,1,.22.16v3.2h3.23a0.22,0.22,0,0,1,0,.43H684v3.2a0.24,0.24,0,0,1-.2.15h0a0.21,0.21,0,0,1-.2-0.15v-3.2h-3.24a0.23,0.23,0,0,1-.15-0.21V284Z"/>
    <path d="M694.77,284.84a2.91,2.91,0,0,1,.93-2.1,2.82,2.82,0,0,1,2-.93,1.57,1.57,0,0,1,1,.26,0.83,0.83,0,0,1,.36.68,0.74,0.74,0,0,1-.73.75,0.47,0.47,0,0,1-.33-0.11,0.41,0.41,0,0,1-.12-0.32,0.57,0.57,0,0,1,.12-0.36,1,1,0,0,1,.24-0.23,0.27,0.27,0,0,1,.15-0.06h0a0.13,0.13,0,0,0-.07-0.06,0.83,0.83,0,0,0-.23-0.09,1.45,1.45,0,0,0-.37,0,1.34,1.34,0,0,0-.62.15,1.53,1.53,0,0,0-.47.33,2.79,2.79,0,0,0-.69,1.33,6.55,6.55,0,0,0-.23,1.24,0.93,0.93,0,0,0,.28.74,0.82,0.82,0,0,0,.63.26h0a2.54,2.54,0,0,0,2-.91,0.31,0.31,0,0,1,.13-0.11,0.28,0.28,0,0,1,.14.1,0.37,0.37,0,0,1,.11.15,0.23,0.23,0,0,1-.1.16l-0.31.3a1.8,1.8,0,0,1-.49.32q-0.28.13-.69,0.27a2.34,2.34,0,0,1-.87.12,1.74,1.74,0,0,1-1.31-.51A1.84,1.84,0,0,1,694.77,284.84Z"/>
    <g>
      <rect x="652.39" y="283.5" width="5.1" height="0.49"/>
      <path d="M654.64,277.33l-0.11,0-0.33.08a3.83,3.83,0,0,1-.48.06h-0.16v-0.37h0.16a2.7,2.7,0,0,0,.72-0.12,2,2,0,0,0,.46-0.2l0.23-.18a0.13,0.13,0,0,1,.1,0,0.23,0.23,0,0,1,.14,0v4.87l0.1,0.07,0.2,0,0.51,0h0.21V282h-0.09q-0.17,0-1.31,0t-1.29,0h-0.1v-0.37h0.73l0.13,0,0.07,0,0,0,0,0v-4.21Z"/>
      <path d="M653.78,287.42a0.45,0.45,0,0,1-.35-0.15,0.52,0.52,0,0,1-.13-0.36,1.35,1.35,0,0,1,.44-1,1.5,1.5,0,0,1,1.09-.42,1.79,1.79,0,0,1,1.25.46,1.55,1.55,0,0,1,.51,1.18,1.43,1.43,0,0,1-.16.67,2.3,2.3,0,0,1-.39.55q-0.23.24-.66,0.6t-0.82.75l-0.49.46h0.62a10,10,0,0,0,1.37,0,2.19,2.19,0,0,0,.2-0.72v0h0.33v0s0,0.26-.11.74a6,6,0,0,1-.12.75v0H653.3v-0.25a0.21,0.21,0,0,1,0-.12l0.25-.28,0.41-.46,0.28-.3,0.28-.3,0.24-.27,0.23-.28,0.19-.24a1.38,1.38,0,0,0,.17-0.26l0.12-.24a1,1,0,0,0,.11-0.26l0.06-.24a1.28,1.28,0,0,0,0-.27,1.44,1.44,0,0,0-.28-0.89,0.94,0.94,0,0,0-.8-0.37,0.83,0.83,0,0,0-.48.14,1,1,0,0,0-.29.27,0.58,0.58,0,0,0-.08.15h0a0.52,0.52,0,0,1,.3.11,0.43,0.43,0,0,1,.16.37,0.48,0.48,0,0,1-.13.34A0.51,0.51,0,0,1,653.78,287.42Z"/>
    </g>
    <g>
      <rect x="688.7" y="283.5" width="5.1" height="0.49"/>
      <path d="M690.94,277.33l-0.11,0-0.33.08a3.83,3.83,0,0,1-.48.06h-0.16v-0.37H690a2.7,2.7,0,0,0,.72-0.12,2,2,0,0,0,.46-0.2l0.23-.18a0.13,0.13,0,0,1,.1,0,0.23,0.23,0,0,1,.14,0v4.87l0.1,0.07,0.2,0,0.51,0h0.21V282h-0.09q-0.17,0-1.31,0T690,282h-0.1v-0.37h0.73l0.13,0,0.07,0,0,0,0,0v-4.21Z"/>
      <path d="M690.09,287.42a0.45,0.45,0,0,1-.35-0.15,0.52,0.52,0,0,1-.13-0.36,1.35,1.35,0,0,1,.44-1,1.5,1.5,0,0,1,1.09-.42,1.79,1.79,0,0,1,1.25.46,1.55,1.55,0,0,1,.51,1.18,1.43,1.43,0,0,1-.16.67,2.3,2.3,0,0,1-.39.55q-0.23.24-.66,0.6t-0.82.75l-0.49.46H691a10,10,0,0,0,1.37,0,2.19,2.19,0,0,0,.2-0.72v0h0.33v0s0,0.26-.11.74a6,6,0,0,1-.12.75v0H689.6v-0.25a0.21,0.21,0,0,1,0-.12l0.25-.28,0.41-.46,0.28-.3,0.28-.3,0.24-.27,0.23-.28,0.19-.24a1.38,1.38,0,0,0,.17-0.26l0.12-.24a1,1,0,0,0,.11-0.26l0.06-.24a1.28,1.28,0,0,0,0-.27,1.44,1.44,0,0,0-.28-0.89,0.94,0.94,0,0,0-.8-0.37,0.83,0.83,0,0,0-.48.14,1,1,0,0,0-.29.27,0.58,0.58,0,0,0-.08.15h0a0.52,0.52,0,0,1,.3.11,0.43,0.43,0,0,1,.16.37,0.48,0.48,0,0,1-.13.34A0.51,0.51,0,0,1,690.09,287.42Z"/>
    </g>
  </g>
  <g>
    <path d="M633.84,283a1,1,0,0,0-.05-0.24,1,1,0,0,0-.25-0.38,0.7,0.7,0,0,0-.5-0.21,1,1,0,0,0-.73.33,2.24,2.24,0,0,0-.54.87,8.49,8.49,0,0,0-.44,1.76v0.12a0.56,0.56,0,0,1,0,.13,0.89,0.89,0,0,0,.2.67,0.7,0.7,0,0,0,.47.19,1.23,1.23,0,0,0,.81-0.35,1.81,1.81,0,0,0,.48-0.55s0.11-.41.29-1.15S633.84,283.09,633.84,283Zm-3.45,1.83a3.15,3.15,0,0,1,.82-2.06,2.43,2.43,0,0,1,1.85-1,1.23,1.23,0,0,1,1,.53,0.54,0.54,0,0,1,.5-0.32,0.39,0.39,0,0,1,.25.09,0.26,0.26,0,0,1,.11.21q0,0.14-.4,1.72t-0.41,1.78a0.57,0.57,0,0,0,.08.35,0.32,0.32,0,0,0,.23.1,0.47,0.47,0,0,0,.22-0.1,2.42,2.42,0,0,0,.44-1,0.4,0.4,0,0,1,.11-0.23h0.15q0.21,0,.21.1a1.69,1.69,0,0,1-.05.29,3.34,3.34,0,0,1-.22.58,1.83,1.83,0,0,1-.35.54,1.07,1.07,0,0,1-.35.23l-0.26,0a1.12,1.12,0,0,1-.62-0.16,0.83,0.83,0,0,1-.33-0.33l-0.07-.16h0l0,0a1.91,1.91,0,0,1-1.3.6,1.49,1.49,0,0,1-1.05-.43A1.8,1.8,0,0,1,630.4,284.86Z"/>
    <g>
      <rect x="624.04" y="283.5" width="5.1" height="0.49"/>
      <path d="M626.28,277.33l-0.11,0-0.33.08a3.83,3.83,0,0,1-.48.06h-0.16v-0.37h0.16a2.7,2.7,0,0,0,.72-0.12,2,2,0,0,0,.46-0.2l0.23-.18a0.13,0.13,0,0,1,.1,0,0.23,0.23,0,0,1,.14,0v4.87l0.1,0.07,0.2,0,0.51,0H628V282h-0.09q-0.17,0-1.31,0t-1.29,0h-0.1v-0.37H626l0.13,0,0.07,0,0,0,0,0v-4.21Z"/>
      <path d="M625.42,287.42a0.45,0.45,0,0,1-.35-0.15,0.52,0.52,0,0,1-.13-0.36,1.35,1.35,0,0,1,.44-1,1.5,1.5,0,0,1,1.09-.42,1.79,1.79,0,0,1,1.25.46,1.55,1.55,0,0,1,.51,1.18,1.43,1.43,0,0,1-.16.67,2.3,2.3,0,0,1-.39.55q-0.23.24-.66,0.6t-0.82.75l-0.49.46h0.62a10,10,0,0,0,1.37,0,2.19,2.19,0,0,0,.2-0.72v0h0.33v0s0,0.26-.11.74a6,6,0,0,1-.12.75v0h-3.05v-0.25a0.21,0.21,0,0,1,0-.12l0.25-.28,0.41-.46,0.28-.3,0.28-.3,0.24-.27,0.23-.28,0.19-.24a1.38,1.38,0,0,0,.17-0.26l0.12-.24a1,1,0,0,0,.11-0.26l0.06-.24a1.28,1.28,0,0,0,0-.27,1.44,1.44,0,0,0-.28-0.89,0.94,0.94,0,0,0-.8-0.37,0.83,0.83,0,0,0-.48.14,1,1,0,0,0-.29.27,0.58,0.58,0,0,0-.08.15h0a0.52,0.52,0,0,1,.3.11,0.43,0.43,0,0,1,.16.37,0.48,0.48,0,0,1-.13.34A0.51,0.51,0,0,1,625.42,287.42Z"/>
    </g>
  </g>
  <line x1="258" y1="1" x2="258" y2="331" fill="none" stroke="#8d8d8d" stroke-miterlimit="10" stroke-width="0.25"/>
</svg>
