<svg id="text" xmlns="http://www.w3.org/2000/svg" width="984" height="290.16" viewBox="0 0 984 290.16">
  <title>upsample</title>
  <g>
    <polygon points="114 32.76 84 104.76 174 104.76 144 32.76 114 32.76" fill="#2c3e98" stroke="#2c3e98" stroke-miterlimit="10" opacity="0.4"/>
    <polygon points="174 32.76 144 104.76 234 104.76 204 32.76 174 32.76" fill="#2c3e98" stroke="#2c3e98" stroke-miterlimit="10" opacity="0.4"/>
    <polygon points="294 32.76 264 104.76 324 104.76 324 32.76 294 32.76" fill="#2c3e98" stroke="#2c3e98" stroke-miterlimit="10" opacity="0.4"/>
    <polygon points="54 32.76 54 104.76 114 104.76 84 32.76 54 32.76" fill="#2c3e98" stroke="#2c3e98" stroke-miterlimit="10" opacity="0.4"/>
    <rect x="54" y="2.76" width="30.33" height="29.92" fill="#727273" stroke="#231f20" stroke-miterlimit="10"/>
    <rect x="84.33" y="2.76" width="29.92" height="29.92" fill="#f2f2f2" stroke="#231f20" stroke-miterlimit="10"/>
    <rect x="114.25" y="2.76" width="29.92" height="29.92" fill="#727273" stroke="#231f20" stroke-miterlimit="10"/>
    <rect x="144.17" y="2.76" width="29.92" height="29.92" fill="#f2f2f2" stroke="#231f20" stroke-miterlimit="10"/>
    <rect x="174.08" y="2.76" width="29.92" height="29.92" fill="#727273" stroke="#231f20" stroke-miterlimit="10"/>
    <rect x="204" y="2.76" width="29.92" height="29.92" fill="#f2f2f2" stroke="#231f20" stroke-miterlimit="10"/>
    <rect x="293.92" y="2.76" width="30.08" height="29.92" fill="#727273" stroke="#231f20" stroke-miterlimit="10"/>
    <rect x="54" y="104.76" width="30.33" height="29.92" fill="silver" stroke="#231f20" stroke-miterlimit="10"/>
    <rect x="84.33" y="104.76" width="29.92" height="29.92" fill="#727273" stroke="#231f20" stroke-miterlimit="10"/>
    <rect x="114.25" y="104.76" width="29.92" height="29.92" fill="silver" stroke="#231f20" stroke-miterlimit="10"/>
    <rect x="144.17" y="104.76" width="29.92" height="29.92" fill="#727273" stroke="#231f20" stroke-miterlimit="10"/>
    <rect x="174.08" y="104.76" width="29.92" height="29.92" fill="silver" stroke="#231f20" stroke-miterlimit="10"/>
    <rect x="204" y="104.76" width="29.92" height="29.92" fill="#727273" stroke="#231f20" stroke-miterlimit="10"/>
    <polygon points="234 32.76 204 104.76 294 104.76 264 32.76 234 32.76" fill="#2c3e98" stroke="#2c3e98" stroke-miterlimit="10" opacity="0.4"/>
    <rect x="234.08" y="2.76" width="29.92" height="29.92" fill="#727273" stroke="#231f20" stroke-miterlimit="10"/>
    <rect x="264" y="2.76" width="29.92" height="29.92" fill="#f2f2f2" stroke="#231f20" stroke-miterlimit="10"/>
    <rect x="234.08" y="104.76" width="29.92" height="29.92" fill="silver" stroke="#231f20" stroke-miterlimit="10"/>
    <rect x="264" y="104.76" width="29.92" height="29.92" fill="#727273" stroke="#231f20" stroke-miterlimit="10"/>
    <rect x="293.92" y="104.76" width="30.08" height="29.92" fill="silver" stroke="#231f20" stroke-miterlimit="10"/>
  </g>
  <g>
    <polygon points="357 181.07 357 151.76 362.78 151.76 362.78 153.13 358.4 153.13 358.4 181.07 357 181.07"/>
    <rect x="357" y="180.26" width="1.4" height="65.18"/>
    <polygon points="357 262.22 357 244.62 358.4 244.62 358.4 260.85 362.78 260.85 362.78 262.22 357 262.22"/>
  </g>
  <g>
    <polygon points="621 153.13 621 151.76 626.78 151.76 626.78 181.07 625.38 181.07 625.38 153.13 621 153.13"/>
    <rect x="625.38" y="180.26" width="1.4" height="65.18"/>
    <polygon points="625.38 260.85 625.38 244.62 626.78 244.62 626.78 262.22 621 262.22 621 260.85 625.38 260.85"/>
  </g>
  <path d="M487.6,164.62a4.75,4.75,0,0,1,4.39-4.47,2.36,2.36,0,0,1,1.42.38,1.22,1.22,0,0,1,.53,1,1.07,1.07,0,0,1-.31.77,1.09,1.09,0,0,1-.78.33,0.7,0.7,0,0,1-.48-0.16,0.6,0.6,0,0,1-.18-0.47,0.83,0.83,0,0,1,.18-0.54,1.46,1.46,0,0,1,.36-0.33A0.41,0.41,0,0,1,493,161h0a0.19,0.19,0,0,0-.1-0.09,1.25,1.25,0,0,0-.34-0.13,2.18,2.18,0,0,0-.55-0.06,2,2,0,0,0-.92.22,2.28,2.28,0,0,0-.69.49,4.09,4.09,0,0,0-1,2,9.53,9.53,0,0,0-.34,1.83,1.36,1.36,0,0,0,.42,1.09,1.22,1.22,0,0,0,.94.38h0.06a3.8,3.8,0,0,0,3-1.34,0.46,0.46,0,0,1,.19-0.16,0.42,0.42,0,0,1,.21.14,0.54,0.54,0,0,1,.16.22,0.34,0.34,0,0,1-.15.24l-0.47.44a2.68,2.68,0,0,1-.73.47q-0.42.19-1,.39a3.52,3.52,0,0,1-1.29.17,2.61,2.61,0,0,1-2-.76A2.7,2.7,0,0,1,487.6,164.62Z"/>
  <g>
    <path d="M481.79,191v-0.09a1,1,0,0,0-1-1.17,1.41,1.41,0,0,0-.57.13,2.14,2.14,0,0,0-.53.33l-0.42.38a2.08,2.08,0,0,0-.29.35l-0.1.13-0.34,1.36a8.91,8.91,0,0,0-.36,1.93,1.52,1.52,0,0,0,.39,1.14,0.89,0.89,0,0,0,.65.25,1.62,1.62,0,0,0,1.08-.51,2.71,2.71,0,0,0,.65-0.88,10.36,10.36,0,0,0,.53-1.66A7.61,7.61,0,0,0,481.79,191Zm-4.25-5.09a1.23,1.23,0,0,1,.06-0.36,0.23,0.23,0,0,1,.19-0.21l1.16-.08,1.18-.09q0.19,0,.19.14t-0.55,2.26q-0.13.54-.27,1.11t-0.24.85l-0.06.3s0,0,.1,0a2.59,2.59,0,0,1,1.63-.63,2,2,0,0,1,1.61.73,2.81,2.81,0,0,1,.63,1.83,4.64,4.64,0,0,1-1.28,3.17,3.68,3.68,0,0,1-2.75,1.42,2.14,2.14,0,0,1-1.47-.6,2.55,2.55,0,0,1-.68-1.94v-0.14a4.54,4.54,0,0,1,.13-0.92q0.13-.58.79-3.11,0.81-3.11.81-3.3t-0.61-.22H477.7a0.2,0.2,0,0,1-.11,0A0.1,0.1,0,0,1,477.54,185.92Z"/>
    <path d="M485.08,192.39v-0.21a0.34,0.34,0,0,1,.23-0.32h4.83V189.5l0-2.37a0.43,0.43,0,0,1,.31-0.21,0.35,0.35,0,0,1,.32.24v4.71h4.81a0.33,0.33,0,0,1,0,.63h-4.81v4.71a0.36,0.36,0,0,1-.29.22h-0.06a0.31,0.31,0,0,1-.29-0.22V192.5h-4.83a0.34,0.34,0,0,1-.23-0.32v0.21Z"/>
    <path d="M498.19,193.63a4.75,4.75,0,0,1,4.39-4.47,2.36,2.36,0,0,1,1.42.38,1.22,1.22,0,0,1,.53,1,1.07,1.07,0,0,1-.31.77,1.09,1.09,0,0,1-.78.33,0.7,0.7,0,0,1-.48-0.16,0.6,0.6,0,0,1-.18-0.47,0.83,0.83,0,0,1,.18-0.54,1.46,1.46,0,0,1,.36-0.33,0.41,0.41,0,0,1,.23-0.09h0a0.19,0.19,0,0,0-.1-0.09,1.25,1.25,0,0,0-.34-0.13,2.18,2.18,0,0,0-.55-0.06,2,2,0,0,0-.92.22,2.28,2.28,0,0,0-.69.49,4.09,4.09,0,0,0-1,2,9.54,9.54,0,0,0-.34,1.83,1.36,1.36,0,0,0,.42,1.09,1.22,1.22,0,0,0,.94.38H501a3.8,3.8,0,0,0,3-1.34,0.46,0.46,0,0,1,.19-0.16,0.42,0.42,0,0,1,.21.14,0.54,0.54,0,0,1,.16.22,0.34,0.34,0,0,1-.15.24l-0.47.44a2.68,2.68,0,0,1-.73.47q-0.42.19-1,.39a3.52,3.52,0,0,1-1.29.17,2.61,2.61,0,0,1-2-.76A2.7,2.7,0,0,1,498.19,193.63Z"/>
  </g>
  <g>
    <path d="M481.34,220a1.41,1.41,0,0,0-.08-0.35,1.5,1.5,0,0,0-.37-0.55,1,1,0,0,0-.74-0.32,1.57,1.57,0,0,0-1.08.49,3.3,3.3,0,0,0-.81,1.28,12.38,12.38,0,0,0-.66,2.59v0.17a0.82,0.82,0,0,1,0,.19,1.31,1.31,0,0,0,.29,1,1.05,1.05,0,0,0,.69.28,1.84,1.84,0,0,0,1.21-.52,2.67,2.67,0,0,0,.71-0.81s0.17-.61.44-1.69S481.32,220.11,481.34,220Zm-5.13,2.7a4.61,4.61,0,0,1,1.23-3,3.64,3.64,0,0,1,2.76-1.45,1.84,1.84,0,0,1,1.45.77,0.81,0.81,0,0,1,.74-0.47,0.59,0.59,0,0,1,.37.13,0.39,0.39,0,0,1,.16.32q0,0.21-.6,2.53t-0.61,2.62a0.83,0.83,0,0,0,.11.52,0.48,0.48,0,0,0,.34.14,0.71,0.71,0,0,0,.32-0.14,3.55,3.55,0,0,0,.66-1.52,0.58,0.58,0,0,1,.16-0.33l0.16,0h0.06q0.31,0,.31.14a2.46,2.46,0,0,1-.08.43,4.89,4.89,0,0,1-.32.85,2.69,2.69,0,0,1-.52.79,1.6,1.6,0,0,1-.52.33,1.76,1.76,0,0,1-.39,0,1.68,1.68,0,0,1-.92-0.24,1.22,1.22,0,0,1-.48-0.49l-0.1-.24a0.06,0.06,0,0,0-.06,0l-0.06.06a2.86,2.86,0,0,1-1.94.88,2.23,2.23,0,0,1-1.57-.63A2.63,2.63,0,0,1,476.2,222.72Z"/>
    <path d="M486,221.46v-0.21a0.34,0.34,0,0,1,.23-0.32h4.83v-2.37l0-2.37a0.43,0.43,0,0,1,.31-0.21,0.35,0.35,0,0,1,.32.24v4.71h4.81a0.33,0.33,0,0,1,0,.63H491.7v4.71a0.36,0.36,0,0,1-.29.22h-0.06a0.31,0.31,0,0,1-.29-0.22v-4.71h-4.83a0.34,0.34,0,0,1-.23-0.32v0.21Z"/>
    <path d="M504,220.07V220a1,1,0,0,0-1-1.17,1.41,1.41,0,0,0-.57.13,2.14,2.14,0,0,0-.53.33l-0.42.38a2.07,2.07,0,0,0-.29.35l-0.1.13-0.34,1.36a8.92,8.92,0,0,0-.36,1.93,1.52,1.52,0,0,0,.39,1.14,0.89,0.89,0,0,0,.65.25,1.62,1.62,0,0,0,1.08-.51,2.71,2.71,0,0,0,.65-0.88,10.37,10.37,0,0,0,.53-1.66A7.61,7.61,0,0,0,504,220.07ZM499.74,215a1.23,1.23,0,0,1,.06-0.36,0.23,0.23,0,0,1,.19-0.21l1.16-.08,1.18-.09q0.19,0,.19.14T502,216.64q-0.13.54-.27,1.11t-0.24.85l-0.06.3s0,0,.1,0a2.59,2.59,0,0,1,1.63-.63,2,2,0,0,1,1.61.73,2.81,2.81,0,0,1,.63,1.83A4.64,4.64,0,0,1,504.1,224a3.68,3.68,0,0,1-2.75,1.42,2.14,2.14,0,0,1-1.47-.6,2.55,2.55,0,0,1-.68-1.94v-0.14a4.54,4.54,0,0,1,.13-0.92q0.13-.58.79-3.11,0.81-3.11.81-3.3t-0.61-.22H499.9a0.2,0.2,0,0,1-.11,0A0.1,0.1,0,0,1,499.74,215Z"/>
  </g>
  <path d="M492.11,249.85a1.4,1.4,0,0,0-.08-0.35,1.5,1.5,0,0,0-.37-0.55,1,1,0,0,0-.74-0.32,1.57,1.57,0,0,0-1.08.49,3.3,3.3,0,0,0-.81,1.28,12.39,12.39,0,0,0-.66,2.59v0.17a0.82,0.82,0,0,1,0,.19,1.31,1.31,0,0,0,.29,1,1.05,1.05,0,0,0,.69.28,1.84,1.84,0,0,0,1.21-.52,2.67,2.67,0,0,0,.71-0.81s0.17-.61.44-1.69S492.09,249.93,492.11,249.85Zm-5.13,2.7a4.61,4.61,0,0,1,1.23-3,3.64,3.64,0,0,1,2.76-1.45,1.84,1.84,0,0,1,1.45.77,0.81,0.81,0,0,1,.74-0.47,0.59,0.59,0,0,1,.37.13,0.39,0.39,0,0,1,.16.32q0,0.21-.6,2.53T492.48,254a0.83,0.83,0,0,0,.11.52,0.48,0.48,0,0,0,.34.14,0.71,0.71,0,0,0,.32-0.14,3.55,3.55,0,0,0,.66-1.52,0.58,0.58,0,0,1,.16-0.33l0.16,0h0.06q0.31,0,.31.14a2.46,2.46,0,0,1-.08.43,4.89,4.89,0,0,1-.32.85,2.69,2.69,0,0,1-.52.79,1.6,1.6,0,0,1-.52.33,1.76,1.76,0,0,1-.39,0,1.68,1.68,0,0,1-.92-0.24,1.22,1.22,0,0,1-.48-0.49l-0.1-.24a0.06,0.06,0,0,0-.06,0l-0.06.06a2.86,2.86,0,0,1-1.94.88,2.23,2.23,0,0,1-1.57-.63A2.63,2.63,0,0,1,487,252.55Z"/>
  <g>
    <path d="M407.76,159.81a1.41,1.41,0,0,0-.08-0.35,1.5,1.5,0,0,0-.37-0.55,1,1,0,0,0-.74-0.32,1.57,1.57,0,0,0-1.08.49,3.3,3.3,0,0,0-.81,1.28A12.38,12.38,0,0,0,404,163v0.17a0.82,0.82,0,0,1,0,.19,1.31,1.31,0,0,0,.29,1,1.05,1.05,0,0,0,.69.28,1.84,1.84,0,0,0,1.21-.52,2.67,2.67,0,0,0,.71-0.81s0.17-.61.44-1.69S407.75,159.89,407.76,159.81Zm-5.13,2.7a4.61,4.61,0,0,1,1.23-3,3.64,3.64,0,0,1,2.76-1.45,1.84,1.84,0,0,1,1.45.77,0.81,0.81,0,0,1,.74-0.47,0.59,0.59,0,0,1,.37.13,0.39,0.39,0,0,1,.16.32q0,0.21-.6,2.53t-0.61,2.62a0.83,0.83,0,0,0,.11.52,0.48,0.48,0,0,0,.34.14,0.71,0.71,0,0,0,.32-0.14,3.55,3.55,0,0,0,.66-1.52,0.58,0.58,0,0,1,.16-0.33l0.16,0H410q0.31,0,.31.14a2.46,2.46,0,0,1-.08.43,4.89,4.89,0,0,1-.32.85,2.69,2.69,0,0,1-.52.79,1.6,1.6,0,0,1-.52.33,1.76,1.76,0,0,1-.39,0,1.68,1.68,0,0,1-.92-0.24,1.22,1.22,0,0,1-.48-0.49l-0.1-.24a0.06,0.06,0,0,0-.06,0l-0.06.06a2.86,2.86,0,0,1-1.94.88,2.23,2.23,0,0,1-1.57-.63A2.63,2.63,0,0,1,402.62,162.51Z"/>
    <path d="M412.42,161.25V161a0.34,0.34,0,0,1,.23-0.32h4.83v-2.37l0-2.37a0.43,0.43,0,0,1,.31-0.21,0.35,0.35,0,0,1,.32.24v4.71h4.81a0.33,0.33,0,0,1,0,.63h-4.81v4.71a0.36,0.36,0,0,1-.29.22h-0.06a0.31,0.31,0,0,1-.29-0.22v-4.71h-4.83a0.34,0.34,0,0,1-.23-0.32v0.21Z"/>
    <path d="M430.41,159.86v-0.09a1,1,0,0,0-1-1.17,1.41,1.41,0,0,0-.57.13,2.14,2.14,0,0,0-.53.33l-0.42.38a2.07,2.07,0,0,0-.29.35l-0.1.13-0.34,1.36a8.92,8.92,0,0,0-.36,1.93,1.52,1.52,0,0,0,.39,1.14,0.89,0.89,0,0,0,.65.25,1.62,1.62,0,0,0,1.08-.51,2.71,2.71,0,0,0,.65-0.88,10.37,10.37,0,0,0,.53-1.66A7.61,7.61,0,0,0,430.41,159.86Zm-4.25-5.09a1.23,1.23,0,0,1,.06-0.36,0.23,0.23,0,0,1,.19-0.21l1.16-.08,1.18-.09q0.19,0,.19.14t-0.55,2.26q-0.13.54-.27,1.11t-0.24.85l-0.06.3s0,0,.1,0a2.59,2.59,0,0,1,1.63-.63,2,2,0,0,1,1.61.73,2.81,2.81,0,0,1,.63,1.83,4.64,4.64,0,0,1-1.28,3.17,3.68,3.68,0,0,1-2.75,1.42,2.14,2.14,0,0,1-1.47-.6,2.55,2.55,0,0,1-.68-1.94v-0.14a4.54,4.54,0,0,1,.13-0.92q0.13-.58.79-3.11,0.81-3.11.81-3.3t-0.61-.22h-0.42a0.2,0.2,0,0,1-.11,0A0.1,0.1,0,0,1,426.16,154.77Z"/>
  </g>
  <path d="M418.53,191.38a1.4,1.4,0,0,0-.08-0.35,1.5,1.5,0,0,0-.37-0.55,1,1,0,0,0-.74-0.32,1.57,1.57,0,0,0-1.08.49,3.3,3.3,0,0,0-.81,1.28,12.39,12.39,0,0,0-.66,2.59v0.17a0.82,0.82,0,0,1,0,.19,1.31,1.31,0,0,0,.29,1,1.05,1.05,0,0,0,.69.28,1.84,1.84,0,0,0,1.21-.52,2.67,2.67,0,0,0,.71-0.81s0.17-.61.44-1.69S418.52,191.46,418.53,191.38Zm-5.13,2.7a4.61,4.61,0,0,1,1.23-3,3.64,3.64,0,0,1,2.76-1.45,1.84,1.84,0,0,1,1.45.77,0.81,0.81,0,0,1,.74-0.47,0.59,0.59,0,0,1,.37.13,0.39,0.39,0,0,1,.16.32q0,0.21-.6,2.53t-0.61,2.62a0.83,0.83,0,0,0,.11.52,0.48,0.48,0,0,0,.34.14,0.71,0.71,0,0,0,.32-0.14,3.55,3.55,0,0,0,.66-1.52,0.58,0.58,0,0,1,.16-0.33l0.16,0h0.06q0.31,0,.31.14a2.46,2.46,0,0,1-.08.43,4.89,4.89,0,0,1-.32.85,2.69,2.69,0,0,1-.52.79,1.6,1.6,0,0,1-.52.33,1.76,1.76,0,0,1-.39,0,1.68,1.68,0,0,1-.92-0.24,1.22,1.22,0,0,1-.48-0.49l-0.1-.24a0.06,0.06,0,0,0-.06,0l-0.06.06a2.86,2.86,0,0,1-1.94.88,2.23,2.23,0,0,1-1.57-.63A2.63,2.63,0,0,1,413.39,194.08Z"/>
  <path d="M564.12,223.09a4.75,4.75,0,0,1,4.39-4.47,2.36,2.36,0,0,1,1.42.38,1.22,1.22,0,0,1,.53,1,1.07,1.07,0,0,1-.31.77,1.09,1.09,0,0,1-.78.33,0.7,0.7,0,0,1-.48-0.16,0.6,0.6,0,0,1-.18-0.47,0.83,0.83,0,0,1,.18-0.54,1.46,1.46,0,0,1,.36-0.33,0.41,0.41,0,0,1,.23-0.09h0a0.19,0.19,0,0,0-.1-0.09,1.25,1.25,0,0,0-.34-0.13,2.18,2.18,0,0,0-.55-0.06,2,2,0,0,0-.92.22,2.28,2.28,0,0,0-.69.49,4.09,4.09,0,0,0-1,2,9.53,9.53,0,0,0-.34,1.83,1.36,1.36,0,0,0,.42,1.09,1.22,1.22,0,0,0,.94.38H567a3.8,3.8,0,0,0,3-1.34,0.46,0.46,0,0,1,.19-0.16,0.42,0.42,0,0,1,.21.14,0.54,0.54,0,0,1,.16.22,0.34,0.34,0,0,1-.15.24l-0.47.44a2.68,2.68,0,0,1-.73.47q-0.42.19-1,.39a3.52,3.52,0,0,1-1.29.17,2.61,2.61,0,0,1-2-.76A2.7,2.7,0,0,1,564.12,223.09Z"/>
  <g>
    <path d="M558.31,249.47v-0.09a1,1,0,0,0-1-1.17,1.41,1.41,0,0,0-.57.13,2.14,2.14,0,0,0-.53.33l-0.42.38a2.08,2.08,0,0,0-.29.35l-0.1.13-0.34,1.36a8.91,8.91,0,0,0-.36,1.93,1.52,1.52,0,0,0,.39,1.14,0.89,0.89,0,0,0,.65.25,1.62,1.62,0,0,0,1.08-.51,2.71,2.71,0,0,0,.65-0.88,10.36,10.36,0,0,0,.53-1.66A7.61,7.61,0,0,0,558.31,249.47Zm-4.25-5.09a1.23,1.23,0,0,1,.06-0.36,0.23,0.23,0,0,1,.19-0.21l1.16-.08,1.18-.09q0.19,0,.19.14T556.31,246q-0.13.54-.27,1.11t-0.24.85l-0.06.3s0,0,.1,0a2.59,2.59,0,0,1,1.63-.63,2,2,0,0,1,1.61.73,2.81,2.81,0,0,1,.63,1.83,4.64,4.64,0,0,1-1.28,3.17,3.68,3.68,0,0,1-2.75,1.42,2.14,2.14,0,0,1-1.47-.6,2.55,2.55,0,0,1-.68-1.94v-0.14a4.54,4.54,0,0,1,.13-0.92q0.13-.58.79-3.11,0.81-3.11.81-3.3t-0.61-.22h-0.42a0.2,0.2,0,0,1-.11,0A0.1,0.1,0,0,1,554.06,244.39Z"/>
    <path d="M561.61,250.86v-0.21a0.34,0.34,0,0,1,.23-0.32h4.83V248l0-2.37a0.43,0.43,0,0,1,.31-0.21,0.35,0.35,0,0,1,.32.24v4.71h4.81a0.33,0.33,0,0,1,0,.63h-4.81v4.71a0.36,0.36,0,0,1-.29.22H567a0.31,0.31,0,0,1-.29-0.22V251h-4.83a0.34,0.34,0,0,1-.23-0.32v0.21Z"/>
    <path d="M574.72,252.09a4.75,4.75,0,0,1,4.39-4.47,2.36,2.36,0,0,1,1.42.38,1.22,1.22,0,0,1,.53,1,1.07,1.07,0,0,1-.31.77,1.09,1.09,0,0,1-.78.33,0.7,0.7,0,0,1-.48-0.16,0.6,0.6,0,0,1-.18-0.47,0.83,0.83,0,0,1,.18-0.54,1.46,1.46,0,0,1,.36-0.33,0.41,0.41,0,0,1,.23-0.09h0a0.19,0.19,0,0,0-.1-0.09,1.25,1.25,0,0,0-.34-0.13,2.18,2.18,0,0,0-.55-0.06,2,2,0,0,0-.92.22,2.28,2.28,0,0,0-.69.49,4.09,4.09,0,0,0-1,2,9.54,9.54,0,0,0-.34,1.83,1.36,1.36,0,0,0,.42,1.09,1.22,1.22,0,0,0,.94.38h0.06a3.8,3.8,0,0,0,3-1.34,0.46,0.46,0,0,1,.19-0.16,0.42,0.42,0,0,1,.21.14,0.54,0.54,0,0,1,.16.22,0.34,0.34,0,0,1-.15.24l-0.47.44a2.68,2.68,0,0,1-.73.47q-0.42.19-1,.39a3.52,3.52,0,0,1-1.29.17,2.61,2.61,0,0,1-2-.76A2.7,2.7,0,0,1,574.72,252.09Z"/>
  </g>
  <g>
    <polygon points="54.95 181.38 54.95 151.76 60.73 151.76 60.73 153.14 56.35 153.14 56.35 181.38 54.95 181.38"/>
    <rect x="54.95" y="180.56" width="1.4" height="65.86"/>
    <polygon points="54.95 262.22 54.95 245.59 56.35 245.59 56.35 260.83 60.73 260.83 60.73 262.22 54.95 262.22"/>
  </g>
  <g>
    <polygon points="318 153.14 318 151.76 323.78 151.76 323.78 181.38 322.38 181.38 322.38 153.14 318 153.14"/>
    <rect x="322.38" y="180.56" width="1.4" height="65.86"/>
    <polygon points="322.38 260.83 322.38 245.59 323.78 245.59 323.78 262.22 318 262.22 318 260.83 322.38 260.83"/>
  </g>
  <path d="M115.22,160.05a1.6,1.6,0,0,0-.09-0.39,1.7,1.7,0,0,0-.42-0.62,1.16,1.16,0,0,0-.83-0.36,1.74,1.74,0,0,0-1.21.55,3.73,3.73,0,0,0-.9,1.45,14.12,14.12,0,0,0-.74,2.93v0.2a0.94,0.94,0,0,1,0,.21,1.49,1.49,0,0,0,.33,1.11,1.17,1.17,0,0,0,.78.32,2.05,2.05,0,0,0,1.35-.59,3,3,0,0,0,.79-0.91s0.19-.68.49-1.91S115.21,160.15,115.22,160.05Zm-5.74,3.05a5.24,5.24,0,0,1,1.37-3.43,4.05,4.05,0,0,1,3.09-1.64,2.05,2.05,0,0,1,1.63.87,0.9,0.9,0,0,1,.83-0.54,0.65,0.65,0,0,1,.42.14,0.44,0.44,0,0,1,.18.36q0,0.23-.67,2.86t-0.69,3a1,1,0,0,0,.13.59,0.53,0.53,0,0,0,.38.16,0.79,0.79,0,0,0,.36-0.16,4,4,0,0,0,.74-1.71,0.66,0.66,0,0,1,.18-0.37l0.18,0h0.07q0.34,0,.34.16a2.8,2.8,0,0,1-.09.48,5.55,5.55,0,0,1-.36,1,3,3,0,0,1-.58.89,1.79,1.79,0,0,1-.58.37,2,2,0,0,1-.43,0,1.86,1.86,0,0,1-1-.27,1.38,1.38,0,0,1-.54-0.55L114.3,165s0,0-.07,0l-0.07.07a3.18,3.18,0,0,1-2.17,1,2.48,2.48,0,0,1-1.75-.71A3,3,0,0,1,109.47,163.11Z"/>
  <path d="M188.22,219.7a1.6,1.6,0,0,0-.09-0.39,1.7,1.7,0,0,0-.42-0.62,1.16,1.16,0,0,0-.83-0.36,1.74,1.74,0,0,0-1.21.55,3.73,3.73,0,0,0-.9,1.45,14.12,14.12,0,0,0-.74,2.93v0.2a0.94,0.94,0,0,1,0,.21,1.49,1.49,0,0,0,.33,1.11,1.17,1.17,0,0,0,.78.32,2.05,2.05,0,0,0,1.35-.59,3,3,0,0,0,.79-0.91s0.19-.68.49-1.91S188.21,219.79,188.22,219.7Zm-5.74,3.05a5.24,5.24,0,0,1,1.37-3.43,4.05,4.05,0,0,1,3.09-1.64,2.05,2.05,0,0,1,1.63.87,0.9,0.9,0,0,1,.83-0.54,0.65,0.65,0,0,1,.42.14,0.44,0.44,0,0,1,.18.36q0,0.23-.67,2.86t-0.69,3a1,1,0,0,0,.13.59,0.53,0.53,0,0,0,.38.16,0.79,0.79,0,0,0,.36-0.16,4,4,0,0,0,.74-1.71,0.66,0.66,0,0,1,.18-0.37l0.18,0h0.07q0.34,0,.34.16a2.8,2.8,0,0,1-.09.48,5.55,5.55,0,0,1-.36,1,3,3,0,0,1-.58.89,1.79,1.79,0,0,1-.58.37,2,2,0,0,1-.43,0,1.86,1.86,0,0,1-1-.27,1.38,1.38,0,0,1-.54-0.55l-0.11-.27s0,0-.07,0l-0.07.07a3.18,3.18,0,0,1-2.17,1,2.48,2.48,0,0,1-1.75-.71A3,3,0,0,1,182.47,222.75Z"/>
  <path d="M188.16,191.42v-0.11a1.08,1.08,0,0,0-1.1-1.32,1.57,1.57,0,0,0-.63.14,2.39,2.39,0,0,0-.6.37q-0.27.23-.47,0.43a2.34,2.34,0,0,0-.33.39l-0.11.14L184.55,193a10.17,10.17,0,0,0-.4,2.18,1.73,1.73,0,0,0,.43,1.29,1,1,0,0,0,.72.29,1.81,1.81,0,0,0,1.21-.57,3.06,3.06,0,0,0,.72-1,11.8,11.8,0,0,0,.6-1.87A8.68,8.68,0,0,0,188.16,191.42Zm-4.75-5.75a1.4,1.4,0,0,1,.07-0.41,0.26,0.26,0,0,1,.22-0.23l1.3-.09,1.32-.11q0.22,0,.22.16t-0.61,2.55q-0.14.61-.31,1.25t-0.27,1l-0.07.34s0,0,.11-0.05a2.88,2.88,0,0,1,1.82-.71,2.24,2.24,0,0,1,1.81.82,3.19,3.19,0,0,1,.7,2.07,5.27,5.27,0,0,1-1.43,3.59,4.11,4.11,0,0,1-3.07,1.61,2.38,2.38,0,0,1-1.64-.68,2.9,2.9,0,0,1-.76-2.2v-0.16a5.18,5.18,0,0,1,.14-1q0.14-.66.88-3.52,0.9-3.52.9-3.73t-0.69-.25h-0.47a0.22,0.22,0,0,1-.13-0.05A0.11,0.11,0,0,1,183.41,185.67Z"/>
  <path d="M182.75,164.72a4.83,4.83,0,0,1,1.55-3.5,4.69,4.69,0,0,1,3.36-1.55,2.62,2.62,0,0,1,1.59.43,1.38,1.38,0,0,1,.6,1.12,1.23,1.23,0,0,1-1.21,1.25,0.78,0.78,0,0,1-.54-0.18,0.68,0.68,0,0,1-.2-0.54,1,1,0,0,1,.2-0.61,1.64,1.64,0,0,1,.4-0.37,0.45,0.45,0,0,1,.25-0.11h0a0.21,0.21,0,0,0-.11-0.11,1.39,1.39,0,0,0-.38-0.14,2.41,2.41,0,0,0-.61-0.07,2.23,2.23,0,0,0-1,.25,2.55,2.55,0,0,0-.78.55,4.64,4.64,0,0,0-1.16,2.21,10.89,10.89,0,0,0-.38,2.07,1.55,1.55,0,0,0,.47,1.23,1.36,1.36,0,0,0,1,.43h0.07a4.23,4.23,0,0,0,3.34-1.52,0.51,0.51,0,0,1,.22-0.18,0.47,0.47,0,0,1,.23.16,0.61,0.61,0,0,1,.18.25,0.38,0.38,0,0,1-.16.27l-0.52.5a3,3,0,0,1-.81.54q-0.47.21-1.16,0.45a3.9,3.9,0,0,1-1.44.2,2.91,2.91,0,0,1-2.19-.86A3.06,3.06,0,0,1,182.75,164.72Z"/>
  <path d="M258.88,248.89v-0.11a1.08,1.08,0,0,0-1.1-1.32,1.57,1.57,0,0,0-.63.14,2.39,2.39,0,0,0-.6.37q-0.27.23-.47,0.43a2.34,2.34,0,0,0-.33.39l-0.11.14-0.38,1.54a10.17,10.17,0,0,0-.4,2.18,1.73,1.73,0,0,0,.43,1.29,1,1,0,0,0,.72.29,1.81,1.81,0,0,0,1.21-.57,3.06,3.06,0,0,0,.72-1,11.8,11.8,0,0,0,.6-1.87A8.68,8.68,0,0,0,258.88,248.89Zm-4.75-5.75a1.4,1.4,0,0,1,.07-0.41,0.26,0.26,0,0,1,.22-0.23l1.3-.09,1.32-.11q0.22,0,.22.16T256.64,245q-0.14.61-.31,1.25t-0.27,1l-0.07.34s0,0,.11-0.05a2.88,2.88,0,0,1,1.82-.71,2.24,2.24,0,0,1,1.81.82,3.19,3.19,0,0,1,.7,2.07,5.27,5.27,0,0,1-1.43,3.59,4.11,4.11,0,0,1-3.07,1.61,2.38,2.38,0,0,1-1.64-.68,2.9,2.9,0,0,1-.76-2.2v-0.16a5.18,5.18,0,0,1,.14-1q0.14-.66.88-3.52,0.9-3.52.9-3.73t-0.69-.25h-0.47a0.22,0.22,0,0,1-.13-0.05A0.11,0.11,0,0,1,254.13,243.14Z"/>
  <path d="M253.47,222.69a4.83,4.83,0,0,1,1.55-3.5,4.69,4.69,0,0,1,3.36-1.55,2.62,2.62,0,0,1,1.59.43,1.38,1.38,0,0,1,.6,1.12,1.23,1.23,0,0,1-1.21,1.25,0.78,0.78,0,0,1-.54-0.18,0.68,0.68,0,0,1-.2-0.54,1,1,0,0,1,.2-0.61,1.64,1.64,0,0,1,.4-0.37,0.45,0.45,0,0,1,.25-0.11h0a0.21,0.21,0,0,0-.11-0.11,1.39,1.39,0,0,0-.38-0.14,2.41,2.41,0,0,0-.61-0.07,2.23,2.23,0,0,0-1,.25,2.55,2.55,0,0,0-.78.55,4.64,4.64,0,0,0-1.16,2.21,10.89,10.89,0,0,0-.38,2.07,1.55,1.55,0,0,0,.47,1.23,1.36,1.36,0,0,0,1,.43h0.07a4.23,4.23,0,0,0,3.34-1.52,0.51,0.51,0,0,1,.22-0.18,0.47,0.47,0,0,1,.23.16,0.61,0.61,0,0,1,.18.25,0.38,0.38,0,0,1-.16.27l-0.52.5a3,3,0,0,1-.81.54q-0.47.21-1.16,0.45a3.9,3.9,0,0,1-1.44.2,2.91,2.91,0,0,1-2.19-.86A3.06,3.06,0,0,1,253.47,222.69Z"/>
  <g>
    <polygon points="660 181.38 660 151.76 665.77 151.76 665.77 153.14 661.4 153.14 661.4 181.38 660 181.38"/>
    <rect x="660" y="180.56" width="1.4" height="65.86"/>
    <polygon points="660 262.22 660 245.59 661.4 245.59 661.4 260.83 665.77 260.83 665.77 262.22 660 262.22"/>
  </g>
  <g>
    <polygon points="925 153.14 925 151.76 930.77 151.76 930.77 181.38 929.38 181.38 929.38 153.14 925 153.14"/>
    <rect x="929.38" y="180.56" width="1.4" height="65.86"/>
    <polygon points="929.38 260.83 929.38 245.59 930.77 245.59 930.77 262.22 925 262.22 925 260.83 929.38 260.83"/>
  </g>
  <g>
    <path d="M840.87,223.61v-0.08a0.8,0.8,0,0,0-.81-1,1.15,1.15,0,0,0-.46.11,1.75,1.75,0,0,0-.44.28l-0.35.32a1.72,1.72,0,0,0-.24.29l-0.08.11-0.28,1.13a7.49,7.49,0,0,0-.29,1.6,1.28,1.28,0,0,0,.32.95,0.72,0.72,0,0,0,.53.21,1.33,1.33,0,0,0,.89-0.42,2.25,2.25,0,0,0,.53-0.74,8.7,8.7,0,0,0,.44-1.38A6.39,6.39,0,0,0,840.87,223.61Zm-3.49-4.23a1,1,0,0,1,.05-0.3,0.19,0.19,0,0,1,.16-0.17l1-.07,1-.08q0.16,0,.16.12t-0.45,1.88l-0.23.92q-0.12.47-.2,0.71l-0.05.25s0,0,.08,0a2.12,2.12,0,0,1,1.34-.53,1.64,1.64,0,0,1,1.33.6,2.35,2.35,0,0,1,.52,1.52,3.88,3.88,0,0,1-1,2.64A3,3,0,0,1,838.7,228a1.75,1.75,0,0,1-1.21-.5,2.14,2.14,0,0,1-.56-1.62v-0.12A3.82,3.82,0,0,1,837,225q0.11-.49.65-2.59,0.66-2.59.66-2.75t-0.5-.18h-0.35a0.16,0.16,0,0,1-.09,0A0.08,0.08,0,0,1,837.38,219.38Z"/>
    <path d="M843.59,224.76v-0.17a0.29,0.29,0,0,1,.19-0.26h4v-3.94a0.35,0.35,0,0,1,.25-0.17,0.29,0.29,0,0,1,.27.2v3.91h4a0.27,0.27,0,0,1,0,.53h-4v3.91a0.3,0.3,0,0,1-.24.18H848a0.26,0.26,0,0,1-.24-0.18v-3.91h-4a0.29,0.29,0,0,1-.19-0.26v0.17Z"/>
    <path d="M854.36,225.79a3.56,3.56,0,0,1,1.14-2.57,3.45,3.45,0,0,1,2.47-1.14,1.92,1.92,0,0,1,1.17.32,1,1,0,0,1,.44.83,0.9,0.9,0,0,1-.89.92,0.57,0.57,0,0,1-.4-0.13,0.5,0.5,0,0,1-.15-0.39,0.7,0.7,0,0,1,.15-0.45,1.21,1.21,0,0,1,.29-0.28,0.33,0.33,0,0,1,.19-0.08h0a0.16,0.16,0,0,0-.08-0.08,1,1,0,0,0-.28-0.11,1.77,1.77,0,0,0-.45-0.05,1.64,1.64,0,0,0-.76.18,1.88,1.88,0,0,0-.57.41,3.41,3.41,0,0,0-.85,1.63,8,8,0,0,0-.28,1.52,1.14,1.14,0,0,0,.35.91,1,1,0,0,0,.77.32h0.05a3.11,3.11,0,0,0,2.46-1.12,0.38,0.38,0,0,1,.16-0.13,0.34,0.34,0,0,1,.17.12,0.45,0.45,0,0,1,.13.18,0.28,0.28,0,0,1-.12.2l-0.39.37a2.2,2.2,0,0,1-.6.39q-0.35.16-.85,0.33a2.86,2.86,0,0,1-1.06.14,2.13,2.13,0,0,1-1.61-.63A2.26,2.26,0,0,1,854.36,225.79Z"/>
    <g>
      <rect x="829.48" y="224.43" width="6.24" height="0.6"/>
      <path d="M832.22,216.88l-0.13,0-0.4.1a4.69,4.69,0,0,1-.58.07h-0.19v-0.46h0.19a3.31,3.31,0,0,0,.88-0.15,2.39,2.39,0,0,0,.56-0.24,2.58,2.58,0,0,0,.28-0.22,0.15,0.15,0,0,1,.12,0,0.28,0.28,0,0,1,.17.06v6a0.4,0.4,0,0,0,.12.09l0.24,0,0.62,0h0.26v0.46h-0.11q-0.21,0-1.6,0t-1.58,0H831v-0.46h0.9l0.16,0,0.08,0,0.06,0a0.08,0.08,0,0,1,.06,0v-5.15Z"/>
      <path d="M831.18,229.23a0.55,0.55,0,0,1-.43-0.18,0.63,0.63,0,0,1-.16-0.44,1.65,1.65,0,0,1,.53-1.23,1.83,1.83,0,0,1,1.33-.52,2.19,2.19,0,0,1,1.53.56,1.89,1.89,0,0,1,.62,1.44,1.75,1.75,0,0,1-.2.82,2.82,2.82,0,0,1-.48.68q-0.28.29-.81,0.74-0.36.31-1,.92l-0.59.56h0.77a12.21,12.21,0,0,0,1.68,0,2.68,2.68,0,0,0,.24-0.89v0h0.4v0s-0.05.32-.13,0.91a7.36,7.36,0,0,1-.15.92v0h-3.74v-0.31a0.25,0.25,0,0,1,.06-0.15l0.3-.35,0.5-.56,0.34-.37,0.34-.37,0.29-.33,0.28-.34,0.23-.3a1.7,1.7,0,0,0,.21-0.32l0.15-.29a1.28,1.28,0,0,0,.13-0.32l0.07-.3a1.57,1.57,0,0,0,0-.33,1.76,1.76,0,0,0-.34-1.09,1.15,1.15,0,0,0-1-.46,1,1,0,0,0-.58.17,1.21,1.21,0,0,0-.35.33,0.71,0.71,0,0,0-.1.19h0.05a0.64,0.64,0,0,1,.37.14,0.53,0.53,0,0,1,.19.46,0.58,0.58,0,0,1-.16.42A0.63,0.63,0,0,1,831.18,229.23Z"/>
    </g>
  </g>
  <g>
    <path d="M743.91,223.48a1.18,1.18,0,0,0-.07-0.29,1.25,1.25,0,0,0-.31-0.46,0.85,0.85,0,0,0-.61-0.26,1.28,1.28,0,0,0-.89.41,2.74,2.74,0,0,0-.66,1.06,10.4,10.4,0,0,0-.54,2.15v0.14a0.7,0.7,0,0,1,0,.16,1.1,1.1,0,0,0,.24.81,0.86,0.86,0,0,0,.57.24,1.51,1.51,0,0,0,1-.43,2.21,2.21,0,0,0,.58-0.67s0.14-.5.36-1.41S743.9,223.55,743.91,223.48Zm-4.22,2.25a3.86,3.86,0,0,1,1-2.52A3,3,0,0,1,743,222a1.51,1.51,0,0,1,1.19.64,0.66,0.66,0,0,1,.61-0.39,0.48,0.48,0,0,1,.31.11,0.32,0.32,0,0,1,.13.26q0,0.17-.49,2.1t-0.5,2.18a0.7,0.7,0,0,0,.09.43,0.39,0.39,0,0,0,.28.12,0.58,0.58,0,0,0,.27-0.12,3,3,0,0,0,.54-1.26,0.49,0.49,0,0,1,.13-0.28h0.19q0.25,0,.25.12a2.06,2.06,0,0,1-.07.35,4.09,4.09,0,0,1-.27.71,2.24,2.24,0,0,1-.42.66,1.31,1.31,0,0,1-.42.28,1.43,1.43,0,0,1-.32,0,1.37,1.37,0,0,1-.76-0.2,1,1,0,0,1-.4-0.41l-0.08-.2s0,0-.05,0l-0.05.05a2.34,2.34,0,0,1-1.59.74,1.82,1.82,0,0,1-1.29-.53A2.2,2.2,0,0,1,739.68,225.73Z"/>
    <path d="M748.83,224.67V224.5a0.29,0.29,0,0,1,.19-0.26h4V220.3a0.35,0.35,0,0,1,.25-0.17,0.29,0.29,0,0,1,.27.2v3.91h4a0.27,0.27,0,0,1,0,.53h-4v3.91a0.3,0.3,0,0,1-.24.18h-0.05a0.26,0.26,0,0,1-.24-0.18v-3.91h-4a0.29,0.29,0,0,1-.19-0.26v0.17Z"/>
    <path d="M771.82,223.52v-0.08a0.8,0.8,0,0,0-.81-1,1.15,1.15,0,0,0-.46.11,1.75,1.75,0,0,0-.44.28l-0.35.32a1.72,1.72,0,0,0-.24.29l-0.08.11-0.28,1.13a7.48,7.48,0,0,0-.29,1.6,1.28,1.28,0,0,0,.32.95,0.72,0.72,0,0,0,.53.21,1.33,1.33,0,0,0,.89-0.42,2.25,2.25,0,0,0,.53-0.74,8.69,8.69,0,0,0,.44-1.38A6.39,6.39,0,0,0,771.82,223.52Zm-3.49-4.23a1,1,0,0,1,.05-0.3,0.19,0.19,0,0,1,.16-0.17l1-.07,1-.08q0.16,0,.16.12t-0.45,1.88l-0.23.92q-0.12.47-.2,0.71l-0.05.25s0,0,.08,0a2.12,2.12,0,0,1,1.34-.53,1.64,1.64,0,0,1,1.33.6,2.35,2.35,0,0,1,.52,1.52,3.88,3.88,0,0,1-1,2.64,3,3,0,0,1-2.26,1.18,1.75,1.75,0,0,1-1.21-.5,2.14,2.14,0,0,1-.56-1.62V225.7a3.82,3.82,0,0,1,.11-0.76q0.11-.49.65-2.59,0.66-2.59.66-2.75t-0.5-.18h-0.35a0.16,0.16,0,0,1-.09,0A0.08,0.08,0,0,1,768.32,219.29Z"/>
    <g>
      <rect x="760.2" y="223.99" width="6.24" height="0.6"/>
      <path d="M762.95,216.43l-0.13,0-0.4.1a4.69,4.69,0,0,1-.58.07h-0.19v-0.46h0.19a3.31,3.31,0,0,0,.88-0.15,2.39,2.39,0,0,0,.56-0.24,2.58,2.58,0,0,0,.28-0.22,0.15,0.15,0,0,1,.12,0,0.28,0.28,0,0,1,.17.06v6a0.4,0.4,0,0,0,.12.09l0.24,0,0.62,0h0.26v0.46H765q-0.21,0-1.6,0t-1.58,0h-0.12v-0.46h0.9l0.16,0,0.08,0,0.06,0a0.08,0.08,0,0,1,.06,0v-5.15Z"/>
      <path d="M761.9,228.78a0.55,0.55,0,0,1-.43-0.18,0.63,0.63,0,0,1-.16-0.44,1.65,1.65,0,0,1,.53-1.23,1.83,1.83,0,0,1,1.33-.52,2.19,2.19,0,0,1,1.53.56,1.89,1.89,0,0,1,.62,1.44,1.75,1.75,0,0,1-.2.82,2.82,2.82,0,0,1-.48.68q-0.28.29-.81,0.74-0.36.31-1,.92l-0.59.56H763a12.21,12.21,0,0,0,1.68,0,2.68,2.68,0,0,0,.24-0.89v0h0.4v0s-0.05.32-.13,0.91a7.36,7.36,0,0,1-.15.92v0H761.3v-0.31a0.25,0.25,0,0,1,.06-0.15l0.3-.35,0.5-.56,0.34-.37,0.34-.37,0.29-.33,0.28-.34,0.23-.3a1.7,1.7,0,0,0,.21-0.32l0.15-.29a1.28,1.28,0,0,0,.13-0.32l0.07-.3a1.57,1.57,0,0,0,0-.33,1.76,1.76,0,0,0-.34-1.09,1.15,1.15,0,0,0-1-.46,1,1,0,0,0-.58.17,1.21,1.21,0,0,0-.35.33,0.71,0.71,0,0,0-.1.19h0.05a0.64,0.64,0,0,1,.37.14,0.53,0.53,0,0,1,.19.46,0.58,0.58,0,0,1-.16.42A0.63,0.63,0,0,1,761.9,228.78Z"/>
    </g>
  </g>
  <g>
    <path d="M753.13,163.65v-0.08a0.8,0.8,0,0,0-.81-1,1.15,1.15,0,0,0-.46.11,1.75,1.75,0,0,0-.44.28l-0.35.32a1.72,1.72,0,0,0-.24.29l-0.08.11-0.28,1.13a7.49,7.49,0,0,0-.29,1.6,1.28,1.28,0,0,0,.32.95,0.72,0.72,0,0,0,.53.21,1.33,1.33,0,0,0,.89-0.42,2.25,2.25,0,0,0,.53-0.74,8.7,8.7,0,0,0,.44-1.38A6.39,6.39,0,0,0,753.13,163.65Zm-3.49-4.23a1,1,0,0,1,.05-0.3,0.19,0.19,0,0,1,.16-0.17l1-.07,1-.08q0.16,0,.16.12t-0.45,1.88l-0.23.92q-0.12.47-.2,0.71l-0.05.25s0,0,.08,0a2.12,2.12,0,0,1,1.34-.53,1.64,1.64,0,0,1,1.33.6,2.35,2.35,0,0,1,.52,1.52,3.88,3.88,0,0,1-1,2.64,3,3,0,0,1-2.26,1.18,1.75,1.75,0,0,1-1.21-.5,2.14,2.14,0,0,1-.56-1.62v-0.12a3.82,3.82,0,0,1,.11-0.76q0.11-.49.65-2.59,0.66-2.59.66-2.75t-0.5-.18h-0.35a0.16,0.16,0,0,1-.09,0A0.08,0.08,0,0,1,749.64,159.42Z"/>
    <path d="M755.86,164.8v-0.17a0.29,0.29,0,0,1,.19-0.26h4v-3.94a0.35,0.35,0,0,1,.25-0.17,0.29,0.29,0,0,1,.27.2v3.91h4a0.27,0.27,0,0,1,0,.53h-4v3.91a0.3,0.3,0,0,1-.24.18h-0.05a0.26,0.26,0,0,1-.24-0.18v-3.91h-4a0.29,0.29,0,0,1-.19-0.26v0.17Z"/>
    <path d="M766.62,165.83a3.56,3.56,0,0,1,1.14-2.57,3.45,3.45,0,0,1,2.47-1.14,1.92,1.92,0,0,1,1.17.32,1,1,0,0,1,.44.83,0.9,0.9,0,0,1-.89.92,0.57,0.57,0,0,1-.4-0.13,0.5,0.5,0,0,1-.15-0.39,0.7,0.7,0,0,1,.15-0.45,1.21,1.21,0,0,1,.29-0.28,0.33,0.33,0,0,1,.19-0.08h0a0.16,0.16,0,0,0-.08-0.08,1,1,0,0,0-.28-0.11,1.77,1.77,0,0,0-.45-0.05,1.64,1.64,0,0,0-.76.18,1.88,1.88,0,0,0-.57.41,3.41,3.41,0,0,0-.85,1.63,8,8,0,0,0-.28,1.52,1.14,1.14,0,0,0,.35.91,1,1,0,0,0,.77.32h0.05a3.11,3.11,0,0,0,2.46-1.12,0.38,0.38,0,0,1,.16-0.13,0.34,0.34,0,0,1,.17.12,0.45,0.45,0,0,1,.13.18,0.28,0.28,0,0,1-.12.2l-0.39.37a2.2,2.2,0,0,1-.6.39q-0.35.16-.85,0.33a2.86,2.86,0,0,1-1.06.14,2.13,2.13,0,0,1-1.61-.63A2.26,2.26,0,0,1,766.62,165.83Z"/>
    <g>
      <rect x="741.74" y="164.47" width="6.24" height="0.6"/>
      <path d="M744.49,156.91l-0.13,0-0.4.1a4.69,4.69,0,0,1-.58.07h-0.19v-0.46h0.19a3.31,3.31,0,0,0,.88-0.15,2.39,2.39,0,0,0,.56-0.24,2.58,2.58,0,0,0,.28-0.22,0.15,0.15,0,0,1,.12,0,0.28,0.28,0,0,1,.17.06v6a0.4,0.4,0,0,0,.12.09l0.24,0,0.62,0h0.26v0.46h-0.11q-0.21,0-1.6,0t-1.58,0h-0.12v-0.46h0.9l0.16,0,0.08,0,0.06,0a0.08,0.08,0,0,1,.06,0v-5.15Z"/>
      <path d="M743.44,169.27a0.55,0.55,0,0,1-.43-0.18,0.63,0.63,0,0,1-.16-0.44,1.65,1.65,0,0,1,.53-1.23,1.83,1.83,0,0,1,1.33-.52,2.19,2.19,0,0,1,1.53.56,1.89,1.89,0,0,1,.62,1.44,1.75,1.75,0,0,1-.2.82,2.82,2.82,0,0,1-.48.68q-0.28.29-.81,0.74-0.36.31-1,.92l-0.59.56h0.77a12.21,12.21,0,0,0,1.68,0,2.68,2.68,0,0,0,.24-0.89v0h0.4v0s-0.05.32-.13,0.91a7.36,7.36,0,0,1-.15.92v0h-3.74v-0.31a0.25,0.25,0,0,1,.06-0.15l0.3-.35,0.5-.56,0.34-.37,0.34-.37,0.29-.33,0.28-.34,0.23-.3a1.7,1.7,0,0,0,.21-0.32l0.15-.29a1.28,1.28,0,0,0,.13-0.32l0.07-.3a1.57,1.57,0,0,0,0-.33,1.76,1.76,0,0,0-.34-1.09,1.15,1.15,0,0,0-1-.46,1,1,0,0,0-.58.17,1.21,1.21,0,0,0-.35.33,0.71,0.71,0,0,0-.1.19h0.05a0.64,0.64,0,0,1,.37.14,0.53,0.53,0,0,1,.19.46,0.58,0.58,0,0,1-.16.42A0.63,0.63,0,0,1,743.44,169.27Z"/>
    </g>
  </g>
  <g>
    <path d="M678.76,163.52a1.18,1.18,0,0,0-.07-0.29,1.25,1.25,0,0,0-.31-0.46,0.85,0.85,0,0,0-.61-0.26,1.28,1.28,0,0,0-.89.41,2.74,2.74,0,0,0-.66,1.06,10.4,10.4,0,0,0-.54,2.15v0.14a0.7,0.7,0,0,1,0,.16,1.1,1.1,0,0,0,.24.81,0.86,0.86,0,0,0,.57.24,1.51,1.51,0,0,0,1-.43,2.21,2.21,0,0,0,.58-0.67s0.14-.5.36-1.41S678.75,163.59,678.76,163.52Zm-4.22,2.25a3.86,3.86,0,0,1,1-2.52,3,3,0,0,1,2.27-1.21,1.51,1.51,0,0,1,1.19.64,0.66,0.66,0,0,1,.61-0.39,0.48,0.48,0,0,1,.31.11,0.32,0.32,0,0,1,.13.26q0,0.17-.49,2.1t-0.5,2.18a0.7,0.7,0,0,0,.09.43,0.39,0.39,0,0,0,.28.12,0.58,0.58,0,0,0,.27-0.12,3,3,0,0,0,.54-1.26,0.49,0.49,0,0,1,.13-0.28h0.19q0.25,0,.25.12a2.06,2.06,0,0,1-.07.35,4.09,4.09,0,0,1-.27.71,2.24,2.24,0,0,1-.42.66,1.31,1.31,0,0,1-.42.28,1.43,1.43,0,0,1-.32,0,1.37,1.37,0,0,1-.76-0.2,1,1,0,0,1-.4-0.41l-0.08-.2s0,0-.05,0l-0.05.05a2.34,2.34,0,0,1-1.59.74,1.82,1.82,0,0,1-1.29-.53A2.2,2.2,0,0,1,674.53,165.76Z"/>
    <path d="M683.68,164.71v-0.17a0.29,0.29,0,0,1,.19-0.26h4v-3.94a0.35,0.35,0,0,1,.25-0.17,0.29,0.29,0,0,1,.27.2v3.91h4a0.27,0.27,0,0,1,0,.53h-4v3.91a0.3,0.3,0,0,1-.24.18h-0.05a0.26,0.26,0,0,1-.24-0.18V164.8h-4a0.29,0.29,0,0,1-.19-0.26v0.17Z"/>
    <path d="M706.67,163.56v-0.08a0.8,0.8,0,0,0-.81-1,1.15,1.15,0,0,0-.46.11,1.75,1.75,0,0,0-.44.28l-0.35.32a1.72,1.72,0,0,0-.24.29l-0.08.11L704,164.73a7.48,7.48,0,0,0-.29,1.6,1.28,1.28,0,0,0,.32.95,0.72,0.72,0,0,0,.53.21,1.33,1.33,0,0,0,.89-0.42,2.25,2.25,0,0,0,.53-0.74,8.69,8.69,0,0,0,.44-1.38A6.39,6.39,0,0,0,706.67,163.56Zm-3.49-4.23a1,1,0,0,1,.05-0.3,0.19,0.19,0,0,1,.16-0.17l1-.07,1-.08q0.16,0,.16.12T705,160.71l-0.23.92q-0.12.47-.2,0.71l-0.05.25s0,0,.08,0A2.12,2.12,0,0,1,706,162a1.64,1.64,0,0,1,1.33.6,2.35,2.35,0,0,1,.52,1.52,3.88,3.88,0,0,1-1,2.64A3,3,0,0,1,704.5,168a1.75,1.75,0,0,1-1.21-.5,2.14,2.14,0,0,1-.56-1.62v-0.12a3.82,3.82,0,0,1,.11-0.76q0.11-.49.65-2.59,0.66-2.59.66-2.75t-0.5-.18h-0.35a0.16,0.16,0,0,1-.09,0A0.08,0.08,0,0,1,703.18,159.33Z"/>
    <g>
      <rect x="695.05" y="164.02" width="6.24" height="0.6"/>
      <path d="M697.8,156.47l-0.13,0-0.4.1a4.69,4.69,0,0,1-.58.07h-0.19v-0.46h0.19a3.31,3.31,0,0,0,.88-0.15,2.39,2.39,0,0,0,.56-0.24,2.58,2.58,0,0,0,.28-0.22,0.15,0.15,0,0,1,.12,0,0.28,0.28,0,0,1,.17.06v6a0.4,0.4,0,0,0,.12.09l0.24,0,0.62,0H700v0.46h-0.11q-0.21,0-1.6,0t-1.58,0h-0.12v-0.46h0.9l0.16,0,0.08,0,0.06,0a0.08,0.08,0,0,1,.06,0v-5.15Z"/>
      <path d="M696.75,168.82a0.55,0.55,0,0,1-.43-0.18,0.63,0.63,0,0,1-.16-0.44,1.65,1.65,0,0,1,.53-1.23,1.83,1.83,0,0,1,1.33-.52,2.19,2.19,0,0,1,1.53.56,1.89,1.89,0,0,1,.62,1.44,1.75,1.75,0,0,1-.2.82,2.82,2.82,0,0,1-.48.68q-0.28.29-.81,0.74-0.36.31-1,.92l-0.59.56h0.77a12.21,12.21,0,0,0,1.68,0,2.68,2.68,0,0,0,.24-0.89v0h0.4v0s-0.05.32-.13,0.91a7.36,7.36,0,0,1-.15.92v0h-3.74v-0.31a0.25,0.25,0,0,1,.06-0.15l0.3-.35,0.5-.56,0.34-.37,0.34-.37,0.29-.33,0.28-.34,0.23-.3a1.7,1.7,0,0,0,.21-0.32l0.15-.29a1.28,1.28,0,0,0,.13-0.32l0.07-.3a1.57,1.57,0,0,0,0-.33,1.76,1.76,0,0,0-.34-1.09,1.15,1.15,0,0,0-1-.46,1,1,0,0,0-.58.17,1.21,1.21,0,0,0-.35.33,0.71,0.71,0,0,0-.1.19h0.05a0.64,0.64,0,0,1,.37.14,0.53,0.53,0,0,1,.19.46,0.58,0.58,0,0,1-.16.42A0.63,0.63,0,0,1,696.75,168.82Z"/>
    </g>
  </g>
  <g>
    <path d="M740.63,193a1.18,1.18,0,0,0-.07-0.29,1.25,1.25,0,0,0-.31-0.46,0.85,0.85,0,0,0-.61-0.26,1.28,1.28,0,0,0-.89.41,2.74,2.74,0,0,0-.66,1.06,10.4,10.4,0,0,0-.54,2.15v0.14a0.69,0.69,0,0,1,0,.16,1.1,1.1,0,0,0,.24.81,0.86,0.86,0,0,0,.57.24,1.51,1.51,0,0,0,1-.43,2.21,2.21,0,0,0,.58-0.67s0.14-.5.36-1.41S740.62,193,740.63,193Zm-4.22,2.25a3.86,3.86,0,0,1,1-2.52,3,3,0,0,1,2.27-1.21,1.51,1.51,0,0,1,1.19.64,0.66,0.66,0,0,1,.61-0.39,0.48,0.48,0,0,1,.31.11,0.32,0.32,0,0,1,.13.26q0,0.17-.49,2.1t-0.5,2.18a0.7,0.7,0,0,0,.09.43,0.39,0.39,0,0,0,.28.12,0.58,0.58,0,0,0,.27-0.12,3,3,0,0,0,.54-1.26,0.49,0.49,0,0,1,.13-0.28h0.19q0.25,0,.25.12a2.07,2.07,0,0,1-.07.35,4.09,4.09,0,0,1-.27.71,2.23,2.23,0,0,1-.42.66,1.32,1.32,0,0,1-.42.28,1.43,1.43,0,0,1-.32,0,1.37,1.37,0,0,1-.76-0.2,1,1,0,0,1-.4-0.41l-0.08-.2s0,0-.05,0l-0.05.05a2.34,2.34,0,0,1-1.59.74,1.82,1.82,0,0,1-1.29-.53A2.2,2.2,0,0,1,736.41,195.22Z"/>
    <path d="M744.48,194.17V194a0.29,0.29,0,0,1,.19-0.26h4V189.8a0.35,0.35,0,0,1,.25-0.17,0.29,0.29,0,0,1,.27.2v3.91h4a0.27,0.27,0,0,1,0,.53h-4v3.91a0.3,0.3,0,0,1-.24.18h-0.05a0.26,0.26,0,0,1-.24-0.18v-3.91h-4a0.29,0.29,0,0,1-.19-0.26v0.17Z"/>
    <path d="M759.25,193v-0.08a0.8,0.8,0,0,0-.81-1,1.15,1.15,0,0,0-.46.11,1.75,1.75,0,0,0-.44.28l-0.35.32a1.72,1.72,0,0,0-.24.29l-0.08.11-0.28,1.13a7.49,7.49,0,0,0-.29,1.6,1.28,1.28,0,0,0,.32.95,0.72,0.72,0,0,0,.53.21,1.33,1.33,0,0,0,.89-0.42,2.25,2.25,0,0,0,.53-0.74,8.69,8.69,0,0,0,.44-1.38A6.39,6.39,0,0,0,759.25,193Zm-3.49-4.23a1,1,0,0,1,.05-0.3,0.19,0.19,0,0,1,.16-0.17l1-.07,1-.08q0.16,0,.16.12t-0.45,1.88l-0.23.92q-0.12.47-.2,0.71l-0.05.25s0,0,.08,0a2.12,2.12,0,0,1,1.34-.53,1.64,1.64,0,0,1,1.33.6,2.35,2.35,0,0,1,.52,1.52,3.88,3.88,0,0,1-1,2.64,3,3,0,0,1-2.26,1.18,1.75,1.75,0,0,1-1.21-.5,2.14,2.14,0,0,1-.56-1.62V195.2a3.82,3.82,0,0,1,.11-0.76q0.11-.49.65-2.59,0.66-2.59.66-2.75t-0.5-.18H755.9a0.17,0.17,0,0,1-.09,0A0.08,0.08,0,0,1,755.76,188.79Z"/>
    <path d="M762,194.17V194a0.29,0.29,0,0,1,.19-0.26h4V189.8a0.35,0.35,0,0,1,.25-0.17,0.29,0.29,0,0,1,.27.2v3.91h4a0.27,0.27,0,0,1,0,.53h-4v3.91a0.3,0.3,0,0,1-.24.18h-0.05a0.26,0.26,0,0,1-.24-0.18v-3.91h-4A0.29,0.29,0,0,1,762,194v0.17Z"/>
    <path d="M779.87,195.2a3.56,3.56,0,0,1,1.14-2.57,3.45,3.45,0,0,1,2.47-1.14,1.92,1.92,0,0,1,1.17.32,1,1,0,0,1,.44.83,0.9,0.9,0,0,1-.89.92,0.57,0.57,0,0,1-.4-0.13,0.5,0.5,0,0,1-.15-0.39,0.7,0.7,0,0,1,.15-0.45,1.21,1.21,0,0,1,.29-0.28,0.33,0.33,0,0,1,.19-0.08h0a0.15,0.15,0,0,0-.08-0.08,1,1,0,0,0-.28-0.11,1.78,1.78,0,0,0-.45-0.05,1.64,1.64,0,0,0-.76.18,1.88,1.88,0,0,0-.57.41,3.41,3.41,0,0,0-.85,1.63,8,8,0,0,0-.28,1.52,1.14,1.14,0,0,0,.35.91,1,1,0,0,0,.77.32h0.05a3.11,3.11,0,0,0,2.46-1.12,0.38,0.38,0,0,1,.16-0.13,0.34,0.34,0,0,1,.17.12,0.45,0.45,0,0,1,.13.18,0.28,0.28,0,0,1-.12.2l-0.38.37a2.2,2.2,0,0,1-.6.39q-0.35.16-.85,0.33a2.86,2.86,0,0,1-1.06.14,2.13,2.13,0,0,1-1.61-.63A2.26,2.26,0,0,1,779.87,195.2Z"/>
    <g>
      <rect x="727.98" y="193.55" width="6.24" height="0.6"/>
      <path d="M730.73,186l-0.13,0-0.4.1a4.69,4.69,0,0,1-.58.07h-0.19v-0.46h0.19a3.31,3.31,0,0,0,.88-0.15,2.39,2.39,0,0,0,.56-0.24,2.58,2.58,0,0,0,.28-0.22,0.15,0.15,0,0,1,.12,0,0.28,0.28,0,0,1,.17.06v6a0.4,0.4,0,0,0,.12.09l0.24,0,0.62,0h0.26v0.46h-0.11q-0.21,0-1.6,0t-1.58,0h-0.12v-0.46h0.9l0.16,0,0.08,0,0.06,0a0.08,0.08,0,0,1,.06,0V186Z"/>
      <path d="M729.69,198.35a0.55,0.55,0,0,1-.43-0.18,0.63,0.63,0,0,1-.16-0.44,1.65,1.65,0,0,1,.53-1.23A1.83,1.83,0,0,1,731,196a2.19,2.19,0,0,1,1.53.56,1.89,1.89,0,0,1,.62,1.44,1.75,1.75,0,0,1-.2.82,2.82,2.82,0,0,1-.48.68q-0.28.29-.81,0.74-0.36.31-1,.92l-0.59.56h0.77a12.21,12.21,0,0,0,1.68,0,2.68,2.68,0,0,0,.24-0.89v0h0.4v0s-0.05.32-.13,0.91a7.36,7.36,0,0,1-.15.92v0h-3.74v-0.31a0.25,0.25,0,0,1,.06-0.15l0.3-.35,0.5-.56,0.34-.37,0.34-.37,0.29-.33,0.28-.34,0.23-.3a1.7,1.7,0,0,0,.21-0.32l0.15-.29a1.28,1.28,0,0,0,.13-0.32l0.07-.3a1.57,1.57,0,0,0,0-.33,1.76,1.76,0,0,0-.34-1.09,1.15,1.15,0,0,0-1-.46,1,1,0,0,0-.58.17,1.21,1.21,0,0,0-.35.33,0.71,0.71,0,0,0-.1.19h0.05a0.64,0.64,0,0,1,.37.14,0.53,0.53,0,0,1,.19.46,0.58,0.58,0,0,1-.16.42A0.63,0.63,0,0,1,729.69,198.35Z"/>
    </g>
    <g>
      <rect x="772.44" y="193.55" width="6.24" height="0.6"/>
      <path d="M775.19,186l-0.13,0-0.4.1a4.69,4.69,0,0,1-.58.07h-0.19v-0.46h0.19a3.31,3.31,0,0,0,.88-0.15,2.39,2.39,0,0,0,.56-0.24,2.58,2.58,0,0,0,.28-0.22,0.15,0.15,0,0,1,.12,0,0.28,0.28,0,0,1,.17.06v6a0.4,0.4,0,0,0,.12.09l0.24,0,0.62,0h0.26v0.46h-0.11q-0.21,0-1.6,0t-1.58,0h-0.12v-0.46h0.9l0.16,0,0.08,0,0.06,0a0.08,0.08,0,0,1,.06,0V186Z"/>
      <path d="M774.14,198.35a0.55,0.55,0,0,1-.43-0.18,0.63,0.63,0,0,1-.16-0.44,1.65,1.65,0,0,1,.53-1.23,1.83,1.83,0,0,1,1.33-.52,2.19,2.19,0,0,1,1.53.56,1.89,1.89,0,0,1,.62,1.44,1.75,1.75,0,0,1-.2.82,2.82,2.82,0,0,1-.48.68q-0.28.29-.81,0.74-0.36.31-1,.92l-0.59.56h0.77a12.21,12.21,0,0,0,1.68,0,2.68,2.68,0,0,0,.24-0.89v0h0.4v0s-0.05.32-.13,0.91a7.36,7.36,0,0,1-.15.92v0h-3.74v-0.31a0.25,0.25,0,0,1,.06-0.15l0.3-.35,0.5-.56,0.34-.37,0.34-.37,0.29-.33,0.28-.34,0.23-.3a1.7,1.7,0,0,0,.21-0.32l0.15-.29a1.28,1.28,0,0,0,.13-0.32l0.07-.3a1.57,1.57,0,0,0,0-.33,1.76,1.76,0,0,0-.34-1.09,1.15,1.15,0,0,0-1-.46,1,1,0,0,0-.58.17,1.21,1.21,0,0,0-.35.33,0.71,0.71,0,0,0-.1.19h0.05a0.64,0.64,0,0,1,.37.14,0.53,0.53,0,0,1,.19.46,0.58,0.58,0,0,1-.16.42A0.63,0.63,0,0,1,774.14,198.35Z"/>
    </g>
  </g>
  <g>
    <path d="M844.13,195.47a3.56,3.56,0,0,1,1.14-2.57,3.45,3.45,0,0,1,2.47-1.14,1.92,1.92,0,0,1,1.17.32,1,1,0,0,1,.44.83,0.9,0.9,0,0,1-.89.92,0.57,0.57,0,0,1-.4-0.13,0.5,0.5,0,0,1-.15-0.39,0.7,0.7,0,0,1,.15-0.45,1.21,1.21,0,0,1,.29-0.28,0.33,0.33,0,0,1,.19-0.08h0a0.16,0.16,0,0,0-.08-0.08,1,1,0,0,0-.28-0.11,1.77,1.77,0,0,0-.45-0.05,1.63,1.63,0,0,0-.76.18,1.88,1.88,0,0,0-.57.41,3.41,3.41,0,0,0-.85,1.63,8,8,0,0,0-.28,1.52,1.14,1.14,0,0,0,.35.91,1,1,0,0,0,.77.32h0.05a3.11,3.11,0,0,0,2.46-1.12,0.38,0.38,0,0,1,.16-0.13,0.34,0.34,0,0,1,.17.12,0.45,0.45,0,0,1,.13.18,0.28,0.28,0,0,1-.12.2l-0.39.37a2.2,2.2,0,0,1-.6.39q-0.35.16-.85,0.33a2.86,2.86,0,0,1-1.06.14,2.13,2.13,0,0,1-1.61-.63A2.26,2.26,0,0,1,844.13,195.47Z"/>
    <g>
      <rect x="837.22" y="194.89" width="6.24" height="0.6"/>
      <path d="M840,187.34l-0.13,0-0.4.1a4.69,4.69,0,0,1-.58.07h-0.19V187.1h0.19a3.31,3.31,0,0,0,.88-0.15,2.39,2.39,0,0,0,.56-0.24,2.58,2.58,0,0,0,.28-0.22,0.15,0.15,0,0,1,.12,0,0.28,0.28,0,0,1,.17.06v6a0.4,0.4,0,0,0,.12.09l0.24,0,0.62,0h0.26v0.46H842q-0.21,0-1.6,0t-1.58,0h-0.12v-0.46h0.9l0.16,0,0.08,0,0.06,0a0.08,0.08,0,0,1,.06,0v-5.15Z"/>
      <path d="M838.92,199.69a0.55,0.55,0,0,1-.43-0.18,0.63,0.63,0,0,1-.16-0.44,1.65,1.65,0,0,1,.53-1.23,1.83,1.83,0,0,1,1.33-.52,2.19,2.19,0,0,1,1.53.56,1.89,1.89,0,0,1,.62,1.44,1.75,1.75,0,0,1-.2.82,2.82,2.82,0,0,1-.48.68q-0.28.29-.81,0.74-0.36.31-1,.92l-0.59.56H840a12.21,12.21,0,0,0,1.68,0,2.68,2.68,0,0,0,.24-0.89v0h0.4v0s-0.05.32-.13,0.91a7.36,7.36,0,0,1-.15.92v0h-3.74v-0.31a0.25,0.25,0,0,1,.06-0.15l0.3-.35,0.5-.56,0.34-.37,0.34-.37,0.29-.33,0.28-.34,0.23-.3a1.7,1.7,0,0,0,.21-0.32l0.15-.29a1.28,1.28,0,0,0,.13-0.32l0.07-.3a1.57,1.57,0,0,0,0-.33,1.76,1.76,0,0,0-.34-1.09,1.15,1.15,0,0,0-1-.46,1,1,0,0,0-.58.17,1.21,1.21,0,0,0-.35.33,0.71,0.71,0,0,0-.1.19H839a0.64,0.64,0,0,1,.37.14,0.53,0.53,0,0,1,.19.46,0.58,0.58,0,0,1-.16.42A0.63,0.63,0,0,1,838.92,199.69Z"/>
    </g>
  </g>
  <g>
    <path d="M909.9,251.48A3.56,3.56,0,0,1,911,248.9a3.45,3.45,0,0,1,2.47-1.14,1.92,1.92,0,0,1,1.17.32,1,1,0,0,1,.44.83,0.9,0.9,0,0,1-.89.92,0.57,0.57,0,0,1-.4-0.13,0.5,0.5,0,0,1-.15-0.39,0.7,0.7,0,0,1,.15-0.45,1.21,1.21,0,0,1,.29-0.28,0.33,0.33,0,0,1,.19-0.08h0a0.16,0.16,0,0,0-.08-0.08,1,1,0,0,0-.28-0.11,1.77,1.77,0,0,0-.45-0.05,1.63,1.63,0,0,0-.76.18,1.88,1.88,0,0,0-.57.41,3.41,3.41,0,0,0-.85,1.63,8,8,0,0,0-.28,1.52,1.14,1.14,0,0,0,.35.91,1,1,0,0,0,.77.32h0.05a3.11,3.11,0,0,0,2.46-1.12,0.38,0.38,0,0,1,.16-0.13,0.34,0.34,0,0,1,.17.12,0.45,0.45,0,0,1,.13.18,0.28,0.28,0,0,1-.12.2l-0.39.37a2.2,2.2,0,0,1-.6.39q-0.35.16-.85,0.33a2.86,2.86,0,0,1-1.06.14,2.13,2.13,0,0,1-1.61-.63A2.26,2.26,0,0,1,909.9,251.48Z"/>
    <g>
      <rect x="902.99" y="250.9" width="6.24" height="0.6"/>
      <path d="M905.74,243.34l-0.13,0-0.4.1a4.69,4.69,0,0,1-.58.07h-0.19V243.1h0.19a3.31,3.31,0,0,0,.88-0.15,2.39,2.39,0,0,0,.56-0.24,2.58,2.58,0,0,0,.28-0.22,0.15,0.15,0,0,1,.12,0,0.28,0.28,0,0,1,.17.06v6a0.4,0.4,0,0,0,.12.09l0.24,0,0.62,0h0.26v0.46h-0.11q-0.21,0-1.6,0t-1.58,0h-0.12v-0.46h0.9l0.16,0,0.08,0,0.06,0a0.08,0.08,0,0,1,.06,0v-5.15Z"/>
      <path d="M904.69,255.7a0.55,0.55,0,0,1-.43-0.18,0.63,0.63,0,0,1-.16-0.44,1.65,1.65,0,0,1,.53-1.23,1.83,1.83,0,0,1,1.33-.52,2.19,2.19,0,0,1,1.53.56,1.89,1.89,0,0,1,.62,1.44,1.75,1.75,0,0,1-.2.82,2.82,2.82,0,0,1-.48.68q-0.28.29-.81,0.74-0.36.31-1,.92L905,259h0.77a12.21,12.21,0,0,0,1.68,0,2.68,2.68,0,0,0,.24-0.89v0h0.4v0s-0.05.32-.13,0.91a7.36,7.36,0,0,1-.15.92v0h-3.74v-0.31a0.25,0.25,0,0,1,.06-0.15l0.3-.35,0.5-.56,0.34-.37,0.34-.37,0.29-.33,0.28-.34,0.23-.3a1.7,1.7,0,0,0,.21-0.32l0.15-.29a1.28,1.28,0,0,0,.13-0.32l0.07-.3a1.57,1.57,0,0,0,0-.33,1.76,1.76,0,0,0-.34-1.09,1.15,1.15,0,0,0-1-.46,1,1,0,0,0-.58.17,1.21,1.21,0,0,0-.35.33,0.71,0.71,0,0,0-.1.19h0.05a0.64,0.64,0,0,1,.37.14,0.53,0.53,0,0,1,.19.46,0.58,0.58,0,0,1-.16.42A0.63,0.63,0,0,1,904.69,255.7Z"/>
    </g>
  </g>
  <g>
    <path d="M827.93,251.53a1.18,1.18,0,0,0-.07-0.29,1.25,1.25,0,0,0-.31-0.46,0.85,0.85,0,0,0-.61-0.26,1.28,1.28,0,0,0-.89.41,2.74,2.74,0,0,0-.66,1.06,10.4,10.4,0,0,0-.54,2.15v0.14a0.69,0.69,0,0,1,0,.16,1.1,1.1,0,0,0,.24.81,0.86,0.86,0,0,0,.57.24,1.51,1.51,0,0,0,1-.43,2.21,2.21,0,0,0,.58-0.67s0.14-.5.36-1.41S827.92,251.6,827.93,251.53Zm-4.22,2.25a3.86,3.86,0,0,1,1-2.52A3,3,0,0,1,827,250a1.51,1.51,0,0,1,1.19.64,0.66,0.66,0,0,1,.61-0.39,0.48,0.48,0,0,1,.31.11,0.32,0.32,0,0,1,.13.26q0,0.17-.49,2.1t-0.5,2.18a0.7,0.7,0,0,0,.09.43,0.39,0.39,0,0,0,.28.12,0.58,0.58,0,0,0,.27-0.12,3,3,0,0,0,.54-1.26,0.49,0.49,0,0,1,.13-0.28h0.19q0.25,0,.25.12a2.07,2.07,0,0,1-.07.35,4.09,4.09,0,0,1-.27.71,2.23,2.23,0,0,1-.42.66,1.32,1.32,0,0,1-.42.28,1.43,1.43,0,0,1-.32,0,1.37,1.37,0,0,1-.76-0.2,1,1,0,0,1-.4-0.41l-0.08-.2s0,0-.05,0l-0.05.05a2.34,2.34,0,0,1-1.59.74,1.82,1.82,0,0,1-1.29-.53A2.2,2.2,0,0,1,823.7,253.78Z"/>
    <path d="M831.78,252.73v-0.17a0.29,0.29,0,0,1,.19-0.26h4v-3.94a0.35,0.35,0,0,1,.25-0.17,0.29,0.29,0,0,1,.27.2v3.91h4a0.27,0.27,0,0,1,0,.53h-4v3.91a0.3,0.3,0,0,1-.24.18h-0.05a0.26,0.26,0,0,1-.24-0.18v-3.91h-4a0.29,0.29,0,0,1-.19-0.26v0.17Z"/>
    <path d="M846.55,251.57v-0.08a0.8,0.8,0,0,0-.81-1,1.15,1.15,0,0,0-.46.11,1.75,1.75,0,0,0-.44.28l-0.35.32a1.72,1.72,0,0,0-.24.29l-0.08.11-0.28,1.13a7.49,7.49,0,0,0-.29,1.6,1.28,1.28,0,0,0,.32.95,0.72,0.72,0,0,0,.53.21,1.33,1.33,0,0,0,.89-0.42,2.25,2.25,0,0,0,.53-0.74,8.69,8.69,0,0,0,.44-1.38A6.39,6.39,0,0,0,846.55,251.57Zm-3.49-4.23a1,1,0,0,1,.05-0.3,0.19,0.19,0,0,1,.16-0.17l1-.07,1-.08q0.16,0,.16.12t-0.45,1.88l-0.23.92q-0.12.47-.2,0.71l-0.05.25s0,0,.08,0a2.12,2.12,0,0,1,1.34-.53,1.64,1.64,0,0,1,1.33.6,2.35,2.35,0,0,1,.52,1.52,3.88,3.88,0,0,1-1,2.64,3,3,0,0,1-2.26,1.18,1.75,1.75,0,0,1-1.21-.5,2.14,2.14,0,0,1-.56-1.62v-0.12a3.82,3.82,0,0,1,.11-0.76q0.11-.49.65-2.59,0.66-2.59.66-2.75t-0.5-.18h-0.35a0.17,0.17,0,0,1-.09,0A0.08,0.08,0,0,1,843.06,247.34Z"/>
    <path d="M849.27,252.73v-0.17a0.29,0.29,0,0,1,.19-0.26h4v-3.94a0.35,0.35,0,0,1,.25-0.17,0.29,0.29,0,0,1,.27.2v3.91h4a0.27,0.27,0,0,1,0,.53h-4v3.91a0.3,0.3,0,0,1-.24.18h-0.05a0.26,0.26,0,0,1-.24-0.18v-3.91h-4a0.29,0.29,0,0,1-.19-0.26v0.17Z"/>
    <path d="M867.17,253.75a3.56,3.56,0,0,1,1.14-2.57,3.45,3.45,0,0,1,2.47-1.14,1.92,1.92,0,0,1,1.17.32,1,1,0,0,1,.44.83,0.9,0.9,0,0,1-.89.92,0.57,0.57,0,0,1-.4-0.13,0.5,0.5,0,0,1-.15-0.39,0.7,0.7,0,0,1,.15-0.45,1.21,1.21,0,0,1,.29-0.28,0.33,0.33,0,0,1,.19-0.08h0a0.15,0.15,0,0,0-.08-0.08,1,1,0,0,0-.28-0.11,1.78,1.78,0,0,0-.45-0.05,1.64,1.64,0,0,0-.76.18,1.88,1.88,0,0,0-.57.41,3.41,3.41,0,0,0-.85,1.63,8,8,0,0,0-.28,1.52,1.14,1.14,0,0,0,.35.91,1,1,0,0,0,.77.32h0.05a3.11,3.11,0,0,0,2.46-1.12,0.38,0.38,0,0,1,.16-0.13,0.34,0.34,0,0,1,.17.12,0.45,0.45,0,0,1,.13.18,0.28,0.28,0,0,1-.12.2l-0.38.37a2.2,2.2,0,0,1-.6.39q-0.35.16-.85,0.33a2.86,2.86,0,0,1-1.06.14,2.13,2.13,0,0,1-1.61-.63A2.26,2.26,0,0,1,867.17,253.75Z"/>
    <g>
      <rect x="815.28" y="252.11" width="6.24" height="0.6"/>
      <path d="M818,244.55l-0.13,0-0.4.1a4.69,4.69,0,0,1-.58.07h-0.19v-0.46h0.19a3.31,3.31,0,0,0,.88-0.15,2.39,2.39,0,0,0,.56-0.24,2.58,2.58,0,0,0,.28-0.22,0.15,0.15,0,0,1,.12,0,0.28,0.28,0,0,1,.17.06v6a0.4,0.4,0,0,0,.12.09l0.24,0,0.62,0h0.26v0.46h-0.11q-0.21,0-1.6,0t-1.58,0h-0.12v-0.46h0.9l0.16,0,0.08,0,0.06,0a0.08,0.08,0,0,1,.06,0v-5.15Z"/>
      <path d="M817,256.9a0.55,0.55,0,0,1-.43-0.18,0.63,0.63,0,0,1-.16-0.44,1.65,1.65,0,0,1,.53-1.23,1.83,1.83,0,0,1,1.33-.52,2.19,2.19,0,0,1,1.53.56,1.89,1.89,0,0,1,.62,1.44,1.75,1.75,0,0,1-.2.82,2.82,2.82,0,0,1-.48.68q-0.28.29-.81,0.74-0.36.31-1,.92l-0.59.56h0.77a12.21,12.21,0,0,0,1.68,0,2.68,2.68,0,0,0,.24-0.89v0h0.4v0s-0.05.32-.13,0.91a7.36,7.36,0,0,1-.15.92v0h-3.74v-0.31a0.25,0.25,0,0,1,.06-0.15l0.3-.35,0.5-.56,0.34-.37,0.34-.37,0.29-.33,0.28-.34,0.23-.3a1.7,1.7,0,0,0,.21-0.32l0.15-.29a1.28,1.28,0,0,0,.13-0.32l0.07-.3a1.57,1.57,0,0,0,0-.33,1.76,1.76,0,0,0-.34-1.09,1.15,1.15,0,0,0-1-.46,1,1,0,0,0-.58.17,1.21,1.21,0,0,0-.35.33,0.71,0.71,0,0,0-.1.19H817a0.64,0.64,0,0,1,.37.14,0.53,0.53,0,0,1,.19.46,0.58,0.58,0,0,1-.16.42A0.63,0.63,0,0,1,817,256.9Z"/>
    </g>
    <g>
      <rect x="859.74" y="252.11" width="6.24" height="0.6"/>
      <path d="M862.49,244.55l-0.13,0-0.4.1a4.69,4.69,0,0,1-.58.07h-0.19v-0.46h0.19a3.31,3.31,0,0,0,.88-0.15,2.39,2.39,0,0,0,.56-0.24,2.58,2.58,0,0,0,.28-0.22,0.15,0.15,0,0,1,.12,0,0.28,0.28,0,0,1,.17.06v6a0.4,0.4,0,0,0,.12.09l0.24,0,0.62,0h0.26v0.46h-0.11q-0.21,0-1.6,0t-1.58,0h-0.12v-0.46h0.9l0.16,0,0.08,0,0.06,0a0.08,0.08,0,0,1,.06,0v-5.15Z"/>
      <path d="M861.44,256.9a0.55,0.55,0,0,1-.43-0.18,0.63,0.63,0,0,1-.16-0.44,1.65,1.65,0,0,1,.53-1.23,1.83,1.83,0,0,1,1.33-.52,2.19,2.19,0,0,1,1.53.56,1.89,1.89,0,0,1,.62,1.44,1.75,1.75,0,0,1-.2.82,2.82,2.82,0,0,1-.48.68q-0.28.29-.81,0.74-0.36.31-1,.92l-0.59.56h0.77a12.21,12.21,0,0,0,1.68,0,2.68,2.68,0,0,0,.24-0.89v0h0.4v0s-0.05.32-.13,0.91a7.36,7.36,0,0,1-.15.92v0h-3.74v-0.31a0.25,0.25,0,0,1,.06-0.15l0.3-.35,0.5-.56,0.34-.37,0.34-.37,0.29-.33,0.28-.34,0.23-.3a1.7,1.7,0,0,0,.21-0.32l0.15-.29a1.28,1.28,0,0,0,.13-0.32l0.07-.3a1.57,1.57,0,0,0,0-.33,1.76,1.76,0,0,0-.34-1.09,1.15,1.15,0,0,0-1-.46,1,1,0,0,0-.58.17,1.21,1.21,0,0,0-.35.33,0.71,0.71,0,0,0-.1.19h0.05a0.64,0.64,0,0,1,.37.14,0.53,0.53,0,0,1,.19.46,0.58,0.58,0,0,1-.16.42A0.63,0.63,0,0,1,861.44,256.9Z"/>
    </g>
  </g>
  <g>
    <path d="M761.83,251.53a1.18,1.18,0,0,0-.07-0.29,1.25,1.25,0,0,0-.31-0.46,0.85,0.85,0,0,0-.61-0.26,1.28,1.28,0,0,0-.89.41,2.74,2.74,0,0,0-.66,1.06,10.4,10.4,0,0,0-.54,2.15v0.14a0.69,0.69,0,0,1,0,.16,1.1,1.1,0,0,0,.24.81,0.86,0.86,0,0,0,.57.24,1.51,1.51,0,0,0,1-.43,2.22,2.22,0,0,0,.58-0.67s0.14-.5.36-1.41S761.82,251.6,761.83,251.53Zm-4.22,2.25a3.86,3.86,0,0,1,1-2.52,3,3,0,0,1,2.27-1.21,1.51,1.51,0,0,1,1.19.64,0.66,0.66,0,0,1,.61-0.39,0.48,0.48,0,0,1,.31.11,0.32,0.32,0,0,1,.13.26q0,0.17-.49,2.1t-0.5,2.18a0.7,0.7,0,0,0,.09.43,0.39,0.39,0,0,0,.28.12,0.58,0.58,0,0,0,.27-0.12,3,3,0,0,0,.54-1.26,0.49,0.49,0,0,1,.13-0.28h0.19q0.25,0,.25.12a2.07,2.07,0,0,1-.07.35,4.09,4.09,0,0,1-.27.71,2.24,2.24,0,0,1-.42.66,1.31,1.31,0,0,1-.42.28,1.43,1.43,0,0,1-.32,0,1.37,1.37,0,0,1-.76-0.2,1,1,0,0,1-.4-0.41l-0.08-.2s0,0-.05,0l-0.05.05a2.34,2.34,0,0,1-1.59.74,1.82,1.82,0,0,1-1.29-.53A2.2,2.2,0,0,1,757.61,253.78Z"/>
    <g>
      <rect x="749.82" y="252.11" width="6.24" height="0.6"/>
      <path d="M752.57,244.55l-0.13,0-0.4.1a4.69,4.69,0,0,1-.58.07h-0.19v-0.46h0.19a3.31,3.31,0,0,0,.88-0.15,2.39,2.39,0,0,0,.56-0.24,2.58,2.58,0,0,0,.28-0.22,0.15,0.15,0,0,1,.12,0,0.28,0.28,0,0,1,.17.06v6a0.4,0.4,0,0,0,.12.09l0.24,0,0.62,0h0.26v0.46h-0.11q-0.21,0-1.6,0t-1.58,0h-0.12v-0.46h0.9l0.16,0,0.08,0,0.06,0a0.08,0.08,0,0,1,.06,0v-5.15Z"/>
      <path d="M751.52,256.9a0.55,0.55,0,0,1-.43-0.18,0.63,0.63,0,0,1-.16-0.44,1.65,1.65,0,0,1,.53-1.23,1.83,1.83,0,0,1,1.33-.52,2.19,2.19,0,0,1,1.53.56,1.89,1.89,0,0,1,.62,1.44,1.75,1.75,0,0,1-.2.82,2.82,2.82,0,0,1-.48.68q-0.28.29-.81,0.74-0.36.31-1,.92l-0.59.56h0.77a12.21,12.21,0,0,0,1.68,0,2.68,2.68,0,0,0,.24-0.89v0h0.4v0s-0.05.32-.13,0.91a7.36,7.36,0,0,1-.15.92v0h-3.74v-0.31a0.25,0.25,0,0,1,.06-0.15l0.3-.35,0.5-.56,0.34-.37,0.34-.37,0.29-.33,0.28-.34,0.23-.3a1.7,1.7,0,0,0,.21-0.32l0.15-.29a1.28,1.28,0,0,0,.13-0.32l0.07-.3a1.57,1.57,0,0,0,0-.33,1.76,1.76,0,0,0-.34-1.09,1.15,1.15,0,0,0-1-.46,1,1,0,0,0-.58.17,1.21,1.21,0,0,0-.35.33,0.71,0.71,0,0,0-.1.19h0.05a0.64,0.64,0,0,1,.37.14,0.53,0.53,0,0,1,.19.46,0.58,0.58,0,0,1-.16.42A0.63,0.63,0,0,1,751.52,256.9Z"/>
    </g>
  </g>
  <text transform="translate(54 288.16)" font-size="14" fill="#231f20" font-family="Open Sans" font-weight="700">Deconvolution</text>
  <text transform="translate(356.95 288.16)" font-size="14" fill="#231f20" font-family="Open Sans" font-weight="700">NN-Resize Convolution</text>
  <text transform="translate(660 288.16)" font-size="14" fill="#231f20" font-family="Open Sans" font-weight="700">Bilinear-Resize Convolution</text>
  <g>
    <polygon points="357 32.76 357 104.76 417 104.76 387 32.76 357 32.76" fill="#2c3e98" stroke="#2c3e98" stroke-miterlimit="10" opacity="0.4"/>
    <polygon points="417 32.76 387 104.76 477 104.76 447 32.76 417 32.76" fill="#2c3e98" stroke="#2c3e98" stroke-miterlimit="10" opacity="0.4"/>
    <polygon points="387 32.92 357 104.92 447 104.92 417 32.92 387 32.92" fill="#2c3e98" stroke="#2c3e98" stroke-linejoin="bevel" opacity="0.4"/>
    <polygon points="447 32.76 417 104.76 507 104.76 477 32.76 447 32.76" fill="#2c3e98" stroke="#2c3e98" stroke-miterlimit="10" opacity="0.4"/>
    <polygon points="507 32.76 477 104.76 567 104.76 537 32.76 507 32.76" fill="#2c3e98" stroke="#2c3e98" stroke-miterlimit="10" opacity="0.4"/>
    <polygon points="477 32.76 447 104.76 537 104.76 507 32.76 477 32.76" fill="#2c3e98" stroke="#2c3e98" stroke-miterlimit="10" opacity="0.4"/>
    <polygon points="597 32.76 567 104.76 627 104.76 627 32.76 597 32.76" fill="#2c3e98" stroke="#2c3e98" stroke-miterlimit="10" opacity="0.4"/>
    <rect x="357" y="2.76" width="30.33" height="29.92" fill="#727273" stroke="#231f20" stroke-miterlimit="10"/>
    <rect x="387.33" y="2.76" width="29.92" height="29.92" fill="silver" stroke="#231f20" stroke-miterlimit="10"/>
    <rect x="417.25" y="2.76" width="29.92" height="29.92" fill="#727273" stroke="#231f20" stroke-miterlimit="10"/>
    <rect x="447.17" y="2.76" width="29.92" height="29.92" fill="silver" stroke="#231f20" stroke-miterlimit="10"/>
    <rect x="477.08" y="2.76" width="29.92" height="29.92" fill="#727273" stroke="#231f20" stroke-miterlimit="10"/>
    <rect x="507" y="2.76" width="29.92" height="29.92" fill="silver" stroke="#231f20" stroke-miterlimit="10"/>
    <rect x="596.92" y="2.76" width="30.08" height="29.92" fill="#727273" stroke="#231f20" stroke-miterlimit="10"/>
    <rect x="357" y="104.76" width="30.33" height="29.92" fill="silver" stroke="#231f20" stroke-miterlimit="10"/>
    <rect x="387.33" y="104.76" width="29.92" height="29.92" fill="#727273" stroke="#231f20" stroke-miterlimit="10"/>
    <rect x="417.25" y="104.76" width="29.92" height="29.92" fill="#727273" stroke="#231f20" stroke-miterlimit="10"/>
    <rect x="447.17" y="104.76" width="29.92" height="29.92" fill="#727273" stroke="#231f20" stroke-miterlimit="10"/>
    <rect x="477.08" y="104.76" width="29.92" height="29.92" fill="#727273" stroke="#231f20" stroke-miterlimit="10"/>
    <rect x="507" y="104.76" width="29.92" height="29.92" fill="#727273" stroke="#231f20" stroke-miterlimit="10"/>
    <rect x="596.92" y="104.76" width="30.08" height="29.92" fill="silver" stroke="#231f20" stroke-miterlimit="10"/>
    <g>
      <line x1="379.5" y1="17.76" x2="393.73" y2="17.76" fill="none" stroke="#231f20" stroke-miterlimit="10"/>
      <path d="M398,17.76a21.15,21.15,0,0,0-6,3.33l1.2-3.33L392,14.43A21.14,21.14,0,0,0,398,17.76Z" fill="#231f20"/>
    </g>
    <g>
      <line x1="439.5" y1="17.76" x2="454.56" y2="17.76" fill="none" stroke="#231f20" stroke-miterlimit="10"/>
      <path d="M458.79,17.76a21.15,21.15,0,0,0-6,3.33l1.2-3.33-1.2-3.33A21.14,21.14,0,0,0,458.79,17.76Z" fill="#231f20"/>
    </g>
    <g>
      <line x1="500.21" y1="17.76" x2="515.28" y2="17.76" fill="none" stroke="#231f20" stroke-miterlimit="10"/>
      <path d="M519.5,17.76a21.15,21.15,0,0,0-6,3.33l1.2-3.33-1.2-3.33A21.14,21.14,0,0,0,519.5,17.76Z" fill="#231f20"/>
    </g>
    <polygon points="567 32.76 537 104.76 627 104.76 597 32.76 567 32.76" fill="#2c3e98" stroke="#2c3e98" stroke-linejoin="bevel" opacity="0.4"/>
    <polygon points="537 32.76 507 104.76 597 104.76 567 32.76 537 32.76" fill="#2c3e98" stroke="#2c3e98" stroke-miterlimit="10" opacity="0.4"/>
    <rect x="537.08" y="2.76" width="29.92" height="29.92" fill="#727273" stroke="#231f20" stroke-miterlimit="10"/>
    <rect x="567" y="2.76" width="29.92" height="29.92" fill="silver" stroke="#231f20" stroke-miterlimit="10"/>
    <rect x="537.08" y="104.76" width="29.92" height="29.92" fill="#727273" stroke="#231f20" stroke-miterlimit="10"/>
    <rect x="567" y="104.76" width="29.92" height="29.92" fill="#727273" stroke="#231f20" stroke-miterlimit="10"/>
    <g>
      <line x1="560.21" y1="17.76" x2="575.28" y2="17.76" fill="none" stroke="#231f20" stroke-miterlimit="10"/>
      <path d="M579.5,17.76a21.15,21.15,0,0,0-6,3.33l1.2-3.33-1.2-3.33A21.14,21.14,0,0,0,579.5,17.76Z" fill="#231f20"/>
    </g>
  </g>
  <g>
    <polygon points="660 32.84 660 104.84 720 104.84 690 32.84 660 32.84" fill="#2c3e98" stroke="#2c3e98" stroke-miterlimit="10" opacity="0.4"/>
    <polygon points="720 32.84 690 104.84 780 104.84 750 32.84 720 32.84" fill="#2c3e98" stroke="#2c3e98" stroke-miterlimit="10" opacity="0.4"/>
    <polygon points="690 32.84 660 104.84 750 104.84 720 32.84 690 32.84" fill="#2c3e98" stroke="#2c3e98" stroke-linejoin="bevel" opacity="0.4"/>
    <polygon points="750 32.84 720 104.84 810 104.84 780 32.84 750 32.84" fill="#2c3e98" stroke="#2c3e98" stroke-miterlimit="10" opacity="0.4"/>
    <polygon points="810 32.84 780 104.84 870 104.84 840 32.84 810 32.84" fill="#2c3e98" stroke="#2c3e98" stroke-miterlimit="10" opacity="0.4"/>
    <polygon points="780 32.84 750 104.84 840 104.84 810 32.84 780 32.84" fill="#2c3e98" stroke="#2c3e98" stroke-miterlimit="10" opacity="0.4"/>
    <polygon points="900 32.84 870 104.84 930 104.84 930 32.84 900 32.84" fill="#2c3e98" stroke="#2c3e98" stroke-miterlimit="10" opacity="0.4"/>
    <rect x="660" y="2.84" width="30.33" height="29.92" fill="#727273" stroke="#231f20" stroke-miterlimit="10"/>
    <rect x="690.33" y="2.84" width="29.92" height="29.92" fill="silver" stroke="#231f20" stroke-miterlimit="10"/>
    <rect x="720.25" y="2.84" width="29.92" height="29.92" fill="#727273" stroke="#231f20" stroke-miterlimit="10"/>
    <rect x="750.17" y="2.84" width="29.92" height="29.92" fill="silver" stroke="#231f20" stroke-miterlimit="10"/>
    <rect x="780.08" y="2.84" width="29.92" height="29.92" fill="#727273" stroke="#231f20" stroke-miterlimit="10"/>
    <rect x="810" y="2.84" width="29.92" height="29.92" fill="silver" stroke="#231f20" stroke-miterlimit="10"/>
    <rect x="899.92" y="2.84" width="30.08" height="29.92" fill="#727273" stroke="#231f20" stroke-miterlimit="10"/>
    <rect x="660" y="104.84" width="30.33" height="29.92" fill="silver" stroke="#231f20" stroke-miterlimit="10"/>
    <rect x="690.33" y="104.84" width="29.92" height="29.92" fill="#727273" stroke="#231f20" stroke-miterlimit="10"/>
    <rect x="720.25" y="104.84" width="29.92" height="29.92" fill="#727273" stroke="#231f20" stroke-miterlimit="10"/>
    <rect x="750.17" y="104.84" width="29.92" height="29.92" fill="#727273" stroke="#231f20" stroke-miterlimit="10"/>
    <rect x="780.08" y="104.84" width="29.92" height="29.92" fill="#727273" stroke="#231f20" stroke-miterlimit="10"/>
    <rect x="810" y="104.84" width="29.92" height="29.92" fill="#727273" stroke="#231f20" stroke-miterlimit="10"/>
    <rect x="899.92" y="104.84" width="30.08" height="29.92" fill="silver" stroke="#231f20" stroke-miterlimit="10"/>
    <g>
      <line x1="742.5" y1="17.84" x2="757.56" y2="17.84" fill="none" stroke="#231f20" stroke-miterlimit="10"/>
      <path d="M761.79,17.84a21.15,21.15,0,0,0-6,3.33l1.2-3.33-1.2-3.33A21.13,21.13,0,0,0,761.79,17.84Z" fill="#231f20"/>
    </g>
    <g>
      <line x1="787.5" y1="17.84" x2="768.21" y2="17.84" fill="#d8d9e8"/>
      <g>
        <line x1="787.5" y1="17.84" x2="772.44" y2="17.84" fill="none" stroke="#231f20" stroke-miterlimit="10"/>
        <path d="M768.21,17.84a21.15,21.15,0,0,0,6-3.33L773,17.84l1.2,3.33A21.13,21.13,0,0,0,768.21,17.84Z" fill="#231f20"/>
      </g>
    </g>
    <g>
      <line x1="802.5" y1="17.84" x2="817.56" y2="17.84" fill="none" stroke="#231f20" stroke-miterlimit="10"/>
      <path d="M821.79,17.84a21.15,21.15,0,0,0-6,3.33l1.2-3.33-1.2-3.33A21.13,21.13,0,0,0,821.79,17.84Z" fill="#231f20"/>
    </g>
    <polygon points="870 32.84 840 104.84 930 104.84 900 32.84 870 32.84" fill="#2c3e98" stroke="#2c3e98" stroke-linejoin="bevel" opacity="0.4"/>
    <polygon points="840 32.84 810 104.84 900 104.84 870 32.84 840 32.84" fill="#2c3e98" stroke="#2c3e98" stroke-miterlimit="10" opacity="0.4"/>
    <rect x="840.08" y="2.84" width="29.92" height="29.92" fill="#727273" stroke="#231f20" stroke-miterlimit="10"/>
    <rect x="870" y="2.84" width="29.92" height="29.92" fill="silver" stroke="#231f20" stroke-miterlimit="10"/>
    <rect x="840.08" y="104.84" width="29.92" height="29.92" fill="#727273" stroke="#231f20" stroke-miterlimit="10"/>
    <rect x="870" y="104.84" width="29.92" height="29.92" fill="#727273" stroke="#231f20" stroke-miterlimit="10"/>
    <g>
      <line x1="862.5" y1="17.84" x2="877.56" y2="17.84" fill="none" stroke="#231f20" stroke-miterlimit="10"/>
      <path d="M881.79,17.84a21.15,21.15,0,0,0-6,3.33l1.2-3.33-1.2-3.33A21.13,21.13,0,0,0,881.79,17.84Z" fill="#231f20"/>
    </g>
    <g>
      <line x1="907.5" y1="17.84" x2="888.21" y2="17.84" fill="#d8d9e8"/>
      <g>
        <line x1="907.5" y1="17.84" x2="892.44" y2="17.84" fill="none" stroke="#231f20" stroke-miterlimit="10"/>
        <path d="M888.21,17.84a21.15,21.15,0,0,0,6-3.33L893,17.84l1.2,3.33A21.13,21.13,0,0,0,888.21,17.84Z" fill="#231f20"/>
      </g>
    </g>
    <g>
      <line x1="682.5" y1="17.84" x2="697.56" y2="17.84" fill="none" stroke="#231f20" stroke-miterlimit="10"/>
      <path d="M701.79,17.84a21.15,21.15,0,0,0-6,3.33l1.2-3.33-1.2-3.33A21.13,21.13,0,0,0,701.79,17.84Z" fill="#231f20"/>
    </g>
    <g>
      <line x1="727.5" y1="17.84" x2="708.21" y2="17.84" fill="#d8d9e8"/>
      <g>
        <line x1="727.5" y1="17.84" x2="712.44" y2="17.84" fill="none" stroke="#231f20" stroke-miterlimit="10"/>
        <path d="M708.21,17.84a21.15,21.15,0,0,0,6-3.33L713,17.84l1.2,3.33A21.13,21.13,0,0,0,708.21,17.84Z" fill="#231f20"/>
      </g>
    </g>
    <g>
      <line x1="847.5" y1="17.84" x2="828.21" y2="17.84" fill="#d8d9e8"/>
      <g>
        <line x1="847.5" y1="17.84" x2="832.44" y2="17.84" fill="none" stroke="#231f20" stroke-miterlimit="10"/>
        <path d="M828.21,17.84a21.15,21.15,0,0,0,6-3.33L833,17.84l1.2,3.33A21.13,21.13,0,0,0,828.21,17.84Z" fill="#231f20"/>
      </g>
    </g>
  </g>
</svg>
